{
	"asset":{
		"generator":"Khronos glTF Blender I/O v4.3.47",
		"version":"2.0"
	},
	"scene":0,
	"scenes":[
		{
			"name":"Scene",
			"nodes":[
				0
			]
		}
	],
	"nodes":[
		{
			"mesh":0,
			"name":"Brick_BayWindow"
		}
	],
	"materials":[
		{
			"doubleSided":true,
			"name":"MI_Trim",
			"normalTexture":{
				"index":0
			},
			"pbrMetallicRoughness":{
				"baseColorTexture":{
					"index":1
				},
				"metallicRoughnessTexture":{
					"index":2
				}
			}
		},
		{
			"alphaMode":"BLEND",
			"doubleSided":true,
			"name":"MI_Glass",
			"pbrMetallicRoughness":{
				"baseColorFactor":[
					0.05215025693178177,
					0.05215025693178177,
					0.05215025693178177,
					0.586363673210144
				],
				"metallicFactor":0,
				"roughnessFactor":0.5
			}
		},
		{
			"doubleSided":true,
			"name":"MI_FakeInterior",
			"pbrMetallicRoughness":{
				"baseColorFactor":[
					0.800000011920929,
					0.800000011920929,
					0.800000011920929,
					1
				],
				"metallicFactor":0,
				"roughnessFactor":0.5
			}
		},
		{
			"doubleSided":true,
			"name":"MI_Trim_Dark",
			"normalTexture":{
				"index":3
			},
			"pbrMetallicRoughness":{
				"baseColorTexture":{
					"index":4
				},
				"metallicRoughnessTexture":{
					"index":5
				}
			}
		},
		{
			"doubleSided":true,
			"name":"MI_RedBrick",
			"normalTexture":{
				"index":6
			},
			"pbrMetallicRoughness":{
				"baseColorTexture":{
					"index":7
				},
				"metallicRoughnessTexture":{
					"index":8
				}
			}
		},
		{
			"doubleSided":true,
			"name":"MI_InteriorWall",
			"normalTexture":{
				"index":9
			},
			"pbrMetallicRoughness":{
				"baseColorTexture":{
					"index":10
				},
				"metallicRoughnessTexture":{
					"index":11
				}
			}
		}
	],
	"meshes":[
		{
			"name":"Cube.156",
			"primitives":[
				{
					"attributes":{
						"POSITION":0,
						"NORMAL":1,
						"TEXCOORD_0":2,
						"TEXCOORD_1":3,
						"COLOR_0":4,
						"COLOR_1":5
					},
					"indices":6,
					"material":0
				},
				{
					"attributes":{
						"POSITION":7,
						"NORMAL":8,
						"TEXCOORD_0":9,
						"TEXCOORD_1":10,
						"COLOR_0":11,
						"COLOR_1":12
					},
					"indices":13,
					"material":1
				},
				{
					"attributes":{
						"POSITION":14,
						"NORMAL":15,
						"TEXCOORD_0":16,
						"TEXCOORD_1":17,
						"COLOR_0":18,
						"COLOR_1":19
					},
					"indices":20,
					"material":2
				},
				{
					"attributes":{
						"POSITION":21,
						"NORMAL":22,
						"TEXCOORD_0":23,
						"TEXCOORD_1":24,
						"COLOR_0":25,
						"COLOR_1":26
					},
					"indices":27,
					"material":3
				},
				{
					"attributes":{
						"POSITION":28,
						"NORMAL":29,
						"TEXCOORD_0":30,
						"TEXCOORD_1":31,
						"COLOR_0":32,
						"COLOR_1":33
					},
					"indices":34,
					"material":4
				},
				{
					"attributes":{
						"POSITION":35,
						"NORMAL":36,
						"TEXCOORD_0":37,
						"TEXCOORD_1":38,
						"COLOR_0":39,
						"COLOR_1":40
					},
					"indices":41,
					"material":5
				}
			]
		}
	],
	"textures":[
		{
			"sampler":0,
			"source":0
		},
		{
			"sampler":0,
			"source":1
		},
		{
			"sampler":0,
			"source":2
		},
		{
			"sampler":0,
			"source":0
		},
		{
			"sampler":0,
			"source":1
		},
		{
			"sampler":0,
			"source":2
		},
		{
			"sampler":0,
			"source":3
		},
		{
			"sampler":0,
			"source":4
		},
		{
			"sampler":0,
			"source":5
		},
		{
			"sampler":0,
			"source":3
		},
		{
			"sampler":0,
			"source":4
		},
		{
			"sampler":0,
			"source":5
		}
	],
	"images":[
		{
			"mimeType":"image/png",
			"name":"T_Trim_Normal",
			"uri":"T_Trim_Normal.png"
		},
		{
			"mimeType":"image/png",
			"name":"T_Trim_BaseColor",
			"uri":"T_Trim_BaseColor.png"
		},
		{
			"mimeType":"image/png",
			"name":"T_Trim_ORM",
			"uri":"T_Trim_ORM.png"
		},
		{
			"mimeType":"image/png",
			"name":"T_RedBrick_Normal",
			"uri":"T_RedBrick_Normal.png"
		},
		{
			"mimeType":"image/png",
			"name":"T_RedBrick_BaseColor",
			"uri":"T_RedBrick_BaseColor.png"
		},
		{
			"mimeType":"image/png",
			"name":"T_RedBrick_ORM",
			"uri":"T_RedBrick_ORM.png"
		}
	],
	"accessors":[
		{
			"bufferView":0,
			"componentType":5126,
			"count":651,
			"max":[
				2.1136441230773926,
				2.676645517349243,
				1.1932399272918701
			],
			"min":[
				-2.1136441230773926,
				0.030997157096862793,
				-0.000807957083452493
			],
			"type":"VEC3"
		},
		{
			"bufferView":1,
			"componentType":5126,
			"count":651,
			"type":"VEC3"
		},
		{
			"bufferView":2,
			"componentType":5126,
			"count":651,
			"type":"VEC2"
		},
		{
			"bufferView":3,
			"componentType":5126,
			"count":651,
			"type":"VEC2"
		},
		{
			"bufferView":4,
			"componentType":5121,
			"count":651,
			"normalized":true,
			"type":"VEC4"
		},
		{
			"bufferView":5,
			"componentType":5123,
			"count":651,
			"normalized":true,
			"type":"VEC4"
		},
		{
			"bufferView":6,
			"componentType":5123,
			"count":1290,
			"type":"SCALAR"
		},
		{
			"bufferView":7,
			"componentType":5126,
			"count":36,
			"max":[
				1.63974928855896,
				1.9567501544952393,
				0.8683905005455017
			],
			"min":[
				-1.63974928855896,
				0.2077261507511139,
				0.18834033608436584
			],
			"type":"VEC3"
		},
		{
			"bufferView":8,
			"componentType":5126,
			"count":36,
			"type":"VEC3"
		},
		{
			"bufferView":9,
			"componentType":5126,
			"count":36,
			"type":"VEC2"
		},
		{
			"bufferView":10,
			"componentType":5126,
			"count":36,
			"type":"VEC2"
		},
		{
			"bufferView":11,
			"componentType":5121,
			"count":36,
			"normalized":true,
			"type":"VEC4"
		},
		{
			"bufferView":12,
			"componentType":5123,
			"count":36,
			"normalized":true,
			"type":"VEC4"
		},
		{
			"bufferView":13,
			"componentType":5123,
			"count":72,
			"type":"SCALAR"
		},
		{
			"bufferView":14,
			"componentType":5126,
			"count":12,
			"max":[
				1.8789669275283813,
				2.8027091026306152,
				0.8663164377212524
			],
			"min":[
				-1.8789669275283813,
				0.02259528636932373,
				-0.0680239200592041
			],
			"type":"VEC3"
		},
		{
			"bufferView":15,
			"componentType":5126,
			"count":12,
			"type":"VEC3"
		},
		{
			"bufferView":16,
			"componentType":5126,
			"count":12,
			"type":"VEC2"
		},
		{
			"bufferView":17,
			"componentType":5126,
			"count":12,
			"type":"VEC2"
		},
		{
			"bufferView":18,
			"componentType":5121,
			"count":12,
			"normalized":true,
			"type":"VEC4"
		},
		{
			"bufferView":19,
			"componentType":5123,
			"count":12,
			"normalized":true,
			"type":"VEC4"
		},
		{
			"bufferView":20,
			"componentType":5123,
			"count":18,
			"type":"SCALAR"
		},
		{
			"bufferView":21,
			"componentType":5126,
			"count":702,
			"max":[
				1.728621482849121,
				2.0034594535827637,
				0.945693850517273
			],
			"min":[
				-1.728621244430542,
				0.15454363822937012,
				0.11274399608373642
			],
			"type":"VEC3"
		},
		{
			"bufferView":22,
			"componentType":5126,
			"count":702,
			"type":"VEC3"
		},
		{
			"bufferView":23,
			"componentType":5126,
			"count":702,
			"type":"VEC2"
		},
		{
			"bufferView":24,
			"componentType":5126,
			"count":702,
			"type":"VEC2"
		},
		{
			"bufferView":25,
			"componentType":5121,
			"count":702,
			"normalized":true,
			"type":"VEC4"
		},
		{
			"bufferView":26,
			"componentType":5123,
			"count":702,
			"normalized":true,
			"type":"VEC4"
		},
		{
			"bufferView":27,
			"componentType":5123,
			"count":1368,
			"type":"SCALAR"
		},
		{
			"bufferView":28,
			"componentType":5126,
			"count":102,
			"max":[
				2,
				3.000208854675293,
				1.0000001192092896
			],
			"min":[
				-2,
				0,
				0
			],
			"type":"VEC3"
		},
		{
			"bufferView":29,
			"componentType":5126,
			"count":102,
			"type":"VEC3"
		},
		{
			"bufferView":30,
			"componentType":5126,
			"count":102,
			"type":"VEC2"
		},
		{
			"bufferView":31,
			"componentType":5126,
			"count":102,
			"type":"VEC2"
		},
		{
			"bufferView":32,
			"componentType":5121,
			"count":102,
			"normalized":true,
			"type":"VEC4"
		},
		{
			"bufferView":33,
			"componentType":5123,
			"count":102,
			"normalized":true,
			"type":"VEC4"
		},
		{
			"bufferView":34,
			"componentType":5123,
			"count":360,
			"type":"SCALAR"
		},
		{
			"bufferView":35,
			"componentType":5126,
			"count":72,
			"max":[
				2,
				3.000000476837158,
				0.7999998927116394
			],
			"min":[
				-2,
				0,
				-0.20000004768371582
			],
			"type":"VEC3"
		},
		{
			"bufferView":36,
			"componentType":5126,
			"count":72,
			"type":"VEC3"
		},
		{
			"bufferView":37,
			"componentType":5126,
			"count":72,
			"type":"VEC2"
		},
		{
			"bufferView":38,
			"componentType":5126,
			"count":72,
			"type":"VEC2"
		},
		{
			"bufferView":39,
			"componentType":5121,
			"count":72,
			"normalized":true,
			"type":"VEC4"
		},
		{
			"bufferView":40,
			"componentType":5123,
			"count":72,
			"normalized":true,
			"type":"VEC4"
		},
		{
			"bufferView":41,
			"componentType":5123,
			"count":180,
			"type":"SCALAR"
		}
	],
	"bufferViews":[
		{
			"buffer":0,
			"byteLength":7812,
			"byteOffset":0,
			"target":34962
		},
		{
			"buffer":0,
			"byteLength":7812,
			"byteOffset":7812,
			"target":34962
		},
		{
			"buffer":0,
			"byteLength":5208,
			"byteOffset":15624,
			"target":34962
		},
		{
			"buffer":0,
			"byteLength":5208,
			"byteOffset":20832,
			"target":34962
		},
		{
			"buffer":0,
			"byteLength":2604,
			"byteOffset":26040,
			"target":34962
		},
		{
			"buffer":0,
			"byteLength":5208,
			"byteOffset":28644,
			"target":34962
		},
		{
			"buffer":0,
			"byteLength":2580,
			"byteOffset":33852,
			"target":34963
		},
		{
			"buffer":0,
			"byteLength":432,
			"byteOffset":36432,
			"target":34962
		},
		{
			"buffer":0,
			"byteLength":432,
			"byteOffset":36864,
			"target":34962
		},
		{
			"buffer":0,
			"byteLength":288,
			"byteOffset":37296,
			"target":34962
		},
		{
			"buffer":0,
			"byteLength":288,
			"byteOffset":37584,
			"target":34962
		},
		{
			"buffer":0,
			"byteLength":144,
			"byteOffset":37872,
			"target":34962
		},
		{
			"buffer":0,
			"byteLength":288,
			"byteOffset":38016,
			"target":34962
		},
		{
			"buffer":0,
			"byteLength":144,
			"byteOffset":38304,
			"target":34963
		},
		{
			"buffer":0,
			"byteLength":144,
			"byteOffset":38448,
			"target":34962
		},
		{
			"buffer":0,
			"byteLength":144,
			"byteOffset":38592,
			"target":34962
		},
		{
			"buffer":0,
			"byteLength":96,
			"byteOffset":38736,
			"target":34962
		},
		{
			"buffer":0,
			"byteLength":96,
			"byteOffset":38832,
			"target":34962
		},
		{
			"buffer":0,
			"byteLength":48,
			"byteOffset":38928,
			"target":34962
		},
		{
			"buffer":0,
			"byteLength":96,
			"byteOffset":38976,
			"target":34962
		},
		{
			"buffer":0,
			"byteLength":36,
			"byteOffset":39072,
			"target":34963
		},
		{
			"buffer":0,
			"byteLength":8424,
			"byteOffset":39108,
			"target":34962
		},
		{
			"buffer":0,
			"byteLength":8424,
			"byteOffset":47532,
			"target":34962
		},
		{
			"buffer":0,
			"byteLength":5616,
			"byteOffset":55956,
			"target":34962
		},
		{
			"buffer":0,
			"byteLength":5616,
			"byteOffset":61572,
			"target":34962
		},
		{
			"buffer":0,
			"byteLength":2808,
			"byteOffset":67188,
			"target":34962
		},
		{
			"buffer":0,
			"byteLength":5616,
			"byteOffset":69996,
			"target":34962
		},
		{
			"buffer":0,
			"byteLength":2736,
			"byteOffset":75612,
			"target":34963
		},
		{
			"buffer":0,
			"byteLength":1224,
			"byteOffset":78348,
			"target":34962
		},
		{
			"buffer":0,
			"byteLength":1224,
			"byteOffset":79572,
			"target":34962
		},
		{
			"buffer":0,
			"byteLength":816,
			"byteOffset":80796,
			"target":34962
		},
		{
			"buffer":0,
			"byteLength":816,
			"byteOffset":81612,
			"target":34962
		},
		{
			"buffer":0,
			"byteLength":408,
			"byteOffset":82428,
			"target":34962
		},
		{
			"buffer":0,
			"byteLength":816,
			"byteOffset":82836,
			"target":34962
		},
		{
			"buffer":0,
			"byteLength":720,
			"byteOffset":83652,
			"target":34963
		},
		{
			"buffer":0,
			"byteLength":864,
			"byteOffset":84372,
			"target":34962
		},
		{
			"buffer":0,
			"byteLength":864,
			"byteOffset":85236,
			"target":34962
		},
		{
			"buffer":0,
			"byteLength":576,
			"byteOffset":86100,
			"target":34962
		},
		{
			"buffer":0,
			"byteLength":576,
			"byteOffset":86676,
			"target":34962
		},
		{
			"buffer":0,
			"byteLength":288,
			"byteOffset":87252,
			"target":34962
		},
		{
			"buffer":0,
			"byteLength":576,
			"byteOffset":87540,
			"target":34962
		},
		{
			"buffer":0,
			"byteLength":360,
			"byteOffset":88116,
			"target":34963
		}
	],
	"samplers":[
		{
			"magFilter":9729,
			"minFilter":9987
		}
	],
	"buffers":[
		{
			"byteLength":88476,
			"uri":"Brick_BayWindow.bin"
		}
	]
}
