{
	"asset":{
		"generator":"Khronos glTF Blender I/O v4.3.47",
		"version":"2.0"
	},
	"scene":0,
	"scenes":[
		{
			"name":"Scene",
			"nodes":[
				0
			]
		}
	],
	"nodes":[
		{
			"mesh":0,
			"name":"Building_Medium_1"
		}
	],
	"materials":[
		{
			"alphaMode":"BLEND",
			"doubleSided":true,
			"name":"MI_Glass",
			"pbrMetallicRoughness":{
				"baseColorFactor":[
					0.05215025693178177,
					0.05215025693178177,
					0.05215025693178177,
					0.586363673210144
				],
				"metallicFactor":0,
				"roughnessFactor":0.5
			}
		},
		{
			"doubleSided":true,
			"name":"MI_FakeInterior_2",
			"pbrMetallicRoughness":{
				"baseColorTexture":{
					"index":0
				},
				"metallicFactor":0,
				"roughnessFactor":0.5
			}
		},
		{
			"doubleSided":true,
			"name":"MI_Trim_MetalConcrete",
			"normalTexture":{
				"index":1
			},
			"pbrMetallicRoughness":{
				"baseColorTexture":{
					"index":2
				},
				"metallicRoughnessTexture":{
					"index":3
				}
			}
		},
		{
			"doubleSided":true,
			"name":"MI_InteriorWall",
			"normalTexture":{
				"index":4
			},
			"pbrMetallicRoughness":{
				"baseColorTexture":{
					"index":5
				},
				"metallicRoughnessTexture":{
					"index":6
				}
			}
		},
		{
			"doubleSided":true,
			"name":"MI_Trim",
			"normalTexture":{
				"index":7
			},
			"pbrMetallicRoughness":{
				"baseColorTexture":{
					"index":8
				},
				"metallicRoughnessTexture":{
					"index":9
				}
			}
		},
		{
			"doubleSided":true,
			"name":"MI_Trim_Dark",
			"normalTexture":{
				"index":10
			},
			"pbrMetallicRoughness":{
				"baseColorTexture":{
					"index":11
				},
				"metallicRoughnessTexture":{
					"index":12
				}
			}
		},
		{
			"doubleSided":true,
			"name":"MI_RedBrick",
			"normalTexture":{
				"index":13
			},
			"pbrMetallicRoughness":{
				"baseColorTexture":{
					"index":14
				},
				"metallicRoughnessTexture":{
					"index":15
				}
			}
		},
		{
			"doubleSided":true,
			"name":"MI_FakeInterior_1",
			"pbrMetallicRoughness":{
				"baseColorTexture":{
					"index":16
				},
				"metallicFactor":0,
				"roughnessFactor":0.5
			}
		},
		{
			"doubleSided":true,
			"name":"MI_FakeInterior_4",
			"pbrMetallicRoughness":{
				"baseColorTexture":{
					"index":17
				},
				"metallicFactor":0,
				"roughnessFactor":0.5
			}
		},
		{
			"doubleSided":true,
			"name":"MI_FakeInterior_3",
			"pbrMetallicRoughness":{
				"baseColorTexture":{
					"index":18
				},
				"metallicFactor":0,
				"roughnessFactor":0.5
			}
		},
		{
			"doubleSided":true,
			"name":"MI_Asphalt",
			"normalTexture":{
				"index":19
			},
			"pbrMetallicRoughness":{
				"baseColorTexture":{
					"index":20
				},
				"metallicRoughnessTexture":{
					"index":21
				}
			}
		},
		{
			"doubleSided":true,
			"name":"MI_Roof_Slate",
			"normalTexture":{
				"index":22
			},
			"pbrMetallicRoughness":{
				"baseColorTexture":{
					"index":23
				},
				"metallicRoughnessTexture":{
					"index":24
				}
			}
		},
		{
			"doubleSided":true,
			"name":"MI_InteriorFloor",
			"normalTexture":{
				"index":25
			},
			"pbrMetallicRoughness":{
				"baseColorTexture":{
					"index":26
				},
				"metallicRoughnessTexture":{
					"index":27
				}
			}
		},
		{
			"doubleSided":true,
			"name":"MI_InteriorRoof",
			"normalTexture":{
				"index":28
			},
			"pbrMetallicRoughness":{
				"baseColorTexture":{
					"index":29
				},
				"metallicRoughnessTexture":{
					"index":30
				}
			}
		}
	],
	"meshes":[
		{
			"name":"Cube.160",
			"primitives":[
				{
					"attributes":{
						"POSITION":0,
						"NORMAL":1,
						"TEXCOORD_0":2,
						"TEXCOORD_1":3,
						"COLOR_0":4
					},
					"indices":5,
					"material":0
				},
				{
					"attributes":{
						"POSITION":6,
						"NORMAL":7,
						"TEXCOORD_0":8,
						"TEXCOORD_1":9,
						"COLOR_0":10
					},
					"indices":11,
					"material":1
				},
				{
					"attributes":{
						"POSITION":12,
						"NORMAL":13,
						"TEXCOORD_0":14,
						"TEXCOORD_1":15,
						"COLOR_0":16
					},
					"indices":17,
					"material":2
				},
				{
					"attributes":{
						"POSITION":18,
						"NORMAL":19,
						"TEXCOORD_0":20,
						"TEXCOORD_1":21,
						"COLOR_0":22
					},
					"indices":23,
					"material":3
				},
				{
					"attributes":{
						"POSITION":24,
						"NORMAL":25,
						"TEXCOORD_0":26,
						"TEXCOORD_1":27,
						"COLOR_0":28
					},
					"indices":29,
					"material":4
				},
				{
					"attributes":{
						"POSITION":30,
						"NORMAL":31,
						"TEXCOORD_0":32,
						"TEXCOORD_1":33,
						"COLOR_0":34
					},
					"indices":35,
					"material":5
				},
				{
					"attributes":{
						"POSITION":36,
						"NORMAL":37,
						"TEXCOORD_0":38,
						"TEXCOORD_1":39,
						"COLOR_0":40
					},
					"indices":41,
					"material":6
				},
				{
					"attributes":{
						"POSITION":42,
						"NORMAL":43,
						"TEXCOORD_0":44,
						"TEXCOORD_1":45,
						"COLOR_0":46
					},
					"indices":47,
					"material":7
				},
				{
					"attributes":{
						"POSITION":48,
						"NORMAL":49,
						"TEXCOORD_0":50,
						"TEXCOORD_1":51,
						"COLOR_0":52
					},
					"indices":53,
					"material":8
				},
				{
					"attributes":{
						"POSITION":54,
						"NORMAL":55,
						"TEXCOORD_0":56,
						"TEXCOORD_1":57,
						"COLOR_0":58
					},
					"indices":59,
					"material":9
				},
				{
					"attributes":{
						"POSITION":60,
						"NORMAL":61,
						"TEXCOORD_0":62,
						"TEXCOORD_1":63,
						"COLOR_0":64
					},
					"indices":65,
					"material":10
				},
				{
					"attributes":{
						"POSITION":66,
						"NORMAL":67,
						"TEXCOORD_0":68,
						"TEXCOORD_1":69,
						"COLOR_0":70
					},
					"indices":71,
					"material":11
				},
				{
					"attributes":{
						"POSITION":72,
						"NORMAL":73,
						"TEXCOORD_0":74,
						"TEXCOORD_1":75,
						"COLOR_0":76
					},
					"indices":77,
					"material":12
				},
				{
					"attributes":{
						"POSITION":78,
						"NORMAL":79,
						"TEXCOORD_0":80,
						"TEXCOORD_1":81,
						"COLOR_0":82
					},
					"indices":83,
					"material":13
				}
			]
		}
	],
	"textures":[
		{
			"sampler":0,
			"source":0
		},
		{
			"sampler":0,
			"source":1
		},
		{
			"sampler":0,
			"source":2
		},
		{
			"sampler":0,
			"source":3
		},
		{
			"sampler":0,
			"source":4
		},
		{
			"sampler":0,
			"source":5
		},
		{
			"sampler":0,
			"source":6
		},
		{
			"sampler":0,
			"source":7
		},
		{
			"sampler":0,
			"source":8
		},
		{
			"sampler":0,
			"source":9
		},
		{
			"sampler":0,
			"source":7
		},
		{
			"sampler":0,
			"source":8
		},
		{
			"sampler":0,
			"source":9
		},
		{
			"sampler":0,
			"source":4
		},
		{
			"sampler":0,
			"source":5
		},
		{
			"sampler":0,
			"source":6
		},
		{
			"sampler":0,
			"source":10
		},
		{
			"sampler":0,
			"source":11
		},
		{
			"sampler":0,
			"source":10
		},
		{
			"sampler":0,
			"source":12
		},
		{
			"sampler":0,
			"source":13
		},
		{
			"sampler":0,
			"source":14
		},
		{
			"sampler":0,
			"source":15
		},
		{
			"sampler":0,
			"source":16
		},
		{
			"sampler":0,
			"source":17
		},
		{
			"sampler":0,
			"source":18
		},
		{
			"sampler":0,
			"source":19
		},
		{
			"sampler":0,
			"source":20
		},
		{
			"sampler":0,
			"source":12
		},
		{
			"sampler":0,
			"source":21
		},
		{
			"sampler":0,
			"source":14
		}
	],
	"images":[
		{
			"mimeType":"image/png",
			"name":"T_lit_interior_2",
			"uri":"T_lit_interior_2.png"
		},
		{
			"mimeType":"image/png",
			"name":"T_MetalConcrete_Normal",
			"uri":"T_MetalConcrete_Normal.png"
		},
		{
			"mimeType":"image/png",
			"name":"T_MetalConcrete_BaseColor",
			"uri":"T_MetalConcrete_BaseColor.png"
		},
		{
			"mimeType":"image/png",
			"name":"T_MetalConcrete_ORM",
			"uri":"T_MetalConcrete_ORM.png"
		},
		{
			"mimeType":"image/png",
			"name":"T_RedBrick_Normal",
			"uri":"T_RedBrick_Normal.png"
		},
		{
			"mimeType":"image/png",
			"name":"T_RedBrick_BaseColor",
			"uri":"T_RedBrick_BaseColor.png"
		},
		{
			"mimeType":"image/png",
			"name":"T_RedBrick_ORM",
			"uri":"T_RedBrick_ORM.png"
		},
		{
			"mimeType":"image/png",
			"name":"T_Trim_Normal",
			"uri":"T_Trim_Normal.png"
		},
		{
			"mimeType":"image/png",
			"name":"T_Trim_BaseColor",
			"uri":"T_Trim_BaseColor.png"
		},
		{
			"mimeType":"image/png",
			"name":"T_Trim_ORM",
			"uri":"T_Trim_ORM.png"
		},
		{
			"mimeType":"image/png",
			"name":"T_lit_interior_1",
			"uri":"T_lit_interior_1.png"
		},
		{
			"mimeType":"image/png",
			"name":"T_dark_interior",
			"uri":"T_dark_interior.png"
		},
		{
			"mimeType":"image/png",
			"name":"T_Concrete_Normal",
			"uri":"T_Concrete_Normal.png"
		},
		{
			"mimeType":"image/png",
			"name":"T_Concrete_Asphalt_BaseColor",
			"uri":"T_Concrete_Asphalt_BaseColor.png"
		},
		{
			"mimeType":"image/png",
			"name":"T_Concrete_ORM",
			"uri":"T_Concrete_ORM.png"
		},
		{
			"mimeType":"image/png",
			"name":"T_RoofSlate_Normal",
			"uri":"T_RoofSlate_Normal.png"
		},
		{
			"mimeType":"image/png",
			"name":"T_RoofSlate_BaseColor",
			"uri":"T_RoofSlate_BaseColor.png"
		},
		{
			"mimeType":"image/png",
			"name":"T_RoofSlate_ORM",
			"uri":"T_RoofSlate_ORM.png"
		},
		{
			"mimeType":"image/png",
			"name":"T_MarbleFloor_Normal",
			"uri":"T_MarbleFloor_Normal.png"
		},
		{
			"mimeType":"image/png",
			"name":"T_MarbleFloor_BaseColor",
			"uri":"T_MarbleFloor_BaseColor.png"
		},
		{
			"mimeType":"image/png",
			"name":"T_MarbleFloor_ORM",
			"uri":"T_MarbleFloor_ORM.png"
		},
		{
			"mimeType":"image/png",
			"name":"T_Concrete_BaseColor",
			"uri":"T_Concrete_BaseColor.png"
		}
	],
	"accessors":[
		{
			"bufferView":0,
			"componentType":5126,
			"count":814,
			"max":[
				5.853119850158691,
				26.672086715698242,
				0.8683905005455017
			],
			"min":[
				-5.853119850158691,
				0.0414847731590271,
				-0.13850083947181702
			],
			"type":"VEC3"
		},
		{
			"bufferView":1,
			"componentType":5126,
			"count":814,
			"type":"VEC3"
		},
		{
			"bufferView":2,
			"componentType":5126,
			"count":814,
			"type":"VEC2"
		},
		{
			"bufferView":3,
			"componentType":5126,
			"count":814,
			"type":"VEC2"
		},
		{
			"bufferView":4,
			"componentType":5123,
			"count":814,
			"normalized":true,
			"type":"VEC4"
		},
		{
			"bufferView":5,
			"componentType":5123,
			"count":1530,
			"type":"SCALAR"
		},
		{
			"bufferView":6,
			"componentType":5126,
			"count":88,
			"max":[
				5.87896728515625,
				23.802709579467773,
				0.8663164377212524
			],
			"min":[
				-5.878966808319092,
				0.02259528636932373,
				-0.14119315147399902
			],
			"type":"VEC3"
		},
		{
			"bufferView":7,
			"componentType":5126,
			"count":88,
			"type":"VEC3"
		},
		{
			"bufferView":8,
			"componentType":5126,
			"count":88,
			"type":"VEC2"
		},
		{
			"bufferView":9,
			"componentType":5126,
			"count":88,
			"type":"VEC2"
		},
		{
			"bufferView":10,
			"componentType":5123,
			"count":88,
			"normalized":true,
			"type":"VEC4"
		},
		{
			"bufferView":11,
			"componentType":5123,
			"count":132,
			"type":"SCALAR"
		},
		{
			"bufferView":12,
			"componentType":5126,
			"count":6850,
			"max":[
				6.000001907348633,
				27.715335845947266,
				1.0000001192092896
			],
			"min":[
				-6.000002384185791,
				-0.000594273442402482,
				-8
			],
			"type":"VEC3"
		},
		{
			"bufferView":13,
			"componentType":5126,
			"count":6850,
			"type":"VEC3"
		},
		{
			"bufferView":14,
			"componentType":5126,
			"count":6850,
			"type":"VEC2"
		},
		{
			"bufferView":15,
			"componentType":5126,
			"count":6850,
			"type":"VEC2"
		},
		{
			"bufferView":16,
			"componentType":5123,
			"count":6850,
			"normalized":true,
			"type":"VEC4"
		},
		{
			"bufferView":17,
			"componentType":5123,
			"count":15108,
			"type":"SCALAR"
		},
		{
			"bufferView":18,
			"componentType":5126,
			"count":2242,
			"max":[
				6,
				24,
				0.7999998927116394
			],
			"min":[
				-6,
				0,
				-10
			],
			"type":"VEC3"
		},
		{
			"bufferView":19,
			"componentType":5126,
			"count":2242,
			"type":"VEC3"
		},
		{
			"bufferView":20,
			"componentType":5126,
			"count":2242,
			"type":"VEC2"
		},
		{
			"bufferView":21,
			"componentType":5126,
			"count":2242,
			"type":"VEC2"
		},
		{
			"bufferView":22,
			"componentType":5123,
			"count":2242,
			"normalized":true,
			"type":"VEC4"
		},
		{
			"bufferView":23,
			"componentType":5123,
			"count":4524,
			"type":"SCALAR"
		},
		{
			"bufferView":24,
			"componentType":5126,
			"count":15824,
			"max":[
				6.527894973754883,
				27.91533660888672,
				1.5278400182724
			],
			"min":[
				-6.527894973754883,
				3.0309972763061523,
				-10.527840614318848
			],
			"type":"VEC3"
		},
		{
			"bufferView":25,
			"componentType":5126,
			"count":15824,
			"type":"VEC3"
		},
		{
			"bufferView":26,
			"componentType":5126,
			"count":15824,
			"type":"VEC2"
		},
		{
			"bufferView":27,
			"componentType":5126,
			"count":15824,
			"type":"VEC2"
		},
		{
			"bufferView":28,
			"componentType":5123,
			"count":15824,
			"normalized":true,
			"type":"VEC4"
		},
		{
			"bufferView":29,
			"componentType":5123,
			"count":32304,
			"type":"SCALAR"
		},
		{
			"bufferView":30,
			"componentType":5126,
			"count":9828,
			"max":[
				5.728621482849121,
				23.003459930419922,
				0.945693850517273
			],
			"min":[
				-5.728621482849121,
				3.15454363822937,
				0.11274399608373642
			],
			"type":"VEC3"
		},
		{
			"bufferView":31,
			"componentType":5126,
			"count":9828,
			"type":"VEC3"
		},
		{
			"bufferView":32,
			"componentType":5126,
			"count":9828,
			"type":"VEC2"
		},
		{
			"bufferView":33,
			"componentType":5126,
			"count":9828,
			"type":"VEC2"
		},
		{
			"bufferView":34,
			"componentType":5123,
			"count":9828,
			"normalized":true,
			"type":"VEC4"
		},
		{
			"bufferView":35,
			"componentType":5123,
			"count":19152,
			"type":"SCALAR"
		},
		{
			"bufferView":36,
			"componentType":5126,
			"count":1242,
			"max":[
				6.000000953674316,
				24,
				1.0000001192092896
			],
			"min":[
				-6,
				0,
				-10
			],
			"type":"VEC3"
		},
		{
			"bufferView":37,
			"componentType":5126,
			"count":1242,
			"type":"VEC3"
		},
		{
			"bufferView":38,
			"componentType":5126,
			"count":1242,
			"type":"VEC2"
		},
		{
			"bufferView":39,
			"componentType":5126,
			"count":1242,
			"type":"VEC2"
		},
		{
			"bufferView":40,
			"componentType":5123,
			"count":1242,
			"normalized":true,
			"type":"VEC4"
		},
		{
			"bufferView":41,
			"componentType":5123,
			"count":3048,
			"type":"SCALAR"
		},
		{
			"bufferView":42,
			"componentType":5126,
			"count":80,
			"max":[
				5.87896728515625,
				27.206758499145508,
				0.8663164377212524
			],
			"min":[
				-5.878966808319092,
				0.02259528636932373,
				-0.14119315147399902
			],
			"type":"VEC3"
		},
		{
			"bufferView":43,
			"componentType":5126,
			"count":80,
			"type":"VEC3"
		},
		{
			"bufferView":44,
			"componentType":5126,
			"count":80,
			"type":"VEC2"
		},
		{
			"bufferView":45,
			"componentType":5126,
			"count":80,
			"type":"VEC2"
		},
		{
			"bufferView":46,
			"componentType":5123,
			"count":80,
			"normalized":true,
			"type":"VEC4"
		},
		{
			"bufferView":47,
			"componentType":5123,
			"count":120,
			"type":"SCALAR"
		},
		{
			"bufferView":48,
			"componentType":5126,
			"count":16,
			"max":[
				5.87896728515625,
				8.802709579467773,
				0.8663164377212524
			],
			"min":[
				-1.6066439151763916,
				3.015627861022949,
				-0.14119315147399902
			],
			"type":"VEC3"
		},
		{
			"bufferView":49,
			"componentType":5126,
			"count":16,
			"type":"VEC3"
		},
		{
			"bufferView":50,
			"componentType":5126,
			"count":16,
			"type":"VEC2"
		},
		{
			"bufferView":51,
			"componentType":5126,
			"count":16,
			"type":"VEC2"
		},
		{
			"bufferView":52,
			"componentType":5123,
			"count":16,
			"normalized":true,
			"type":"VEC4"
		},
		{
			"bufferView":53,
			"componentType":5123,
			"count":24,
			"type":"SCALAR"
		},
		{
			"bufferView":54,
			"componentType":5126,
			"count":44,
			"max":[
				5.87896728515625,
				23.989974975585938,
				0.8663164377212524
			],
			"min":[
				-5.878966808319092,
				6.022595405578613,
				-0.14119315147399902
			],
			"type":"VEC3"
		},
		{
			"bufferView":55,
			"componentType":5126,
			"count":44,
			"type":"VEC3"
		},
		{
			"bufferView":56,
			"componentType":5126,
			"count":44,
			"type":"VEC2"
		},
		{
			"bufferView":57,
			"componentType":5126,
			"count":44,
			"type":"VEC2"
		},
		{
			"bufferView":58,
			"componentType":5123,
			"count":44,
			"normalized":true,
			"type":"VEC4"
		},
		{
			"bufferView":59,
			"componentType":5123,
			"count":66,
			"type":"SCALAR"
		},
		{
			"bufferView":60,
			"componentType":5126,
			"count":60,
			"max":[
				5.900054931640625,
				27.715335845947266,
				0.9000000953674316
			],
			"min":[
				-5.900055885314941,
				24.799999237060547,
				-8
			],
			"type":"VEC3"
		},
		{
			"bufferView":61,
			"componentType":5126,
			"count":60,
			"type":"VEC3"
		},
		{
			"bufferView":62,
			"componentType":5126,
			"count":60,
			"type":"VEC2"
		},
		{
			"bufferView":63,
			"componentType":5126,
			"count":60,
			"type":"VEC2"
		},
		{
			"bufferView":64,
			"componentType":5123,
			"count":60,
			"normalized":true,
			"type":"VEC4"
		},
		{
			"bufferView":65,
			"componentType":5123,
			"count":96,
			"type":"SCALAR"
		},
		{
			"bufferView":66,
			"componentType":5126,
			"count":428,
			"max":[
				6.0347185134887695,
				27.729297637939453,
				0.03471875190734863
			],
			"min":[
				-6.034719467163086,
				24.70115089416504,
				-10.034719467163086
			],
			"type":"VEC3"
		},
		{
			"bufferView":67,
			"componentType":5126,
			"count":428,
			"type":"VEC3"
		},
		{
			"bufferView":68,
			"componentType":5126,
			"count":428,
			"type":"VEC2"
		},
		{
			"bufferView":69,
			"componentType":5126,
			"count":428,
			"type":"VEC2"
		},
		{
			"bufferView":70,
			"componentType":5123,
			"count":428,
			"normalized":true,
			"type":"VEC4"
		},
		{
			"bufferView":71,
			"componentType":5123,
			"count":804,
			"type":"SCALAR"
		},
		{
			"bufferView":72,
			"componentType":5126,
			"count":140,
			"max":[
				6,
				0,
				0.75
			],
			"min":[
				-6,
				0,
				-10
			],
			"type":"VEC3"
		},
		{
			"bufferView":73,
			"componentType":5126,
			"count":140,
			"type":"VEC3"
		},
		{
			"bufferView":74,
			"componentType":5126,
			"count":140,
			"type":"VEC2"
		},
		{
			"bufferView":75,
			"componentType":5126,
			"count":140,
			"type":"VEC2"
		},
		{
			"bufferView":76,
			"componentType":5123,
			"count":140,
			"normalized":true,
			"type":"VEC4"
		},
		{
			"bufferView":77,
			"componentType":5123,
			"count":216,
			"type":"SCALAR"
		},
		{
			"bufferView":78,
			"componentType":5126,
			"count":140,
			"max":[
				6,
				23.899999618530273,
				0.75
			],
			"min":[
				-6,
				23.899999618530273,
				-10
			],
			"type":"VEC3"
		},
		{
			"bufferView":79,
			"componentType":5126,
			"count":140,
			"type":"VEC3"
		},
		{
			"bufferView":80,
			"componentType":5126,
			"count":140,
			"type":"VEC2"
		},
		{
			"bufferView":81,
			"componentType":5126,
			"count":140,
			"type":"VEC2"
		},
		{
			"bufferView":82,
			"componentType":5123,
			"count":140,
			"normalized":true,
			"type":"VEC4"
		},
		{
			"bufferView":83,
			"componentType":5123,
			"count":216,
			"type":"SCALAR"
		}
	],
	"bufferViews":[
		{
			"buffer":0,
			"byteLength":9768,
			"byteOffset":0,
			"target":34962
		},
		{
			"buffer":0,
			"byteLength":9768,
			"byteOffset":9768,
			"target":34962
		},
		{
			"buffer":0,
			"byteLength":6512,
			"byteOffset":19536,
			"target":34962
		},
		{
			"buffer":0,
			"byteLength":6512,
			"byteOffset":26048,
			"target":34962
		},
		{
			"buffer":0,
			"byteLength":6512,
			"byteOffset":32560,
			"target":34962
		},
		{
			"buffer":0,
			"byteLength":3060,
			"byteOffset":39072,
			"target":34963
		},
		{
			"buffer":0,
			"byteLength":1056,
			"byteOffset":42132,
			"target":34962
		},
		{
			"buffer":0,
			"byteLength":1056,
			"byteOffset":43188,
			"target":34962
		},
		{
			"buffer":0,
			"byteLength":704,
			"byteOffset":44244,
			"target":34962
		},
		{
			"buffer":0,
			"byteLength":704,
			"byteOffset":44948,
			"target":34962
		},
		{
			"buffer":0,
			"byteLength":704,
			"byteOffset":45652,
			"target":34962
		},
		{
			"buffer":0,
			"byteLength":264,
			"byteOffset":46356,
			"target":34963
		},
		{
			"buffer":0,
			"byteLength":82200,
			"byteOffset":46620,
			"target":34962
		},
		{
			"buffer":0,
			"byteLength":82200,
			"byteOffset":128820,
			"target":34962
		},
		{
			"buffer":0,
			"byteLength":54800,
			"byteOffset":211020,
			"target":34962
		},
		{
			"buffer":0,
			"byteLength":54800,
			"byteOffset":265820,
			"target":34962
		},
		{
			"buffer":0,
			"byteLength":54800,
			"byteOffset":320620,
			"target":34962
		},
		{
			"buffer":0,
			"byteLength":30216,
			"byteOffset":375420,
			"target":34963
		},
		{
			"buffer":0,
			"byteLength":26904,
			"byteOffset":405636,
			"target":34962
		},
		{
			"buffer":0,
			"byteLength":26904,
			"byteOffset":432540,
			"target":34962
		},
		{
			"buffer":0,
			"byteLength":17936,
			"byteOffset":459444,
			"target":34962
		},
		{
			"buffer":0,
			"byteLength":17936,
			"byteOffset":477380,
			"target":34962
		},
		{
			"buffer":0,
			"byteLength":17936,
			"byteOffset":495316,
			"target":34962
		},
		{
			"buffer":0,
			"byteLength":9048,
			"byteOffset":513252,
			"target":34963
		},
		{
			"buffer":0,
			"byteLength":189888,
			"byteOffset":522300,
			"target":34962
		},
		{
			"buffer":0,
			"byteLength":189888,
			"byteOffset":712188,
			"target":34962
		},
		{
			"buffer":0,
			"byteLength":126592,
			"byteOffset":902076,
			"target":34962
		},
		{
			"buffer":0,
			"byteLength":126592,
			"byteOffset":1028668,
			"target":34962
		},
		{
			"buffer":0,
			"byteLength":126592,
			"byteOffset":1155260,
			"target":34962
		},
		{
			"buffer":0,
			"byteLength":64608,
			"byteOffset":1281852,
			"target":34963
		},
		{
			"buffer":0,
			"byteLength":117936,
			"byteOffset":1346460,
			"target":34962
		},
		{
			"buffer":0,
			"byteLength":117936,
			"byteOffset":1464396,
			"target":34962
		},
		{
			"buffer":0,
			"byteLength":78624,
			"byteOffset":1582332,
			"target":34962
		},
		{
			"buffer":0,
			"byteLength":78624,
			"byteOffset":1660956,
			"target":34962
		},
		{
			"buffer":0,
			"byteLength":78624,
			"byteOffset":1739580,
			"target":34962
		},
		{
			"buffer":0,
			"byteLength":38304,
			"byteOffset":1818204,
			"target":34963
		},
		{
			"buffer":0,
			"byteLength":14904,
			"byteOffset":1856508,
			"target":34962
		},
		{
			"buffer":0,
			"byteLength":14904,
			"byteOffset":1871412,
			"target":34962
		},
		{
			"buffer":0,
			"byteLength":9936,
			"byteOffset":1886316,
			"target":34962
		},
		{
			"buffer":0,
			"byteLength":9936,
			"byteOffset":1896252,
			"target":34962
		},
		{
			"buffer":0,
			"byteLength":9936,
			"byteOffset":1906188,
			"target":34962
		},
		{
			"buffer":0,
			"byteLength":6096,
			"byteOffset":1916124,
			"target":34963
		},
		{
			"buffer":0,
			"byteLength":960,
			"byteOffset":1922220,
			"target":34962
		},
		{
			"buffer":0,
			"byteLength":960,
			"byteOffset":1923180,
			"target":34962
		},
		{
			"buffer":0,
			"byteLength":640,
			"byteOffset":1924140,
			"target":34962
		},
		{
			"buffer":0,
			"byteLength":640,
			"byteOffset":1924780,
			"target":34962
		},
		{
			"buffer":0,
			"byteLength":640,
			"byteOffset":1925420,
			"target":34962
		},
		{
			"buffer":0,
			"byteLength":240,
			"byteOffset":1926060,
			"target":34963
		},
		{
			"buffer":0,
			"byteLength":192,
			"byteOffset":1926300,
			"target":34962
		},
		{
			"buffer":0,
			"byteLength":192,
			"byteOffset":1926492,
			"target":34962
		},
		{
			"buffer":0,
			"byteLength":128,
			"byteOffset":1926684,
			"target":34962
		},
		{
			"buffer":0,
			"byteLength":128,
			"byteOffset":1926812,
			"target":34962
		},
		{
			"buffer":0,
			"byteLength":128,
			"byteOffset":1926940,
			"target":34962
		},
		{
			"buffer":0,
			"byteLength":48,
			"byteOffset":1927068,
			"target":34963
		},
		{
			"buffer":0,
			"byteLength":528,
			"byteOffset":1927116,
			"target":34962
		},
		{
			"buffer":0,
			"byteLength":528,
			"byteOffset":1927644,
			"target":34962
		},
		{
			"buffer":0,
			"byteLength":352,
			"byteOffset":1928172,
			"target":34962
		},
		{
			"buffer":0,
			"byteLength":352,
			"byteOffset":1928524,
			"target":34962
		},
		{
			"buffer":0,
			"byteLength":352,
			"byteOffset":1928876,
			"target":34962
		},
		{
			"buffer":0,
			"byteLength":132,
			"byteOffset":1929228,
			"target":34963
		},
		{
			"buffer":0,
			"byteLength":720,
			"byteOffset":1929360,
			"target":34962
		},
		{
			"buffer":0,
			"byteLength":720,
			"byteOffset":1930080,
			"target":34962
		},
		{
			"buffer":0,
			"byteLength":480,
			"byteOffset":1930800,
			"target":34962
		},
		{
			"buffer":0,
			"byteLength":480,
			"byteOffset":1931280,
			"target":34962
		},
		{
			"buffer":0,
			"byteLength":480,
			"byteOffset":1931760,
			"target":34962
		},
		{
			"buffer":0,
			"byteLength":192,
			"byteOffset":1932240,
			"target":34963
		},
		{
			"buffer":0,
			"byteLength":5136,
			"byteOffset":1932432,
			"target":34962
		},
		{
			"buffer":0,
			"byteLength":5136,
			"byteOffset":1937568,
			"target":34962
		},
		{
			"buffer":0,
			"byteLength":3424,
			"byteOffset":1942704,
			"target":34962
		},
		{
			"buffer":0,
			"byteLength":3424,
			"byteOffset":1946128,
			"target":34962
		},
		{
			"buffer":0,
			"byteLength":3424,
			"byteOffset":1949552,
			"target":34962
		},
		{
			"buffer":0,
			"byteLength":1608,
			"byteOffset":1952976,
			"target":34963
		},
		{
			"buffer":0,
			"byteLength":1680,
			"byteOffset":1954584,
			"target":34962
		},
		{
			"buffer":0,
			"byteLength":1680,
			"byteOffset":1956264,
			"target":34962
		},
		{
			"buffer":0,
			"byteLength":1120,
			"byteOffset":1957944,
			"target":34962
		},
		{
			"buffer":0,
			"byteLength":1120,
			"byteOffset":1959064,
			"target":34962
		},
		{
			"buffer":0,
			"byteLength":1120,
			"byteOffset":1960184,
			"target":34962
		},
		{
			"buffer":0,
			"byteLength":432,
			"byteOffset":1961304,
			"target":34963
		},
		{
			"buffer":0,
			"byteLength":1680,
			"byteOffset":1961736,
			"target":34962
		},
		{
			"buffer":0,
			"byteLength":1680,
			"byteOffset":1963416,
			"target":34962
		},
		{
			"buffer":0,
			"byteLength":1120,
			"byteOffset":1965096,
			"target":34962
		},
		{
			"buffer":0,
			"byteLength":1120,
			"byteOffset":1966216,
			"target":34962
		},
		{
			"buffer":0,
			"byteLength":1120,
			"byteOffset":1967336,
			"target":34962
		},
		{
			"buffer":0,
			"byteLength":432,
			"byteOffset":1968456,
			"target":34963
		}
	],
	"samplers":[
		{
			"magFilter":9729,
			"minFilter":9987
		}
	],
	"buffers":[
		{
			"byteLength":1968888,
			"uri":"Building_Medium_1.bin"
		}
	]
}
