{
	"asset":{
		"generator":"Khronos glTF Blender I/O v4.3.47",
		"version":"2.0"
	},
	"scene":0,
	"scenes":[
		{
			"name":"Scene",
			"nodes":[
				0
			]
		}
	],
	"nodes":[
		{
			"mesh":0,
			"name":"Building_Small_2"
		}
	],
	"materials":[
		{
			"doubleSided":true,
			"name":"MI_WornBrick",
			"normalTexture":{
				"index":0
			},
			"pbrMetallicRoughness":{
				"baseColorTexture":{
					"index":1
				},
				"metallicRoughnessTexture":{
					"index":2
				}
			}
		},
		{
			"doubleSided":true,
			"name":"MI_InteriorWall",
			"normalTexture":{
				"index":3
			},
			"pbrMetallicRoughness":{
				"baseColorTexture":{
					"index":4
				},
				"metallicRoughnessTexture":{
					"index":5
				}
			}
		},
		{
			"doubleSided":true,
			"name":"MI_Trim_Dark",
			"normalTexture":{
				"index":6
			},
			"pbrMetallicRoughness":{
				"baseColorTexture":{
					"index":7
				},
				"metallicRoughnessTexture":{
					"index":8
				}
			}
		},
		{
			"doubleSided":true,
			"name":"MI_Trim_MetalConcrete",
			"normalTexture":{
				"index":9
			},
			"pbrMetallicRoughness":{
				"baseColorTexture":{
					"index":10
				},
				"metallicRoughnessTexture":{
					"index":11
				}
			}
		},
		{
			"alphaMode":"BLEND",
			"doubleSided":true,
			"name":"MI_Glass",
			"pbrMetallicRoughness":{
				"baseColorFactor":[
					0.05215025693178177,
					0.05215025693178177,
					0.05215025693178177,
					0.586363673210144
				],
				"metallicFactor":0,
				"roughnessFactor":0.5
			}
		},
		{
			"doubleSided":true,
			"name":"MI_FakeInterior_3",
			"pbrMetallicRoughness":{
				"baseColorTexture":{
					"index":12
				},
				"metallicFactor":0,
				"roughnessFactor":0.5
			}
		},
		{
			"doubleSided":true,
			"name":"MI_FakeInterior_4",
			"pbrMetallicRoughness":{
				"baseColorTexture":{
					"index":13
				},
				"metallicFactor":0,
				"roughnessFactor":0.5
			}
		},
		{
			"doubleSided":true,
			"name":"MI_FakeInterior_1",
			"pbrMetallicRoughness":{
				"baseColorTexture":{
					"index":14
				},
				"metallicFactor":0,
				"roughnessFactor":0.5
			}
		},
		{
			"doubleSided":true,
			"name":"MI_FakeInterior_2",
			"pbrMetallicRoughness":{
				"baseColorTexture":{
					"index":15
				},
				"metallicFactor":0,
				"roughnessFactor":0.5
			}
		},
		{
			"doubleSided":true,
			"name":"MI_Asphalt",
			"normalTexture":{
				"index":16
			},
			"pbrMetallicRoughness":{
				"baseColorTexture":{
					"index":17
				},
				"metallicRoughnessTexture":{
					"index":18
				}
			}
		},
		{
			"doubleSided":true,
			"name":"MI_InteriorFloor",
			"normalTexture":{
				"index":19
			},
			"pbrMetallicRoughness":{
				"baseColorTexture":{
					"index":20
				},
				"metallicRoughnessTexture":{
					"index":21
				}
			}
		}
	],
	"meshes":[
		{
			"name":"Cube.7402",
			"primitives":[
				{
					"attributes":{
						"POSITION":0,
						"NORMAL":1,
						"TEXCOORD_0":2,
						"TEXCOORD_1":3,
						"COLOR_0":4
					},
					"indices":5,
					"material":0
				},
				{
					"attributes":{
						"POSITION":6,
						"NORMAL":7,
						"TEXCOORD_0":8,
						"TEXCOORD_1":9,
						"COLOR_0":10
					},
					"indices":11,
					"material":1
				},
				{
					"attributes":{
						"POSITION":12,
						"NORMAL":13,
						"TEXCOORD_0":14,
						"TEXCOORD_1":15,
						"COLOR_0":16
					},
					"indices":17,
					"material":2
				},
				{
					"attributes":{
						"POSITION":18,
						"NORMAL":19,
						"TEXCOORD_0":20,
						"TEXCOORD_1":21,
						"COLOR_0":22
					},
					"indices":23,
					"material":3
				},
				{
					"attributes":{
						"POSITION":24,
						"NORMAL":25,
						"TEXCOORD_0":26,
						"TEXCOORD_1":27,
						"COLOR_0":28
					},
					"indices":29,
					"material":4
				},
				{
					"attributes":{
						"POSITION":30,
						"NORMAL":31,
						"TEXCOORD_0":32,
						"TEXCOORD_1":33,
						"COLOR_0":34
					},
					"indices":35,
					"material":5
				},
				{
					"attributes":{
						"POSITION":36,
						"NORMAL":37,
						"TEXCOORD_0":38,
						"TEXCOORD_1":39,
						"COLOR_0":40
					},
					"indices":41,
					"material":6
				},
				{
					"attributes":{
						"POSITION":42,
						"NORMAL":43,
						"TEXCOORD_0":44,
						"TEXCOORD_1":45,
						"COLOR_0":46
					},
					"indices":41,
					"material":7
				},
				{
					"attributes":{
						"POSITION":47,
						"NORMAL":48,
						"TEXCOORD_0":49,
						"TEXCOORD_1":50,
						"COLOR_0":51
					},
					"indices":41,
					"material":8
				},
				{
					"attributes":{
						"POSITION":52,
						"NORMAL":53,
						"TEXCOORD_0":54,
						"TEXCOORD_1":55,
						"COLOR_0":56
					},
					"indices":57,
					"material":9
				},
				{
					"attributes":{
						"POSITION":58,
						"NORMAL":59,
						"TEXCOORD_0":60,
						"TEXCOORD_1":61,
						"COLOR_0":62
					},
					"indices":63,
					"material":10
				}
			]
		}
	],
	"textures":[
		{
			"sampler":0,
			"source":0
		},
		{
			"sampler":0,
			"source":1
		},
		{
			"sampler":0,
			"source":2
		},
		{
			"sampler":0,
			"source":3
		},
		{
			"sampler":0,
			"source":4
		},
		{
			"sampler":0,
			"source":5
		},
		{
			"sampler":0,
			"source":6
		},
		{
			"sampler":0,
			"source":7
		},
		{
			"sampler":0,
			"source":8
		},
		{
			"sampler":0,
			"source":9
		},
		{
			"sampler":0,
			"source":10
		},
		{
			"sampler":0,
			"source":11
		},
		{
			"sampler":0,
			"source":12
		},
		{
			"sampler":0,
			"source":13
		},
		{
			"sampler":0,
			"source":12
		},
		{
			"sampler":0,
			"source":14
		},
		{
			"sampler":0,
			"source":15
		},
		{
			"sampler":0,
			"source":16
		},
		{
			"sampler":0,
			"source":17
		},
		{
			"sampler":0,
			"source":18
		},
		{
			"sampler":0,
			"source":19
		},
		{
			"sampler":0,
			"source":20
		}
	],
	"images":[
		{
			"mimeType":"image/png",
			"name":"T_WornBrick_Normal",
			"uri":"T_WornBrick_Normal.png"
		},
		{
			"mimeType":"image/png",
			"name":"T_WornBrick_BaseColor",
			"uri":"T_WornBrick_BaseColor.png"
		},
		{
			"mimeType":"image/png",
			"name":"T_WornBrick_ORM",
			"uri":"T_WornBrick_ORM.png"
		},
		{
			"mimeType":"image/png",
			"name":"T_RedBrick_Normal",
			"uri":"T_RedBrick_Normal.png"
		},
		{
			"mimeType":"image/png",
			"name":"T_RedBrick_BaseColor",
			"uri":"T_RedBrick_BaseColor.png"
		},
		{
			"mimeType":"image/png",
			"name":"T_RedBrick_ORM",
			"uri":"T_RedBrick_ORM.png"
		},
		{
			"mimeType":"image/png",
			"name":"T_Trim_Normal",
			"uri":"T_Trim_Normal.png"
		},
		{
			"mimeType":"image/png",
			"name":"T_Trim_BaseColor",
			"uri":"T_Trim_BaseColor.png"
		},
		{
			"mimeType":"image/png",
			"name":"T_Trim_ORM",
			"uri":"T_Trim_ORM.png"
		},
		{
			"mimeType":"image/png",
			"name":"T_MetalConcrete_Normal",
			"uri":"T_MetalConcrete_Normal.png"
		},
		{
			"mimeType":"image/png",
			"name":"T_MetalConcrete_BaseColor",
			"uri":"T_MetalConcrete_BaseColor.png"
		},
		{
			"mimeType":"image/png",
			"name":"T_MetalConcrete_ORM",
			"uri":"T_MetalConcrete_ORM.png"
		},
		{
			"mimeType":"image/png",
			"name":"T_lit_interior_1",
			"uri":"T_lit_interior_1.png"
		},
		{
			"mimeType":"image/png",
			"name":"T_dark_interior",
			"uri":"T_dark_interior.png"
		},
		{
			"mimeType":"image/png",
			"name":"T_lit_interior_2",
			"uri":"T_lit_interior_2.png"
		},
		{
			"mimeType":"image/png",
			"name":"T_Concrete_Normal",
			"uri":"T_Concrete_Normal.png"
		},
		{
			"mimeType":"image/png",
			"name":"T_Concrete_Asphalt_BaseColor",
			"uri":"T_Concrete_Asphalt_BaseColor.png"
		},
		{
			"mimeType":"image/png",
			"name":"T_Concrete_ORM",
			"uri":"T_Concrete_ORM.png"
		},
		{
			"mimeType":"image/png",
			"name":"T_MarbleFloor_Normal",
			"uri":"T_MarbleFloor_Normal.png"
		},
		{
			"mimeType":"image/png",
			"name":"T_MarbleFloor_BaseColor",
			"uri":"T_MarbleFloor_BaseColor.png"
		},
		{
			"mimeType":"image/png",
			"name":"T_MarbleFloor_ORM",
			"uri":"T_MarbleFloor_ORM.png"
		}
	],
	"accessors":[
		{
			"bufferView":0,
			"componentType":5126,
			"count":13214,
			"max":[
				10,
				19,
				1.1920928955078125e-07
			],
			"min":[
				-10,
				0,
				-12
			],
			"type":"VEC3"
		},
		{
			"bufferView":1,
			"componentType":5126,
			"count":13214,
			"type":"VEC3"
		},
		{
			"bufferView":2,
			"componentType":5126,
			"count":13214,
			"type":"VEC2"
		},
		{
			"bufferView":3,
			"componentType":5126,
			"count":13214,
			"type":"VEC2"
		},
		{
			"bufferView":4,
			"componentType":5123,
			"count":13214,
			"normalized":true,
			"type":"VEC4"
		},
		{
			"bufferView":5,
			"componentType":5123,
			"count":25722,
			"type":"SCALAR"
		},
		{
			"bufferView":6,
			"componentType":5126,
			"count":2212,
			"max":[
				9.799999237060547,
				18,
				-0.20000004768371582
			],
			"min":[
				-9.800000190734863,
				0,
				-11.800000190734863
			],
			"type":"VEC3"
		},
		{
			"bufferView":7,
			"componentType":5126,
			"count":2212,
			"type":"VEC3"
		},
		{
			"bufferView":8,
			"componentType":5126,
			"count":2212,
			"type":"VEC2"
		},
		{
			"bufferView":9,
			"componentType":5126,
			"count":2212,
			"type":"VEC2"
		},
		{
			"bufferView":10,
			"componentType":5123,
			"count":2212,
			"normalized":true,
			"type":"VEC4"
		},
		{
			"bufferView":11,
			"componentType":5123,
			"count":4260,
			"type":"SCALAR"
		},
		{
			"bufferView":12,
			"componentType":5126,
			"count":272,
			"max":[
				10,
				17.985776901245117,
				1.5893256488652696e-08
			],
			"min":[
				-10,
				0,
				-12
			],
			"type":"VEC3"
		},
		{
			"bufferView":13,
			"componentType":5126,
			"count":272,
			"type":"VEC3"
		},
		{
			"bufferView":14,
			"componentType":5126,
			"count":272,
			"type":"VEC2"
		},
		{
			"bufferView":15,
			"componentType":5126,
			"count":272,
			"type":"VEC2"
		},
		{
			"bufferView":16,
			"componentType":5123,
			"count":272,
			"normalized":true,
			"type":"VEC4"
		},
		{
			"bufferView":17,
			"componentType":5123,
			"count":408,
			"type":"SCALAR"
		},
		{
			"bufferView":18,
			"componentType":5126,
			"count":14672,
			"max":[
				5.60629940032959,
				17.437307357788086,
				-0.5351731777191162
			],
			"min":[
				-5.601178169250488,
				0,
				-0.769935131072998
			],
			"type":"VEC3"
		},
		{
			"bufferView":19,
			"componentType":5126,
			"count":14672,
			"type":"VEC3"
		},
		{
			"bufferView":20,
			"componentType":5126,
			"count":14672,
			"type":"VEC2"
		},
		{
			"bufferView":21,
			"componentType":5126,
			"count":14672,
			"type":"VEC2"
		},
		{
			"bufferView":22,
			"componentType":5123,
			"count":14672,
			"normalized":true,
			"type":"VEC4"
		},
		{
			"bufferView":23,
			"componentType":5123,
			"count":27816,
			"type":"SCALAR"
		},
		{
			"bufferView":24,
			"componentType":5126,
			"count":1384,
			"max":[
				5.555418014526367,
				17.385995864868164,
				-0.6518217325210571
			],
			"min":[
				-5.553918838500977,
				0.0555415153503418,
				-0.6872857213020325
			],
			"type":"VEC3"
		},
		{
			"bufferView":25,
			"componentType":5126,
			"count":1384,
			"type":"VEC3"
		},
		{
			"bufferView":26,
			"componentType":5126,
			"count":1384,
			"type":"VEC2"
		},
		{
			"bufferView":27,
			"componentType":5126,
			"count":1384,
			"type":"VEC2"
		},
		{
			"bufferView":28,
			"componentType":5123,
			"count":1384,
			"normalized":true,
			"type":"VEC4"
		},
		{
			"bufferView":29,
			"componentType":5123,
			"count":2190,
			"type":"SCALAR"
		},
		{
			"bufferView":30,
			"componentType":5126,
			"count":12,
			"max":[
				5.7589874267578125,
				17.963403701782227,
				-0.6895076036453247
			],
			"min":[
				-5.759001731872559,
				6.056772708892822,
				-0.6895077228546143
			],
			"type":"VEC3"
		},
		{
			"bufferView":31,
			"componentType":5126,
			"count":12,
			"type":"VEC3"
		},
		{
			"bufferView":32,
			"componentType":5126,
			"count":12,
			"type":"VEC2"
		},
		{
			"bufferView":33,
			"componentType":5126,
			"count":12,
			"type":"VEC2"
		},
		{
			"bufferView":34,
			"componentType":5123,
			"count":12,
			"normalized":true,
			"type":"VEC4"
		},
		{
			"bufferView":35,
			"componentType":5123,
			"count":18,
			"type":"SCALAR"
		},
		{
			"bufferView":36,
			"componentType":5126,
			"count":16,
			"max":[
				5.7589874267578125,
				17.963403701782227,
				-0.6895076036453247
			],
			"min":[
				-5.759001731872559,
				3.0567727088928223,
				-0.6895077228546143
			],
			"type":"VEC3"
		},
		{
			"bufferView":37,
			"componentType":5126,
			"count":16,
			"type":"VEC3"
		},
		{
			"bufferView":38,
			"componentType":5126,
			"count":16,
			"type":"VEC2"
		},
		{
			"bufferView":39,
			"componentType":5126,
			"count":16,
			"type":"VEC2"
		},
		{
			"bufferView":40,
			"componentType":5123,
			"count":16,
			"normalized":true,
			"type":"VEC4"
		},
		{
			"bufferView":41,
			"componentType":5123,
			"count":24,
			"type":"SCALAR"
		},
		{
			"bufferView":42,
			"componentType":5126,
			"count":16,
			"max":[
				5.7589874267578125,
				14.963403701782227,
				-0.6895076036453247
			],
			"min":[
				-5.759001731872559,
				3.0567727088928223,
				-0.6895077228546143
			],
			"type":"VEC3"
		},
		{
			"bufferView":43,
			"componentType":5126,
			"count":16,
			"type":"VEC3"
		},
		{
			"bufferView":44,
			"componentType":5126,
			"count":16,
			"type":"VEC2"
		},
		{
			"bufferView":45,
			"componentType":5126,
			"count":16,
			"type":"VEC2"
		},
		{
			"bufferView":46,
			"componentType":5123,
			"count":16,
			"normalized":true,
			"type":"VEC4"
		},
		{
			"bufferView":47,
			"componentType":5126,
			"count":16,
			"max":[
				1.7589874267578125,
				17.963403701782227,
				-0.6895076036453247
			],
			"min":[
				-5.759001731872559,
				3.0567727088928223,
				-0.6895077228546143
			],
			"type":"VEC3"
		},
		{
			"bufferView":48,
			"componentType":5126,
			"count":16,
			"type":"VEC3"
		},
		{
			"bufferView":49,
			"componentType":5126,
			"count":16,
			"type":"VEC2"
		},
		{
			"bufferView":50,
			"componentType":5126,
			"count":16,
			"type":"VEC2"
		},
		{
			"bufferView":51,
			"componentType":5123,
			"count":16,
			"normalized":true,
			"type":"VEC4"
		},
		{
			"bufferView":52,
			"componentType":5126,
			"count":92,
			"max":[
				9.762748718261719,
				18.799999237060547,
				0
			],
			"min":[
				-10,
				17.970914840698242,
				-12
			],
			"type":"VEC3"
		},
		{
			"bufferView":53,
			"componentType":5126,
			"count":92,
			"type":"VEC3"
		},
		{
			"bufferView":54,
			"componentType":5126,
			"count":92,
			"type":"VEC2"
		},
		{
			"bufferView":55,
			"componentType":5126,
			"count":92,
			"type":"VEC2"
		},
		{
			"bufferView":56,
			"componentType":5123,
			"count":92,
			"normalized":true,
			"type":"VEC4"
		},
		{
			"bufferView":57,
			"componentType":5123,
			"count":180,
			"type":"SCALAR"
		},
		{
			"bufferView":58,
			"componentType":5126,
			"count":244,
			"max":[
				10,
				0,
				0
			],
			"min":[
				-10,
				0,
				-12
			],
			"type":"VEC3"
		},
		{
			"bufferView":59,
			"componentType":5126,
			"count":244,
			"type":"VEC3"
		},
		{
			"bufferView":60,
			"componentType":5126,
			"count":244,
			"type":"VEC2"
		},
		{
			"bufferView":61,
			"componentType":5126,
			"count":244,
			"type":"VEC2"
		},
		{
			"bufferView":62,
			"componentType":5123,
			"count":244,
			"normalized":true,
			"type":"VEC4"
		},
		{
			"bufferView":63,
			"componentType":5123,
			"count":372,
			"type":"SCALAR"
		}
	],
	"bufferViews":[
		{
			"buffer":0,
			"byteLength":158568,
			"byteOffset":0,
			"target":34962
		},
		{
			"buffer":0,
			"byteLength":158568,
			"byteOffset":158568,
			"target":34962
		},
		{
			"buffer":0,
			"byteLength":105712,
			"byteOffset":317136,
			"target":34962
		},
		{
			"buffer":0,
			"byteLength":105712,
			"byteOffset":422848,
			"target":34962
		},
		{
			"buffer":0,
			"byteLength":105712,
			"byteOffset":528560,
			"target":34962
		},
		{
			"buffer":0,
			"byteLength":51444,
			"byteOffset":634272,
			"target":34963
		},
		{
			"buffer":0,
			"byteLength":26544,
			"byteOffset":685716,
			"target":34962
		},
		{
			"buffer":0,
			"byteLength":26544,
			"byteOffset":712260,
			"target":34962
		},
		{
			"buffer":0,
			"byteLength":17696,
			"byteOffset":738804,
			"target":34962
		},
		{
			"buffer":0,
			"byteLength":17696,
			"byteOffset":756500,
			"target":34962
		},
		{
			"buffer":0,
			"byteLength":17696,
			"byteOffset":774196,
			"target":34962
		},
		{
			"buffer":0,
			"byteLength":8520,
			"byteOffset":791892,
			"target":34963
		},
		{
			"buffer":0,
			"byteLength":3264,
			"byteOffset":800412,
			"target":34962
		},
		{
			"buffer":0,
			"byteLength":3264,
			"byteOffset":803676,
			"target":34962
		},
		{
			"buffer":0,
			"byteLength":2176,
			"byteOffset":806940,
			"target":34962
		},
		{
			"buffer":0,
			"byteLength":2176,
			"byteOffset":809116,
			"target":34962
		},
		{
			"buffer":0,
			"byteLength":2176,
			"byteOffset":811292,
			"target":34962
		},
		{
			"buffer":0,
			"byteLength":816,
			"byteOffset":813468,
			"target":34963
		},
		{
			"buffer":0,
			"byteLength":176064,
			"byteOffset":814284,
			"target":34962
		},
		{
			"buffer":0,
			"byteLength":176064,
			"byteOffset":990348,
			"target":34962
		},
		{
			"buffer":0,
			"byteLength":117376,
			"byteOffset":1166412,
			"target":34962
		},
		{
			"buffer":0,
			"byteLength":117376,
			"byteOffset":1283788,
			"target":34962
		},
		{
			"buffer":0,
			"byteLength":117376,
			"byteOffset":1401164,
			"target":34962
		},
		{
			"buffer":0,
			"byteLength":55632,
			"byteOffset":1518540,
			"target":34963
		},
		{
			"buffer":0,
			"byteLength":16608,
			"byteOffset":1574172,
			"target":34962
		},
		{
			"buffer":0,
			"byteLength":16608,
			"byteOffset":1590780,
			"target":34962
		},
		{
			"buffer":0,
			"byteLength":11072,
			"byteOffset":1607388,
			"target":34962
		},
		{
			"buffer":0,
			"byteLength":11072,
			"byteOffset":1618460,
			"target":34962
		},
		{
			"buffer":0,
			"byteLength":11072,
			"byteOffset":1629532,
			"target":34962
		},
		{
			"buffer":0,
			"byteLength":4380,
			"byteOffset":1640604,
			"target":34963
		},
		{
			"buffer":0,
			"byteLength":144,
			"byteOffset":1644984,
			"target":34962
		},
		{
			"buffer":0,
			"byteLength":144,
			"byteOffset":1645128,
			"target":34962
		},
		{
			"buffer":0,
			"byteLength":96,
			"byteOffset":1645272,
			"target":34962
		},
		{
			"buffer":0,
			"byteLength":96,
			"byteOffset":1645368,
			"target":34962
		},
		{
			"buffer":0,
			"byteLength":96,
			"byteOffset":1645464,
			"target":34962
		},
		{
			"buffer":0,
			"byteLength":36,
			"byteOffset":1645560,
			"target":34963
		},
		{
			"buffer":0,
			"byteLength":192,
			"byteOffset":1645596,
			"target":34962
		},
		{
			"buffer":0,
			"byteLength":192,
			"byteOffset":1645788,
			"target":34962
		},
		{
			"buffer":0,
			"byteLength":128,
			"byteOffset":1645980,
			"target":34962
		},
		{
			"buffer":0,
			"byteLength":128,
			"byteOffset":1646108,
			"target":34962
		},
		{
			"buffer":0,
			"byteLength":128,
			"byteOffset":1646236,
			"target":34962
		},
		{
			"buffer":0,
			"byteLength":48,
			"byteOffset":1646364,
			"target":34963
		},
		{
			"buffer":0,
			"byteLength":192,
			"byteOffset":1646412,
			"target":34962
		},
		{
			"buffer":0,
			"byteLength":192,
			"byteOffset":1646604,
			"target":34962
		},
		{
			"buffer":0,
			"byteLength":128,
			"byteOffset":1646796,
			"target":34962
		},
		{
			"buffer":0,
			"byteLength":128,
			"byteOffset":1646924,
			"target":34962
		},
		{
			"buffer":0,
			"byteLength":128,
			"byteOffset":1647052,
			"target":34962
		},
		{
			"buffer":0,
			"byteLength":192,
			"byteOffset":1647180,
			"target":34962
		},
		{
			"buffer":0,
			"byteLength":192,
			"byteOffset":1647372,
			"target":34962
		},
		{
			"buffer":0,
			"byteLength":128,
			"byteOffset":1647564,
			"target":34962
		},
		{
			"buffer":0,
			"byteLength":128,
			"byteOffset":1647692,
			"target":34962
		},
		{
			"buffer":0,
			"byteLength":128,
			"byteOffset":1647820,
			"target":34962
		},
		{
			"buffer":0,
			"byteLength":1104,
			"byteOffset":1647948,
			"target":34962
		},
		{
			"buffer":0,
			"byteLength":1104,
			"byteOffset":1649052,
			"target":34962
		},
		{
			"buffer":0,
			"byteLength":736,
			"byteOffset":1650156,
			"target":34962
		},
		{
			"buffer":0,
			"byteLength":736,
			"byteOffset":1650892,
			"target":34962
		},
		{
			"buffer":0,
			"byteLength":736,
			"byteOffset":1651628,
			"target":34962
		},
		{
			"buffer":0,
			"byteLength":360,
			"byteOffset":1652364,
			"target":34963
		},
		{
			"buffer":0,
			"byteLength":2928,
			"byteOffset":1652724,
			"target":34962
		},
		{
			"buffer":0,
			"byteLength":2928,
			"byteOffset":1655652,
			"target":34962
		},
		{
			"buffer":0,
			"byteLength":1952,
			"byteOffset":1658580,
			"target":34962
		},
		{
			"buffer":0,
			"byteLength":1952,
			"byteOffset":1660532,
			"target":34962
		},
		{
			"buffer":0,
			"byteLength":1952,
			"byteOffset":1662484,
			"target":34962
		},
		{
			"buffer":0,
			"byteLength":744,
			"byteOffset":1664436,
			"target":34963
		}
	],
	"samplers":[
		{
			"magFilter":9729,
			"minFilter":9987
		}
	],
	"buffers":[
		{
			"byteLength":1665180,
			"uri":"Building_Small_2.bin"
		}
	]
}
