{
	"asset":{
		"generator":"Khronos glTF Blender I/O v4.3.47",
		"version":"2.0"
	},
	"scene":0,
	"scenes":[
		{
			"name":"Scene",
			"nodes":[
				0
			]
		}
	],
	"nodes":[
		{
			"mesh":0,
			"name":"Building_Large_3"
		}
	],
	"materials":[
		{
			"doubleSided":true,
			"name":"MI_WhiteBrick",
			"normalTexture":{
				"index":0
			},
			"pbrMetallicRoughness":{
				"baseColorTexture":{
					"index":1
				},
				"metallicRoughnessTexture":{
					"index":2
				}
			}
		},
		{
			"doubleSided":true,
			"name":"MI_Trim_MetalConcrete",
			"normalTexture":{
				"index":3
			},
			"pbrMetallicRoughness":{
				"baseColorTexture":{
					"index":4
				},
				"metallicRoughnessTexture":{
					"index":5
				}
			}
		},
		{
			"alphaMode":"BLEND",
			"doubleSided":true,
			"name":"MI_Glass",
			"pbrMetallicRoughness":{
				"baseColorFactor":[
					0.05215025693178177,
					0.05215025693178177,
					0.05215025693178177,
					0.586363673210144
				],
				"metallicFactor":0,
				"roughnessFactor":0.5
			}
		},
		{
			"doubleSided":true,
			"name":"MI_FakeInterior_3",
			"pbrMetallicRoughness":{
				"baseColorTexture":{
					"index":6
				},
				"metallicFactor":0,
				"roughnessFactor":0.5
			}
		},
		{
			"doubleSided":true,
			"name":"MI_InteriorWall",
			"normalTexture":{
				"index":7
			},
			"pbrMetallicRoughness":{
				"baseColorTexture":{
					"index":8
				},
				"metallicRoughnessTexture":{
					"index":9
				}
			}
		},
		{
			"doubleSided":true,
			"name":"MI_FakeInterior_4",
			"pbrMetallicRoughness":{
				"baseColorTexture":{
					"index":10
				},
				"metallicFactor":0,
				"roughnessFactor":0.5
			}
		},
		{
			"doubleSided":true,
			"name":"MI_Trim",
			"normalTexture":{
				"index":11
			},
			"pbrMetallicRoughness":{
				"baseColorTexture":{
					"index":12
				},
				"metallicRoughnessTexture":{
					"index":13
				}
			}
		},
		{
			"doubleSided":true,
			"name":"MI_RedBrick_Pale",
			"normalTexture":{
				"index":14
			},
			"pbrMetallicRoughness":{
				"baseColorTexture":{
					"index":15
				},
				"metallicRoughnessTexture":{
					"index":16
				}
			}
		},
		{
			"doubleSided":true,
			"name":"MI_FakeInterior_2",
			"pbrMetallicRoughness":{
				"baseColorTexture":{
					"index":17
				},
				"metallicFactor":0,
				"roughnessFactor":0.5
			}
		},
		{
			"doubleSided":true,
			"name":"MI_FakeInterior_1",
			"pbrMetallicRoughness":{
				"baseColorTexture":{
					"index":18
				},
				"metallicFactor":0,
				"roughnessFactor":0.5
			}
		},
		{
			"doubleSided":true,
			"name":"MI_Asphalt",
			"normalTexture":{
				"index":19
			},
			"pbrMetallicRoughness":{
				"baseColorTexture":{
					"index":20
				},
				"metallicRoughnessTexture":{
					"index":21
				}
			}
		},
		{
			"doubleSided":true,
			"name":"MI_Roof_Slate",
			"normalTexture":{
				"index":22
			},
			"pbrMetallicRoughness":{
				"baseColorTexture":{
					"index":23
				},
				"metallicRoughnessTexture":{
					"index":24
				}
			}
		},
		{
			"doubleSided":true,
			"name":"MI_InteriorFloor",
			"normalTexture":{
				"index":25
			},
			"pbrMetallicRoughness":{
				"baseColorTexture":{
					"index":26
				},
				"metallicRoughnessTexture":{
					"index":27
				}
			}
		},
		{
			"doubleSided":true,
			"name":"MI_FakeInterior",
			"pbrMetallicRoughness":{
				"baseColorFactor":[
					0.800000011920929,
					0.800000011920929,
					0.800000011920929,
					1
				],
				"metallicFactor":0,
				"roughnessFactor":0.5
			}
		}
	],
	"meshes":[
		{
			"name":"Cube.5868",
			"primitives":[
				{
					"attributes":{
						"POSITION":0,
						"NORMAL":1,
						"TEXCOORD_0":2,
						"TEXCOORD_1":3,
						"COLOR_0":4,
						"COLOR_1":5
					},
					"indices":6,
					"material":0
				},
				{
					"attributes":{
						"POSITION":7,
						"NORMAL":8,
						"TEXCOORD_0":9,
						"TEXCOORD_1":10,
						"COLOR_0":11,
						"COLOR_1":12
					},
					"indices":13,
					"material":1
				},
				{
					"attributes":{
						"POSITION":14,
						"NORMAL":15,
						"TEXCOORD_0":16,
						"TEXCOORD_1":17,
						"COLOR_0":18,
						"COLOR_1":19
					},
					"indices":20,
					"material":2
				},
				{
					"attributes":{
						"POSITION":21,
						"NORMAL":22,
						"TEXCOORD_0":23,
						"TEXCOORD_1":24,
						"COLOR_0":25,
						"COLOR_1":26
					},
					"indices":27,
					"material":3
				},
				{
					"attributes":{
						"POSITION":28,
						"NORMAL":29,
						"TEXCOORD_0":30,
						"TEXCOORD_1":31,
						"COLOR_0":32,
						"COLOR_1":33
					},
					"indices":34,
					"material":4
				},
				{
					"attributes":{
						"POSITION":35,
						"NORMAL":36,
						"TEXCOORD_0":37,
						"TEXCOORD_1":38,
						"COLOR_0":39,
						"COLOR_1":40
					},
					"indices":41,
					"material":5
				},
				{
					"attributes":{
						"POSITION":42,
						"NORMAL":43,
						"TEXCOORD_0":44,
						"TEXCOORD_1":45,
						"COLOR_0":46,
						"COLOR_1":47
					},
					"indices":48,
					"material":6
				},
				{
					"attributes":{
						"POSITION":49,
						"NORMAL":50,
						"TEXCOORD_0":51,
						"TEXCOORD_1":52,
						"COLOR_0":53,
						"COLOR_1":54
					},
					"indices":55,
					"material":7
				},
				{
					"attributes":{
						"POSITION":56,
						"NORMAL":57,
						"TEXCOORD_0":58,
						"TEXCOORD_1":59,
						"COLOR_0":60,
						"COLOR_1":61
					},
					"indices":62,
					"material":8
				},
				{
					"attributes":{
						"POSITION":63,
						"NORMAL":64,
						"TEXCOORD_0":65,
						"TEXCOORD_1":66,
						"COLOR_0":67,
						"COLOR_1":68
					},
					"indices":69,
					"material":9
				},
				{
					"attributes":{
						"POSITION":70,
						"NORMAL":71,
						"TEXCOORD_0":72,
						"TEXCOORD_1":73,
						"COLOR_0":74,
						"COLOR_1":75
					},
					"indices":76,
					"material":10
				},
				{
					"attributes":{
						"POSITION":77,
						"NORMAL":78,
						"TEXCOORD_0":79,
						"TEXCOORD_1":80,
						"COLOR_0":81,
						"COLOR_1":82
					},
					"indices":83,
					"material":11
				},
				{
					"attributes":{
						"POSITION":84,
						"NORMAL":85,
						"TEXCOORD_0":86,
						"TEXCOORD_1":87,
						"COLOR_0":88,
						"COLOR_1":89
					},
					"indices":90,
					"material":12
				},
				{
					"attributes":{
						"POSITION":91,
						"NORMAL":92,
						"TEXCOORD_0":93,
						"TEXCOORD_1":94,
						"COLOR_0":95,
						"COLOR_1":96
					},
					"indices":97,
					"material":13
				}
			]
		}
	],
	"textures":[
		{
			"sampler":0,
			"source":0
		},
		{
			"sampler":0,
			"source":1
		},
		{
			"sampler":0,
			"source":2
		},
		{
			"sampler":0,
			"source":3
		},
		{
			"sampler":0,
			"source":4
		},
		{
			"sampler":0,
			"source":5
		},
		{
			"sampler":0,
			"source":6
		},
		{
			"sampler":0,
			"source":7
		},
		{
			"sampler":0,
			"source":8
		},
		{
			"sampler":0,
			"source":9
		},
		{
			"sampler":0,
			"source":10
		},
		{
			"sampler":0,
			"source":11
		},
		{
			"sampler":0,
			"source":12
		},
		{
			"sampler":0,
			"source":13
		},
		{
			"sampler":0,
			"source":7
		},
		{
			"sampler":0,
			"source":8
		},
		{
			"sampler":0,
			"source":9
		},
		{
			"sampler":0,
			"source":14
		},
		{
			"sampler":0,
			"source":6
		},
		{
			"sampler":0,
			"source":15
		},
		{
			"sampler":0,
			"source":16
		},
		{
			"sampler":0,
			"source":17
		},
		{
			"sampler":0,
			"source":18
		},
		{
			"sampler":0,
			"source":19
		},
		{
			"sampler":0,
			"source":20
		},
		{
			"sampler":0,
			"source":21
		},
		{
			"sampler":0,
			"source":22
		},
		{
			"sampler":0,
			"source":23
		}
	],
	"images":[
		{
			"mimeType":"image/png",
			"name":"T_WhiteBrick_Normal",
			"uri":"T_WhiteBrick_Normal.png"
		},
		{
			"mimeType":"image/png",
			"name":"T_WhiteBrick_BaseColor",
			"uri":"T_WhiteBrick_BaseColor.png"
		},
		{
			"mimeType":"image/png",
			"name":"T_WhiteBrick_ORM",
			"uri":"T_WhiteBrick_ORM.png"
		},
		{
			"mimeType":"image/png",
			"name":"T_MetalConcrete_Normal",
			"uri":"T_MetalConcrete_Normal.png"
		},
		{
			"mimeType":"image/png",
			"name":"T_MetalConcrete_BaseColor",
			"uri":"T_MetalConcrete_BaseColor.png"
		},
		{
			"mimeType":"image/png",
			"name":"T_MetalConcrete_ORM",
			"uri":"T_MetalConcrete_ORM.png"
		},
		{
			"mimeType":"image/png",
			"name":"T_lit_interior_1",
			"uri":"T_lit_interior_1.png"
		},
		{
			"mimeType":"image/png",
			"name":"T_RedBrick_Normal",
			"uri":"T_RedBrick_Normal.png"
		},
		{
			"mimeType":"image/png",
			"name":"T_RedBrick_BaseColor",
			"uri":"T_RedBrick_BaseColor.png"
		},
		{
			"mimeType":"image/png",
			"name":"T_RedBrick_ORM",
			"uri":"T_RedBrick_ORM.png"
		},
		{
			"mimeType":"image/png",
			"name":"T_dark_interior",
			"uri":"T_dark_interior.png"
		},
		{
			"mimeType":"image/png",
			"name":"T_Trim_Normal",
			"uri":"T_Trim_Normal.png"
		},
		{
			"mimeType":"image/png",
			"name":"T_Trim_BaseColor",
			"uri":"T_Trim_BaseColor.png"
		},
		{
			"mimeType":"image/png",
			"name":"T_Trim_ORM",
			"uri":"T_Trim_ORM.png"
		},
		{
			"mimeType":"image/png",
			"name":"T_lit_interior_2",
			"uri":"T_lit_interior_2.png"
		},
		{
			"mimeType":"image/png",
			"name":"T_Concrete_Normal",
			"uri":"T_Concrete_Normal.png"
		},
		{
			"mimeType":"image/png",
			"name":"T_Concrete_Asphalt_BaseColor",
			"uri":"T_Concrete_Asphalt_BaseColor.png"
		},
		{
			"mimeType":"image/png",
			"name":"T_Concrete_ORM",
			"uri":"T_Concrete_ORM.png"
		},
		{
			"mimeType":"image/png",
			"name":"T_RoofSlate_Normal",
			"uri":"T_RoofSlate_Normal.png"
		},
		{
			"mimeType":"image/png",
			"name":"T_RoofSlate_BaseColor",
			"uri":"T_RoofSlate_BaseColor.png"
		},
		{
			"mimeType":"image/png",
			"name":"T_RoofSlate_ORM",
			"uri":"T_RoofSlate_ORM.png"
		},
		{
			"mimeType":"image/png",
			"name":"T_MarbleFloor_Normal",
			"uri":"T_MarbleFloor_Normal.png"
		},
		{
			"mimeType":"image/png",
			"name":"T_MarbleFloor_BaseColor",
			"uri":"T_MarbleFloor_BaseColor.png"
		},
		{
			"mimeType":"image/png",
			"name":"T_MarbleFloor_ORM",
			"uri":"T_MarbleFloor_ORM.png"
		}
	],
	"accessors":[
		{
			"bufferView":0,
			"componentType":5126,
			"count":276,
			"max":[
				11,
				4.000001907348633,
				0.25000008940696716
			],
			"min":[
				-11,
				0,
				-18
			],
			"type":"VEC3"
		},
		{
			"bufferView":1,
			"componentType":5126,
			"count":276,
			"type":"VEC3"
		},
		{
			"bufferView":2,
			"componentType":5126,
			"count":276,
			"type":"VEC2"
		},
		{
			"bufferView":3,
			"componentType":5126,
			"count":276,
			"type":"VEC2"
		},
		{
			"bufferView":4,
			"componentType":5121,
			"count":276,
			"normalized":true,
			"type":"VEC4"
		},
		{
			"bufferView":5,
			"componentType":5123,
			"count":276,
			"normalized":true,
			"type":"VEC4"
		},
		{
			"bufferView":6,
			"componentType":5123,
			"count":450,
			"type":"SCALAR"
		},
		{
			"bufferView":7,
			"componentType":5126,
			"count":11894,
			"max":[
				9,
				34.744895935058594,
				0
			],
			"min":[
				-9,
				-0.0005897581577301025,
				-16
			],
			"type":"VEC3"
		},
		{
			"bufferView":8,
			"componentType":5126,
			"count":11894,
			"type":"VEC3"
		},
		{
			"bufferView":9,
			"componentType":5126,
			"count":11894,
			"type":"VEC2"
		},
		{
			"bufferView":10,
			"componentType":5126,
			"count":11894,
			"type":"VEC2"
		},
		{
			"bufferView":11,
			"componentType":5121,
			"count":11894,
			"normalized":true,
			"type":"VEC4"
		},
		{
			"bufferView":12,
			"componentType":5123,
			"count":11894,
			"normalized":true,
			"type":"VEC4"
		},
		{
			"bufferView":13,
			"componentType":5123,
			"count":21162,
			"type":"SCALAR"
		},
		{
			"bufferView":14,
			"componentType":5126,
			"count":661,
			"max":[
				8.43685531616211,
				33.70164489746094,
				-0.07897023856639862
			],
			"min":[
				-8.436856269836426,
				0.041484713554382324,
				-0.5822789072990417
			],
			"type":"VEC3"
		},
		{
			"bufferView":15,
			"componentType":5126,
			"count":661,
			"type":"VEC3"
		},
		{
			"bufferView":16,
			"componentType":5126,
			"count":661,
			"type":"VEC2"
		},
		{
			"bufferView":17,
			"componentType":5126,
			"count":661,
			"type":"VEC2"
		},
		{
			"bufferView":18,
			"componentType":5121,
			"count":661,
			"normalized":true,
			"type":"VEC4"
		},
		{
			"bufferView":19,
			"componentType":5123,
			"count":661,
			"normalized":true,
			"type":"VEC4"
		},
		{
			"bufferView":20,
			"componentType":5123,
			"count":1053,
			"type":"SCALAR"
		},
		{
			"bufferView":21,
			"componentType":5126,
			"count":40,
			"max":[
				8.426025390625,
				34.2363166809082,
				-0.13368356227874756
			],
			"min":[
				-9,
				0.008002042770385742,
				-0.5974127054214478
			],
			"type":"VEC3"
		},
		{
			"bufferView":22,
			"componentType":5126,
			"count":40,
			"type":"VEC3"
		},
		{
			"bufferView":23,
			"componentType":5126,
			"count":40,
			"type":"VEC2"
		},
		{
			"bufferView":24,
			"componentType":5126,
			"count":40,
			"type":"VEC2"
		},
		{
			"bufferView":25,
			"componentType":5121,
			"count":40,
			"normalized":true,
			"type":"VEC4"
		},
		{
			"bufferView":26,
			"componentType":5123,
			"count":40,
			"normalized":true,
			"type":"VEC4"
		},
		{
			"bufferView":27,
			"componentType":5123,
			"count":60,
			"type":"SCALAR"
		},
		{
			"bufferView":28,
			"componentType":5126,
			"count":4572,
			"max":[
				11,
				31,
				0
			],
			"min":[
				-11,
				0,
				-18
			],
			"type":"VEC3"
		},
		{
			"bufferView":29,
			"componentType":5126,
			"count":4572,
			"type":"VEC3"
		},
		{
			"bufferView":30,
			"componentType":5126,
			"count":4572,
			"type":"VEC2"
		},
		{
			"bufferView":31,
			"componentType":5126,
			"count":4572,
			"type":"VEC2"
		},
		{
			"bufferView":32,
			"componentType":5121,
			"count":4572,
			"normalized":true,
			"type":"VEC4"
		},
		{
			"bufferView":33,
			"componentType":5123,
			"count":4572,
			"normalized":true,
			"type":"VEC4"
		},
		{
			"bufferView":34,
			"componentType":5123,
			"count":8598,
			"type":"SCALAR"
		},
		{
			"bufferView":35,
			"componentType":5126,
			"count":48,
			"max":[
				9,
				27.802709579467773,
				-0.1380426436662674
			],
			"min":[
				-8.426025390625,
				0.008002042770385742,
				-0.5974127054214478
			],
			"type":"VEC3"
		},
		{
			"bufferView":36,
			"componentType":5126,
			"count":48,
			"type":"VEC3"
		},
		{
			"bufferView":37,
			"componentType":5126,
			"count":48,
			"type":"VEC2"
		},
		{
			"bufferView":38,
			"componentType":5126,
			"count":48,
			"type":"VEC2"
		},
		{
			"bufferView":39,
			"componentType":5121,
			"count":48,
			"normalized":true,
			"type":"VEC4"
		},
		{
			"bufferView":40,
			"componentType":5123,
			"count":48,
			"normalized":true,
			"type":"VEC4"
		},
		{
			"bufferView":41,
			"componentType":5123,
			"count":72,
			"type":"SCALAR"
		},
		{
			"bufferView":42,
			"componentType":5126,
			"count":38284,
			"max":[
				11.527839660644531,
				34.94489288330078,
				0.5278398990631104
			],
			"min":[
				-11.527839660644531,
				3.999999523162842,
				-18.52783966064453
			],
			"type":"VEC3"
		},
		{
			"bufferView":43,
			"componentType":5126,
			"count":38284,
			"type":"VEC3"
		},
		{
			"bufferView":44,
			"componentType":5126,
			"count":38284,
			"type":"VEC2"
		},
		{
			"bufferView":45,
			"componentType":5126,
			"count":38284,
			"type":"VEC2"
		},
		{
			"bufferView":46,
			"componentType":5121,
			"count":38284,
			"normalized":true,
			"type":"VEC4"
		},
		{
			"bufferView":47,
			"componentType":5123,
			"count":38284,
			"normalized":true,
			"type":"VEC4"
		},
		{
			"bufferView":48,
			"componentType":5123,
			"count":67890,
			"type":"SCALAR"
		},
		{
			"bufferView":49,
			"componentType":5126,
			"count":4600,
			"max":[
				11,
				30.665843963623047,
				1.3113415775478643e-07
			],
			"min":[
				-11,
				3.999999761581421,
				-18
			],
			"type":"VEC3"
		},
		{
			"bufferView":50,
			"componentType":5126,
			"count":4600,
			"type":"VEC3"
		},
		{
			"bufferView":51,
			"componentType":5126,
			"count":4600,
			"type":"VEC2"
		},
		{
			"bufferView":52,
			"componentType":5126,
			"count":4600,
			"type":"VEC2"
		},
		{
			"bufferView":53,
			"componentType":5121,
			"count":4600,
			"normalized":true,
			"type":"VEC4"
		},
		{
			"bufferView":54,
			"componentType":5123,
			"count":4600,
			"normalized":true,
			"type":"VEC4"
		},
		{
			"bufferView":55,
			"componentType":5123,
			"count":9672,
			"type":"SCALAR"
		},
		{
			"bufferView":56,
			"componentType":5126,
			"count":48,
			"max":[
				8.426025390625,
				34.2363166809082,
				-0.13368356227874756
			],
			"min":[
				-8.426025390625,
				0.008002042770385742,
				-0.5974127054214478
			],
			"type":"VEC3"
		},
		{
			"bufferView":57,
			"componentType":5126,
			"count":48,
			"type":"VEC3"
		},
		{
			"bufferView":58,
			"componentType":5126,
			"count":48,
			"type":"VEC2"
		},
		{
			"bufferView":59,
			"componentType":5126,
			"count":48,
			"type":"VEC2"
		},
		{
			"bufferView":60,
			"componentType":5121,
			"count":48,
			"normalized":true,
			"type":"VEC4"
		},
		{
			"bufferView":61,
			"componentType":5123,
			"count":48,
			"normalized":true,
			"type":"VEC4"
		},
		{
			"bufferView":62,
			"componentType":5123,
			"count":72,
			"type":"SCALAR"
		},
		{
			"bufferView":63,
			"componentType":5126,
			"count":48,
			"max":[
				8.426025390625,
				34.2363166809082,
				-0.13368356227874756
			],
			"min":[
				-8.426025390625,
				0.008002042770385742,
				-0.5974127054214478
			],
			"type":"VEC3"
		},
		{
			"bufferView":64,
			"componentType":5126,
			"count":48,
			"type":"VEC3"
		},
		{
			"bufferView":65,
			"componentType":5126,
			"count":48,
			"type":"VEC2"
		},
		{
			"bufferView":66,
			"componentType":5126,
			"count":48,
			"type":"VEC2"
		},
		{
			"bufferView":67,
			"componentType":5121,
			"count":48,
			"normalized":true,
			"type":"VEC4"
		},
		{
			"bufferView":68,
			"componentType":5123,
			"count":48,
			"normalized":true,
			"type":"VEC4"
		},
		{
			"bufferView":69,
			"componentType":5123,
			"count":72,
			"type":"SCALAR"
		},
		{
			"bufferView":70,
			"componentType":5126,
			"count":76,
			"max":[
				10.820213317871094,
				34.79999923706055,
				-0.16089534759521484
			],
			"min":[
				-10.886056900024414,
				30.958038330078125,
				-17.750011444091797
			],
			"type":"VEC3"
		},
		{
			"bufferView":71,
			"componentType":5126,
			"count":76,
			"type":"VEC3"
		},
		{
			"bufferView":72,
			"componentType":5126,
			"count":76,
			"type":"VEC2"
		},
		{
			"bufferView":73,
			"componentType":5126,
			"count":76,
			"type":"VEC2"
		},
		{
			"bufferView":74,
			"componentType":5121,
			"count":76,
			"normalized":true,
			"type":"VEC4"
		},
		{
			"bufferView":75,
			"componentType":5123,
			"count":76,
			"normalized":true,
			"type":"VEC4"
		},
		{
			"bufferView":76,
			"componentType":5123,
			"count":120,
			"type":"SCALAR"
		},
		{
			"bufferView":77,
			"componentType":5126,
			"count":604,
			"max":[
				11.034719467163086,
				34.758853912353516,
				0.03471875190734863
			],
			"min":[
				-11.03471851348877,
				31.730709075927734,
				-18.034717559814453
			],
			"type":"VEC3"
		},
		{
			"bufferView":78,
			"componentType":5126,
			"count":604,
			"type":"VEC3"
		},
		{
			"bufferView":79,
			"componentType":5126,
			"count":604,
			"type":"VEC2"
		},
		{
			"bufferView":80,
			"componentType":5126,
			"count":604,
			"type":"VEC2"
		},
		{
			"bufferView":81,
			"componentType":5121,
			"count":604,
			"normalized":true,
			"type":"VEC4"
		},
		{
			"bufferView":82,
			"componentType":5123,
			"count":604,
			"normalized":true,
			"type":"VEC4"
		},
		{
			"bufferView":83,
			"componentType":5123,
			"count":1128,
			"type":"SCALAR"
		},
		{
			"bufferView":84,
			"componentType":5126,
			"count":36,
			"max":[
				10.907245635986328,
				0,
				0
			],
			"min":[
				-11,
				0,
				-18
			],
			"type":"VEC3"
		},
		{
			"bufferView":85,
			"componentType":5126,
			"count":36,
			"type":"VEC3"
		},
		{
			"bufferView":86,
			"componentType":5126,
			"count":36,
			"type":"VEC2"
		},
		{
			"bufferView":87,
			"componentType":5126,
			"count":36,
			"type":"VEC2"
		},
		{
			"bufferView":88,
			"componentType":5121,
			"count":36,
			"normalized":true,
			"type":"VEC4"
		},
		{
			"bufferView":89,
			"componentType":5123,
			"count":36,
			"normalized":true,
			"type":"VEC4"
		},
		{
			"bufferView":90,
			"componentType":5123,
			"count":54,
			"type":"SCALAR"
		},
		{
			"bufferView":91,
			"componentType":5126,
			"count":8,
			"max":[
				8.426025390625,
				30.802709579467773,
				-0.19701145589351654
			],
			"min":[
				-8.426025390625,
				28.022594451904297,
				-0.19701191782951355
			],
			"type":"VEC3"
		},
		{
			"bufferView":92,
			"componentType":5126,
			"count":8,
			"type":"VEC3"
		},
		{
			"bufferView":93,
			"componentType":5126,
			"count":8,
			"type":"VEC2"
		},
		{
			"bufferView":94,
			"componentType":5126,
			"count":8,
			"type":"VEC2"
		},
		{
			"bufferView":95,
			"componentType":5121,
			"count":8,
			"normalized":true,
			"type":"VEC4"
		},
		{
			"bufferView":96,
			"componentType":5123,
			"count":8,
			"normalized":true,
			"type":"VEC4"
		},
		{
			"bufferView":97,
			"componentType":5123,
			"count":12,
			"type":"SCALAR"
		}
	],
	"bufferViews":[
		{
			"buffer":0,
			"byteLength":3312,
			"byteOffset":0,
			"target":34962
		},
		{
			"buffer":0,
			"byteLength":3312,
			"byteOffset":3312,
			"target":34962
		},
		{
			"buffer":0,
			"byteLength":2208,
			"byteOffset":6624,
			"target":34962
		},
		{
			"buffer":0,
			"byteLength":2208,
			"byteOffset":8832,
			"target":34962
		},
		{
			"buffer":0,
			"byteLength":1104,
			"byteOffset":11040,
			"target":34962
		},
		{
			"buffer":0,
			"byteLength":2208,
			"byteOffset":12144,
			"target":34962
		},
		{
			"buffer":0,
			"byteLength":900,
			"byteOffset":14352,
			"target":34963
		},
		{
			"buffer":0,
			"byteLength":142728,
			"byteOffset":15252,
			"target":34962
		},
		{
			"buffer":0,
			"byteLength":142728,
			"byteOffset":157980,
			"target":34962
		},
		{
			"buffer":0,
			"byteLength":95152,
			"byteOffset":300708,
			"target":34962
		},
		{
			"buffer":0,
			"byteLength":95152,
			"byteOffset":395860,
			"target":34962
		},
		{
			"buffer":0,
			"byteLength":47576,
			"byteOffset":491012,
			"target":34962
		},
		{
			"buffer":0,
			"byteLength":95152,
			"byteOffset":538588,
			"target":34962
		},
		{
			"buffer":0,
			"byteLength":42324,
			"byteOffset":633740,
			"target":34963
		},
		{
			"buffer":0,
			"byteLength":7932,
			"byteOffset":676064,
			"target":34962
		},
		{
			"buffer":0,
			"byteLength":7932,
			"byteOffset":683996,
			"target":34962
		},
		{
			"buffer":0,
			"byteLength":5288,
			"byteOffset":691928,
			"target":34962
		},
		{
			"buffer":0,
			"byteLength":5288,
			"byteOffset":697216,
			"target":34962
		},
		{
			"buffer":0,
			"byteLength":2644,
			"byteOffset":702504,
			"target":34962
		},
		{
			"buffer":0,
			"byteLength":5288,
			"byteOffset":705148,
			"target":34962
		},
		{
			"buffer":0,
			"byteLength":2106,
			"byteOffset":710436,
			"target":34963
		},
		{
			"buffer":0,
			"byteLength":480,
			"byteOffset":712544,
			"target":34962
		},
		{
			"buffer":0,
			"byteLength":480,
			"byteOffset":713024,
			"target":34962
		},
		{
			"buffer":0,
			"byteLength":320,
			"byteOffset":713504,
			"target":34962
		},
		{
			"buffer":0,
			"byteLength":320,
			"byteOffset":713824,
			"target":34962
		},
		{
			"buffer":0,
			"byteLength":160,
			"byteOffset":714144,
			"target":34962
		},
		{
			"buffer":0,
			"byteLength":320,
			"byteOffset":714304,
			"target":34962
		},
		{
			"buffer":0,
			"byteLength":120,
			"byteOffset":714624,
			"target":34963
		},
		{
			"buffer":0,
			"byteLength":54864,
			"byteOffset":714744,
			"target":34962
		},
		{
			"buffer":0,
			"byteLength":54864,
			"byteOffset":769608,
			"target":34962
		},
		{
			"buffer":0,
			"byteLength":36576,
			"byteOffset":824472,
			"target":34962
		},
		{
			"buffer":0,
			"byteLength":36576,
			"byteOffset":861048,
			"target":34962
		},
		{
			"buffer":0,
			"byteLength":18288,
			"byteOffset":897624,
			"target":34962
		},
		{
			"buffer":0,
			"byteLength":36576,
			"byteOffset":915912,
			"target":34962
		},
		{
			"buffer":0,
			"byteLength":17196,
			"byteOffset":952488,
			"target":34963
		},
		{
			"buffer":0,
			"byteLength":576,
			"byteOffset":969684,
			"target":34962
		},
		{
			"buffer":0,
			"byteLength":576,
			"byteOffset":970260,
			"target":34962
		},
		{
			"buffer":0,
			"byteLength":384,
			"byteOffset":970836,
			"target":34962
		},
		{
			"buffer":0,
			"byteLength":384,
			"byteOffset":971220,
			"target":34962
		},
		{
			"buffer":0,
			"byteLength":192,
			"byteOffset":971604,
			"target":34962
		},
		{
			"buffer":0,
			"byteLength":384,
			"byteOffset":971796,
			"target":34962
		},
		{
			"buffer":0,
			"byteLength":144,
			"byteOffset":972180,
			"target":34963
		},
		{
			"buffer":0,
			"byteLength":459408,
			"byteOffset":972324,
			"target":34962
		},
		{
			"buffer":0,
			"byteLength":459408,
			"byteOffset":1431732,
			"target":34962
		},
		{
			"buffer":0,
			"byteLength":306272,
			"byteOffset":1891140,
			"target":34962
		},
		{
			"buffer":0,
			"byteLength":306272,
			"byteOffset":2197412,
			"target":34962
		},
		{
			"buffer":0,
			"byteLength":153136,
			"byteOffset":2503684,
			"target":34962
		},
		{
			"buffer":0,
			"byteLength":306272,
			"byteOffset":2656820,
			"target":34962
		},
		{
			"buffer":0,
			"byteLength":135780,
			"byteOffset":2963092,
			"target":34963
		},
		{
			"buffer":0,
			"byteLength":55200,
			"byteOffset":3098872,
			"target":34962
		},
		{
			"buffer":0,
			"byteLength":55200,
			"byteOffset":3154072,
			"target":34962
		},
		{
			"buffer":0,
			"byteLength":36800,
			"byteOffset":3209272,
			"target":34962
		},
		{
			"buffer":0,
			"byteLength":36800,
			"byteOffset":3246072,
			"target":34962
		},
		{
			"buffer":0,
			"byteLength":18400,
			"byteOffset":3282872,
			"target":34962
		},
		{
			"buffer":0,
			"byteLength":36800,
			"byteOffset":3301272,
			"target":34962
		},
		{
			"buffer":0,
			"byteLength":19344,
			"byteOffset":3338072,
			"target":34963
		},
		{
			"buffer":0,
			"byteLength":576,
			"byteOffset":3357416,
			"target":34962
		},
		{
			"buffer":0,
			"byteLength":576,
			"byteOffset":3357992,
			"target":34962
		},
		{
			"buffer":0,
			"byteLength":384,
			"byteOffset":3358568,
			"target":34962
		},
		{
			"buffer":0,
			"byteLength":384,
			"byteOffset":3358952,
			"target":34962
		},
		{
			"buffer":0,
			"byteLength":192,
			"byteOffset":3359336,
			"target":34962
		},
		{
			"buffer":0,
			"byteLength":384,
			"byteOffset":3359528,
			"target":34962
		},
		{
			"buffer":0,
			"byteLength":144,
			"byteOffset":3359912,
			"target":34963
		},
		{
			"buffer":0,
			"byteLength":576,
			"byteOffset":3360056,
			"target":34962
		},
		{
			"buffer":0,
			"byteLength":576,
			"byteOffset":3360632,
			"target":34962
		},
		{
			"buffer":0,
			"byteLength":384,
			"byteOffset":3361208,
			"target":34962
		},
		{
			"buffer":0,
			"byteLength":384,
			"byteOffset":3361592,
			"target":34962
		},
		{
			"buffer":0,
			"byteLength":192,
			"byteOffset":3361976,
			"target":34962
		},
		{
			"buffer":0,
			"byteLength":384,
			"byteOffset":3362168,
			"target":34962
		},
		{
			"buffer":0,
			"byteLength":144,
			"byteOffset":3362552,
			"target":34963
		},
		{
			"buffer":0,
			"byteLength":912,
			"byteOffset":3362696,
			"target":34962
		},
		{
			"buffer":0,
			"byteLength":912,
			"byteOffset":3363608,
			"target":34962
		},
		{
			"buffer":0,
			"byteLength":608,
			"byteOffset":3364520,
			"target":34962
		},
		{
			"buffer":0,
			"byteLength":608,
			"byteOffset":3365128,
			"target":34962
		},
		{
			"buffer":0,
			"byteLength":304,
			"byteOffset":3365736,
			"target":34962
		},
		{
			"buffer":0,
			"byteLength":608,
			"byteOffset":3366040,
			"target":34962
		},
		{
			"buffer":0,
			"byteLength":240,
			"byteOffset":3366648,
			"target":34963
		},
		{
			"buffer":0,
			"byteLength":7248,
			"byteOffset":3366888,
			"target":34962
		},
		{
			"buffer":0,
			"byteLength":7248,
			"byteOffset":3374136,
			"target":34962
		},
		{
			"buffer":0,
			"byteLength":4832,
			"byteOffset":3381384,
			"target":34962
		},
		{
			"buffer":0,
			"byteLength":4832,
			"byteOffset":3386216,
			"target":34962
		},
		{
			"buffer":0,
			"byteLength":2416,
			"byteOffset":3391048,
			"target":34962
		},
		{
			"buffer":0,
			"byteLength":4832,
			"byteOffset":3393464,
			"target":34962
		},
		{
			"buffer":0,
			"byteLength":2256,
			"byteOffset":3398296,
			"target":34963
		},
		{
			"buffer":0,
			"byteLength":432,
			"byteOffset":3400552,
			"target":34962
		},
		{
			"buffer":0,
			"byteLength":432,
			"byteOffset":3400984,
			"target":34962
		},
		{
			"buffer":0,
			"byteLength":288,
			"byteOffset":3401416,
			"target":34962
		},
		{
			"buffer":0,
			"byteLength":288,
			"byteOffset":3401704,
			"target":34962
		},
		{
			"buffer":0,
			"byteLength":144,
			"byteOffset":3401992,
			"target":34962
		},
		{
			"buffer":0,
			"byteLength":288,
			"byteOffset":3402136,
			"target":34962
		},
		{
			"buffer":0,
			"byteLength":108,
			"byteOffset":3402424,
			"target":34963
		},
		{
			"buffer":0,
			"byteLength":96,
			"byteOffset":3402532,
			"target":34962
		},
		{
			"buffer":0,
			"byteLength":96,
			"byteOffset":3402628,
			"target":34962
		},
		{
			"buffer":0,
			"byteLength":64,
			"byteOffset":3402724,
			"target":34962
		},
		{
			"buffer":0,
			"byteLength":64,
			"byteOffset":3402788,
			"target":34962
		},
		{
			"buffer":0,
			"byteLength":32,
			"byteOffset":3402852,
			"target":34962
		},
		{
			"buffer":0,
			"byteLength":64,
			"byteOffset":3402884,
			"target":34962
		},
		{
			"buffer":0,
			"byteLength":24,
			"byteOffset":3402948,
			"target":34963
		}
	],
	"samplers":[
		{
			"magFilter":9729,
			"minFilter":9987
		}
	],
	"buffers":[
		{
			"byteLength":3402972,
			"uri":"Building_Large_3.bin"
		}
	]
}
