{
	"asset":{
		"generator":"Khronos glTF Blender I/O v4.3.47",
		"version":"2.0"
	},
	"scene":0,
	"scenes":[
		{
			"name":"Scene",
			"nodes":[
				0
			]
		}
	],
	"nodes":[
		{
			"mesh":0,
			"name":"Building_Large_1"
		}
	],
	"materials":[
		{
			"doubleSided":true,
			"name":"MI_Trim",
			"normalTexture":{
				"index":0
			},
			"pbrMetallicRoughness":{
				"baseColorTexture":{
					"index":1
				},
				"metallicRoughnessTexture":{
					"index":2
				}
			}
		},
		{
			"doubleSided":true,
			"name":"MI_Trim_MetalConcrete",
			"normalTexture":{
				"index":3
			},
			"pbrMetallicRoughness":{
				"baseColorTexture":{
					"index":4
				},
				"metallicRoughnessTexture":{
					"index":5
				}
			}
		},
		{
			"alphaMode":"BLEND",
			"doubleSided":true,
			"name":"MI_Glass",
			"pbrMetallicRoughness":{
				"baseColorFactor":[
					0.05215025693178177,
					0.05215025693178177,
					0.05215025693178177,
					0.586363673210144
				],
				"metallicFactor":0,
				"roughnessFactor":0.5
			}
		},
		{
			"doubleSided":true,
			"name":"MI_InteriorWall",
			"normalTexture":{
				"index":6
			},
			"pbrMetallicRoughness":{
				"baseColorTexture":{
					"index":7
				},
				"metallicRoughnessTexture":{
					"index":8
				}
			}
		},
		{
			"doubleSided":true,
			"name":"MI_Ornaments",
			"normalTexture":{
				"index":9
			},
			"pbrMetallicRoughness":{
				"baseColorTexture":{
					"index":10
				},
				"metallicRoughnessTexture":{
					"index":11
				}
			}
		},
		{
			"doubleSided":true,
			"name":"MI_FakeInterior_3",
			"pbrMetallicRoughness":{
				"baseColorTexture":{
					"index":12
				},
				"metallicFactor":0,
				"roughnessFactor":0.5
			}
		},
		{
			"doubleSided":true,
			"name":"MI_FakeInterior_2",
			"pbrMetallicRoughness":{
				"baseColorTexture":{
					"index":13
				},
				"metallicFactor":0,
				"roughnessFactor":0.5
			}
		},
		{
			"doubleSided":true,
			"name":"MI_FakeInterior_1",
			"pbrMetallicRoughness":{
				"baseColorTexture":{
					"index":14
				},
				"metallicFactor":0,
				"roughnessFactor":0.5
			}
		},
		{
			"doubleSided":true,
			"name":"MI_FakeInterior_4",
			"pbrMetallicRoughness":{
				"baseColorTexture":{
					"index":15
				},
				"metallicFactor":0,
				"roughnessFactor":0.5
			}
		},
		{
			"doubleSided":true,
			"name":"MI_WhiteBrick",
			"normalTexture":{
				"index":16
			},
			"pbrMetallicRoughness":{
				"baseColorTexture":{
					"index":17
				},
				"metallicRoughnessTexture":{
					"index":18
				}
			}
		},
		{
			"doubleSided":true,
			"name":"MI_InteriorFloor",
			"normalTexture":{
				"index":19
			},
			"pbrMetallicRoughness":{
				"baseColorTexture":{
					"index":20
				},
				"metallicRoughnessTexture":{
					"index":21
				}
			}
		},
		{
			"doubleSided":true,
			"name":"MI_Asphalt",
			"normalTexture":{
				"index":22
			},
			"pbrMetallicRoughness":{
				"baseColorTexture":{
					"index":23
				},
				"metallicRoughnessTexture":{
					"index":24
				}
			}
		},
		{
			"doubleSided":true,
			"name":"MI_Awning",
			"normalTexture":{
				"index":25
			},
			"pbrMetallicRoughness":{
				"baseColorTexture":{
					"index":26
				},
				"metallicRoughnessTexture":{
					"index":27
				}
			}
		}
	],
	"meshes":[
		{
			"name":"Cube.1615",
			"primitives":[
				{
					"attributes":{
						"POSITION":0,
						"NORMAL":1,
						"TEXCOORD_0":2,
						"TEXCOORD_1":3,
						"COLOR_0":4
					},
					"indices":5,
					"material":0
				},
				{
					"attributes":{
						"POSITION":6,
						"NORMAL":7,
						"TEXCOORD_0":8,
						"TEXCOORD_1":9,
						"COLOR_0":10
					},
					"indices":11,
					"material":1
				},
				{
					"attributes":{
						"POSITION":12,
						"NORMAL":13,
						"TEXCOORD_0":14,
						"TEXCOORD_1":15,
						"COLOR_0":16
					},
					"indices":17,
					"material":2
				},
				{
					"attributes":{
						"POSITION":18,
						"NORMAL":19,
						"TEXCOORD_0":20,
						"TEXCOORD_1":21,
						"COLOR_0":22
					},
					"indices":23,
					"material":3
				},
				{
					"attributes":{
						"POSITION":24,
						"NORMAL":25,
						"TEXCOORD_0":26,
						"TEXCOORD_1":27,
						"COLOR_0":28
					},
					"indices":29,
					"material":4
				},
				{
					"attributes":{
						"POSITION":30,
						"NORMAL":31,
						"TEXCOORD_0":32,
						"TEXCOORD_1":33,
						"COLOR_0":34
					},
					"indices":35,
					"material":5
				},
				{
					"attributes":{
						"POSITION":36,
						"NORMAL":37,
						"TEXCOORD_0":38,
						"TEXCOORD_1":39,
						"COLOR_0":40
					},
					"indices":41,
					"material":6
				},
				{
					"attributes":{
						"POSITION":42,
						"NORMAL":43,
						"TEXCOORD_0":44,
						"TEXCOORD_1":45,
						"COLOR_0":46
					},
					"indices":47,
					"material":7
				},
				{
					"attributes":{
						"POSITION":48,
						"NORMAL":49,
						"TEXCOORD_0":50,
						"TEXCOORD_1":51,
						"COLOR_0":52
					},
					"indices":53,
					"material":8
				},
				{
					"attributes":{
						"POSITION":54,
						"NORMAL":55,
						"TEXCOORD_0":56,
						"TEXCOORD_1":57,
						"COLOR_0":58
					},
					"indices":59,
					"material":9
				},
				{
					"attributes":{
						"POSITION":60,
						"NORMAL":61,
						"TEXCOORD_0":62,
						"TEXCOORD_1":63,
						"COLOR_0":64
					},
					"indices":65,
					"material":10
				},
				{
					"attributes":{
						"POSITION":66,
						"NORMAL":67,
						"TEXCOORD_0":68,
						"TEXCOORD_1":69,
						"COLOR_0":70
					},
					"indices":71,
					"material":11
				},
				{
					"attributes":{
						"POSITION":72,
						"NORMAL":73,
						"TEXCOORD_0":74,
						"TEXCOORD_1":75,
						"COLOR_0":76
					},
					"indices":77,
					"material":12
				}
			]
		}
	],
	"textures":[
		{
			"sampler":0,
			"source":0
		},
		{
			"sampler":0,
			"source":1
		},
		{
			"sampler":0,
			"source":2
		},
		{
			"sampler":0,
			"source":3
		},
		{
			"sampler":0,
			"source":4
		},
		{
			"sampler":0,
			"source":5
		},
		{
			"sampler":0,
			"source":6
		},
		{
			"sampler":0,
			"source":7
		},
		{
			"sampler":0,
			"source":8
		},
		{
			"sampler":0,
			"source":9
		},
		{
			"sampler":0,
			"source":10
		},
		{
			"sampler":0,
			"source":11
		},
		{
			"sampler":0,
			"source":12
		},
		{
			"sampler":0,
			"source":13
		},
		{
			"sampler":0,
			"source":12
		},
		{
			"sampler":0,
			"source":14
		},
		{
			"sampler":0,
			"source":15
		},
		{
			"sampler":0,
			"source":16
		},
		{
			"sampler":0,
			"source":17
		},
		{
			"sampler":0,
			"source":18
		},
		{
			"sampler":0,
			"source":19
		},
		{
			"sampler":0,
			"source":20
		},
		{
			"sampler":0,
			"source":21
		},
		{
			"sampler":0,
			"source":22
		},
		{
			"sampler":0,
			"source":23
		},
		{
			"sampler":0,
			"source":9
		},
		{
			"sampler":0,
			"source":10
		},
		{
			"sampler":0,
			"source":11
		}
	],
	"images":[
		{
			"mimeType":"image/png",
			"name":"T_Trim_Normal",
			"uri":"T_Trim_Normal.png"
		},
		{
			"mimeType":"image/png",
			"name":"T_Trim_BaseColor",
			"uri":"T_Trim_BaseColor.png"
		},
		{
			"mimeType":"image/png",
			"name":"T_Trim_ORM",
			"uri":"T_Trim_ORM.png"
		},
		{
			"mimeType":"image/png",
			"name":"T_MetalConcrete_Normal",
			"uri":"T_MetalConcrete_Normal.png"
		},
		{
			"mimeType":"image/png",
			"name":"T_MetalConcrete_BaseColor",
			"uri":"T_MetalConcrete_BaseColor.png"
		},
		{
			"mimeType":"image/png",
			"name":"T_MetalConcrete_ORM",
			"uri":"T_MetalConcrete_ORM.png"
		},
		{
			"mimeType":"image/png",
			"name":"T_RedBrick_Normal",
			"uri":"T_RedBrick_Normal.png"
		},
		{
			"mimeType":"image/png",
			"name":"T_RedBrick_BaseColor",
			"uri":"T_RedBrick_BaseColor.png"
		},
		{
			"mimeType":"image/png",
			"name":"T_RedBrick_ORM",
			"uri":"T_RedBrick_ORM.png"
		},
		{
			"mimeType":"image/png",
			"name":"T_Ornaments_Normal",
			"uri":"T_Ornaments_Normal.png"
		},
		{
			"mimeType":"image/png",
			"name":"T_Ornaments_BaseColor",
			"uri":"T_Ornaments_BaseColor.png"
		},
		{
			"mimeType":"image/png",
			"name":"T_Ornaments_ORM",
			"uri":"T_Ornaments_ORM.png"
		},
		{
			"mimeType":"image/png",
			"name":"T_lit_interior_1",
			"uri":"T_lit_interior_1.png"
		},
		{
			"mimeType":"image/png",
			"name":"T_lit_interior_2",
			"uri":"T_lit_interior_2.png"
		},
		{
			"mimeType":"image/png",
			"name":"T_dark_interior",
			"uri":"T_dark_interior.png"
		},
		{
			"mimeType":"image/png",
			"name":"T_WhiteBrick_Normal",
			"uri":"T_WhiteBrick_Normal.png"
		},
		{
			"mimeType":"image/png",
			"name":"T_WhiteBrick_BaseColor",
			"uri":"T_WhiteBrick_BaseColor.png"
		},
		{
			"mimeType":"image/png",
			"name":"T_WhiteBrick_ORM",
			"uri":"T_WhiteBrick_ORM.png"
		},
		{
			"mimeType":"image/png",
			"name":"T_MarbleFloor_Normal",
			"uri":"T_MarbleFloor_Normal.png"
		},
		{
			"mimeType":"image/png",
			"name":"T_MarbleFloor_BaseColor",
			"uri":"T_MarbleFloor_BaseColor.png"
		},
		{
			"mimeType":"image/png",
			"name":"T_MarbleFloor_ORM",
			"uri":"T_MarbleFloor_ORM.png"
		},
		{
			"mimeType":"image/png",
			"name":"T_Concrete_Normal",
			"uri":"T_Concrete_Normal.png"
		},
		{
			"mimeType":"image/png",
			"name":"T_Concrete_Asphalt_BaseColor",
			"uri":"T_Concrete_Asphalt_BaseColor.png"
		},
		{
			"mimeType":"image/png",
			"name":"T_Concrete_ORM",
			"uri":"T_Concrete_ORM.png"
		}
	],
	"accessors":[
		{
			"bufferView":0,
			"componentType":5126,
			"count":56546,
			"max":[
				12.518461227416992,
				41,
				0.5184613466262817
			],
			"min":[
				-12.518461227416992,
				-2.384185791015625e-07,
				-24.518461227416992
			],
			"type":"VEC3"
		},
		{
			"bufferView":1,
			"componentType":5126,
			"count":56546,
			"type":"VEC3"
		},
		{
			"bufferView":2,
			"componentType":5126,
			"count":56546,
			"type":"VEC2"
		},
		{
			"bufferView":3,
			"componentType":5126,
			"count":56546,
			"type":"VEC2"
		},
		{
			"bufferView":4,
			"componentType":5123,
			"count":56546,
			"normalized":true,
			"type":"VEC4"
		},
		{
			"bufferView":5,
			"componentType":5123,
			"count":107376,
			"type":"SCALAR"
		},
		{
			"bufferView":6,
			"componentType":5126,
			"count":45450,
			"max":[
				11.948378562927246,
				39.667598724365234,
				1.49885094165802
			],
			"min":[
				-9.42501163482666,
				0,
				-21.40282440185547
			],
			"type":"VEC3"
		},
		{
			"bufferView":7,
			"componentType":5126,
			"count":45450,
			"type":"VEC3"
		},
		{
			"bufferView":8,
			"componentType":5126,
			"count":45450,
			"type":"VEC2"
		},
		{
			"bufferView":9,
			"componentType":5126,
			"count":45450,
			"type":"VEC2"
		},
		{
			"bufferView":10,
			"componentType":5123,
			"count":45450,
			"normalized":true,
			"type":"VEC4"
		},
		{
			"bufferView":11,
			"componentType":5123,
			"count":89568,
			"type":"SCALAR"
		},
		{
			"bufferView":12,
			"componentType":5126,
			"count":2352,
			"max":[
				11.835251808166504,
				39.60657501220703,
				-0.16474799811840057
			],
			"min":[
				-9.343241691589355,
				0.0555415153503418,
				-21.343242645263672
			],
			"type":"VEC3"
		},
		{
			"bufferView":13,
			"componentType":5126,
			"count":2352,
			"type":"VEC3"
		},
		{
			"bufferView":14,
			"componentType":5126,
			"count":2352,
			"type":"VEC2"
		},
		{
			"bufferView":15,
			"componentType":5126,
			"count":2352,
			"type":"VEC2"
		},
		{
			"bufferView":16,
			"componentType":5123,
			"count":2352,
			"normalized":true,
			"type":"VEC4"
		},
		{
			"bufferView":17,
			"componentType":5123,
			"count":4236,
			"type":"SCALAR"
		},
		{
			"bufferView":18,
			"componentType":5126,
			"count":6704,
			"max":[
				12,
				40,
				0
			],
			"min":[
				-12,
				0,
				-24.000001907348633
			],
			"type":"VEC3"
		},
		{
			"bufferView":19,
			"componentType":5126,
			"count":6704,
			"type":"VEC3"
		},
		{
			"bufferView":20,
			"componentType":5126,
			"count":6704,
			"type":"VEC2"
		},
		{
			"bufferView":21,
			"componentType":5126,
			"count":6704,
			"type":"VEC2"
		},
		{
			"bufferView":22,
			"componentType":5123,
			"count":6704,
			"normalized":true,
			"type":"VEC4"
		},
		{
			"bufferView":23,
			"componentType":5123,
			"count":13992,
			"type":"SCALAR"
		},
		{
			"bufferView":24,
			"componentType":5126,
			"count":7536,
			"max":[
				12.518461227416992,
				41,
				0.5184613466262817
			],
			"min":[
				-12.518461227416992,
				0.44787561893463135,
				-24.518461227416992
			],
			"type":"VEC3"
		},
		{
			"bufferView":25,
			"componentType":5126,
			"count":7536,
			"type":"VEC3"
		},
		{
			"bufferView":26,
			"componentType":5126,
			"count":7536,
			"type":"VEC2"
		},
		{
			"bufferView":27,
			"componentType":5126,
			"count":7536,
			"type":"VEC2"
		},
		{
			"bufferView":28,
			"componentType":5123,
			"count":7536,
			"normalized":true,
			"type":"VEC4"
		},
		{
			"bufferView":29,
			"componentType":5123,
			"count":11304,
			"type":"SCALAR"
		},
		{
			"bufferView":30,
			"componentType":5126,
			"count":120,
			"max":[
				11.810678482055664,
				39.643489837646484,
				-0.18932071328163147
			],
			"min":[
				-9.426025390625,
				0.10743021965026855,
				-21.426025390625
			],
			"type":"VEC3"
		},
		{
			"bufferView":31,
			"componentType":5126,
			"count":120,
			"type":"VEC3"
		},
		{
			"bufferView":32,
			"componentType":5126,
			"count":120,
			"type":"VEC2"
		},
		{
			"bufferView":33,
			"componentType":5126,
			"count":120,
			"type":"VEC2"
		},
		{
			"bufferView":34,
			"componentType":5123,
			"count":120,
			"normalized":true,
			"type":"VEC4"
		},
		{
			"bufferView":35,
			"componentType":5123,
			"count":180,
			"type":"SCALAR"
		},
		{
			"bufferView":36,
			"componentType":5126,
			"count":136,
			"max":[
				11.810678482055664,
				39.643489837646484,
				-0.18932071328163147
			],
			"min":[
				-9.426025390625,
				0.10743021965026855,
				-21.426025390625
			],
			"type":"VEC3"
		},
		{
			"bufferView":37,
			"componentType":5126,
			"count":136,
			"type":"VEC3"
		},
		{
			"bufferView":38,
			"componentType":5126,
			"count":136,
			"type":"VEC2"
		},
		{
			"bufferView":39,
			"componentType":5126,
			"count":136,
			"type":"VEC2"
		},
		{
			"bufferView":40,
			"componentType":5123,
			"count":136,
			"normalized":true,
			"type":"VEC4"
		},
		{
			"bufferView":41,
			"componentType":5123,
			"count":204,
			"type":"SCALAR"
		},
		{
			"bufferView":42,
			"componentType":5126,
			"count":112,
			"max":[
				11.810678482055664,
				39.643489837646484,
				-0.19700050354003906
			],
			"min":[
				-9.426025390625,
				0.10743021965026855,
				-21.426025390625
			],
			"type":"VEC3"
		},
		{
			"bufferView":43,
			"componentType":5126,
			"count":112,
			"type":"VEC3"
		},
		{
			"bufferView":44,
			"componentType":5126,
			"count":112,
			"type":"VEC2"
		},
		{
			"bufferView":45,
			"componentType":5126,
			"count":112,
			"type":"VEC2"
		},
		{
			"bufferView":46,
			"componentType":5123,
			"count":112,
			"normalized":true,
			"type":"VEC4"
		},
		{
			"bufferView":47,
			"componentType":5123,
			"count":168,
			"type":"SCALAR"
		},
		{
			"bufferView":48,
			"componentType":5126,
			"count":108,
			"max":[
				11.810678482055664,
				39.643489837646484,
				-0.18932071328163147
			],
			"min":[
				-9.426025390625,
				0.10743021965026855,
				-21.426025390625
			],
			"type":"VEC3"
		},
		{
			"bufferView":49,
			"componentType":5126,
			"count":108,
			"type":"VEC3"
		},
		{
			"bufferView":50,
			"componentType":5126,
			"count":108,
			"type":"VEC2"
		},
		{
			"bufferView":51,
			"componentType":5126,
			"count":108,
			"type":"VEC2"
		},
		{
			"bufferView":52,
			"componentType":5123,
			"count":108,
			"normalized":true,
			"type":"VEC4"
		},
		{
			"bufferView":53,
			"componentType":5123,
			"count":162,
			"type":"SCALAR"
		},
		{
			"bufferView":54,
			"componentType":5126,
			"count":840,
			"max":[
				10,
				40,
				-2
			],
			"min":[
				-12,
				0,
				-24
			],
			"type":"VEC3"
		},
		{
			"bufferView":55,
			"componentType":5126,
			"count":840,
			"type":"VEC3"
		},
		{
			"bufferView":56,
			"componentType":5126,
			"count":840,
			"type":"VEC2"
		},
		{
			"bufferView":57,
			"componentType":5126,
			"count":840,
			"type":"VEC2"
		},
		{
			"bufferView":58,
			"componentType":5123,
			"count":840,
			"normalized":true,
			"type":"VEC4"
		},
		{
			"bufferView":59,
			"componentType":5123,
			"count":1320,
			"type":"SCALAR"
		},
		{
			"bufferView":60,
			"componentType":5126,
			"count":4,
			"max":[
				12,
				0,
				0
			],
			"min":[
				-12,
				0,
				-24
			],
			"type":"VEC3"
		},
		{
			"bufferView":61,
			"componentType":5126,
			"count":4,
			"type":"VEC3"
		},
		{
			"bufferView":62,
			"componentType":5126,
			"count":4,
			"type":"VEC2"
		},
		{
			"bufferView":63,
			"componentType":5126,
			"count":4,
			"type":"VEC2"
		},
		{
			"bufferView":64,
			"componentType":5123,
			"count":4,
			"normalized":true,
			"type":"VEC4"
		},
		{
			"bufferView":65,
			"componentType":5123,
			"count":6,
			"type":"SCALAR"
		},
		{
			"bufferView":66,
			"componentType":5126,
			"count":64,
			"max":[
				12,
				40.7442741394043,
				0
			],
			"min":[
				-12,
				39.921138763427734,
				-24
			],
			"type":"VEC3"
		},
		{
			"bufferView":67,
			"componentType":5126,
			"count":64,
			"type":"VEC3"
		},
		{
			"bufferView":68,
			"componentType":5126,
			"count":64,
			"type":"VEC2"
		},
		{
			"bufferView":69,
			"componentType":5126,
			"count":64,
			"type":"VEC2"
		},
		{
			"bufferView":70,
			"componentType":5123,
			"count":64,
			"normalized":true,
			"type":"VEC4"
		},
		{
			"bufferView":71,
			"componentType":5123,
			"count":96,
			"type":"SCALAR"
		},
		{
			"bufferView":72,
			"componentType":5126,
			"count":320,
			"max":[
				9.402823448181152,
				3.804994583129883,
				1.5102037191390991
			],
			"min":[
				-9.402822494506836,
				2.882481813430786,
				0.029999367892742157
			],
			"type":"VEC3"
		},
		{
			"bufferView":73,
			"componentType":5126,
			"count":320,
			"type":"VEC3"
		},
		{
			"bufferView":74,
			"componentType":5126,
			"count":320,
			"type":"VEC2"
		},
		{
			"bufferView":75,
			"componentType":5126,
			"count":320,
			"type":"VEC2"
		},
		{
			"bufferView":76,
			"componentType":5123,
			"count":320,
			"normalized":true,
			"type":"VEC4"
		},
		{
			"bufferView":77,
			"componentType":5123,
			"count":630,
			"type":"SCALAR"
		}
	],
	"bufferViews":[
		{
			"buffer":0,
			"byteLength":678552,
			"byteOffset":0,
			"target":34962
		},
		{
			"buffer":0,
			"byteLength":678552,
			"byteOffset":678552,
			"target":34962
		},
		{
			"buffer":0,
			"byteLength":452368,
			"byteOffset":1357104,
			"target":34962
		},
		{
			"buffer":0,
			"byteLength":452368,
			"byteOffset":1809472,
			"target":34962
		},
		{
			"buffer":0,
			"byteLength":452368,
			"byteOffset":2261840,
			"target":34962
		},
		{
			"buffer":0,
			"byteLength":214752,
			"byteOffset":2714208,
			"target":34963
		},
		{
			"buffer":0,
			"byteLength":545400,
			"byteOffset":2928960,
			"target":34962
		},
		{
			"buffer":0,
			"byteLength":545400,
			"byteOffset":3474360,
			"target":34962
		},
		{
			"buffer":0,
			"byteLength":363600,
			"byteOffset":4019760,
			"target":34962
		},
		{
			"buffer":0,
			"byteLength":363600,
			"byteOffset":4383360,
			"target":34962
		},
		{
			"buffer":0,
			"byteLength":363600,
			"byteOffset":4746960,
			"target":34962
		},
		{
			"buffer":0,
			"byteLength":179136,
			"byteOffset":5110560,
			"target":34963
		},
		{
			"buffer":0,
			"byteLength":28224,
			"byteOffset":5289696,
			"target":34962
		},
		{
			"buffer":0,
			"byteLength":28224,
			"byteOffset":5317920,
			"target":34962
		},
		{
			"buffer":0,
			"byteLength":18816,
			"byteOffset":5346144,
			"target":34962
		},
		{
			"buffer":0,
			"byteLength":18816,
			"byteOffset":5364960,
			"target":34962
		},
		{
			"buffer":0,
			"byteLength":18816,
			"byteOffset":5383776,
			"target":34962
		},
		{
			"buffer":0,
			"byteLength":8472,
			"byteOffset":5402592,
			"target":34963
		},
		{
			"buffer":0,
			"byteLength":80448,
			"byteOffset":5411064,
			"target":34962
		},
		{
			"buffer":0,
			"byteLength":80448,
			"byteOffset":5491512,
			"target":34962
		},
		{
			"buffer":0,
			"byteLength":53632,
			"byteOffset":5571960,
			"target":34962
		},
		{
			"buffer":0,
			"byteLength":53632,
			"byteOffset":5625592,
			"target":34962
		},
		{
			"buffer":0,
			"byteLength":53632,
			"byteOffset":5679224,
			"target":34962
		},
		{
			"buffer":0,
			"byteLength":27984,
			"byteOffset":5732856,
			"target":34963
		},
		{
			"buffer":0,
			"byteLength":90432,
			"byteOffset":5760840,
			"target":34962
		},
		{
			"buffer":0,
			"byteLength":90432,
			"byteOffset":5851272,
			"target":34962
		},
		{
			"buffer":0,
			"byteLength":60288,
			"byteOffset":5941704,
			"target":34962
		},
		{
			"buffer":0,
			"byteLength":60288,
			"byteOffset":6001992,
			"target":34962
		},
		{
			"buffer":0,
			"byteLength":60288,
			"byteOffset":6062280,
			"target":34962
		},
		{
			"buffer":0,
			"byteLength":22608,
			"byteOffset":6122568,
			"target":34963
		},
		{
			"buffer":0,
			"byteLength":1440,
			"byteOffset":6145176,
			"target":34962
		},
		{
			"buffer":0,
			"byteLength":1440,
			"byteOffset":6146616,
			"target":34962
		},
		{
			"buffer":0,
			"byteLength":960,
			"byteOffset":6148056,
			"target":34962
		},
		{
			"buffer":0,
			"byteLength":960,
			"byteOffset":6149016,
			"target":34962
		},
		{
			"buffer":0,
			"byteLength":960,
			"byteOffset":6149976,
			"target":34962
		},
		{
			"buffer":0,
			"byteLength":360,
			"byteOffset":6150936,
			"target":34963
		},
		{
			"buffer":0,
			"byteLength":1632,
			"byteOffset":6151296,
			"target":34962
		},
		{
			"buffer":0,
			"byteLength":1632,
			"byteOffset":6152928,
			"target":34962
		},
		{
			"buffer":0,
			"byteLength":1088,
			"byteOffset":6154560,
			"target":34962
		},
		{
			"buffer":0,
			"byteLength":1088,
			"byteOffset":6155648,
			"target":34962
		},
		{
			"buffer":0,
			"byteLength":1088,
			"byteOffset":6156736,
			"target":34962
		},
		{
			"buffer":0,
			"byteLength":408,
			"byteOffset":6157824,
			"target":34963
		},
		{
			"buffer":0,
			"byteLength":1344,
			"byteOffset":6158232,
			"target":34962
		},
		{
			"buffer":0,
			"byteLength":1344,
			"byteOffset":6159576,
			"target":34962
		},
		{
			"buffer":0,
			"byteLength":896,
			"byteOffset":6160920,
			"target":34962
		},
		{
			"buffer":0,
			"byteLength":896,
			"byteOffset":6161816,
			"target":34962
		},
		{
			"buffer":0,
			"byteLength":896,
			"byteOffset":6162712,
			"target":34962
		},
		{
			"buffer":0,
			"byteLength":336,
			"byteOffset":6163608,
			"target":34963
		},
		{
			"buffer":0,
			"byteLength":1296,
			"byteOffset":6163944,
			"target":34962
		},
		{
			"buffer":0,
			"byteLength":1296,
			"byteOffset":6165240,
			"target":34962
		},
		{
			"buffer":0,
			"byteLength":864,
			"byteOffset":6166536,
			"target":34962
		},
		{
			"buffer":0,
			"byteLength":864,
			"byteOffset":6167400,
			"target":34962
		},
		{
			"buffer":0,
			"byteLength":864,
			"byteOffset":6168264,
			"target":34962
		},
		{
			"buffer":0,
			"byteLength":324,
			"byteOffset":6169128,
			"target":34963
		},
		{
			"buffer":0,
			"byteLength":10080,
			"byteOffset":6169452,
			"target":34962
		},
		{
			"buffer":0,
			"byteLength":10080,
			"byteOffset":6179532,
			"target":34962
		},
		{
			"buffer":0,
			"byteLength":6720,
			"byteOffset":6189612,
			"target":34962
		},
		{
			"buffer":0,
			"byteLength":6720,
			"byteOffset":6196332,
			"target":34962
		},
		{
			"buffer":0,
			"byteLength":6720,
			"byteOffset":6203052,
			"target":34962
		},
		{
			"buffer":0,
			"byteLength":2640,
			"byteOffset":6209772,
			"target":34963
		},
		{
			"buffer":0,
			"byteLength":48,
			"byteOffset":6212412,
			"target":34962
		},
		{
			"buffer":0,
			"byteLength":48,
			"byteOffset":6212460,
			"target":34962
		},
		{
			"buffer":0,
			"byteLength":32,
			"byteOffset":6212508,
			"target":34962
		},
		{
			"buffer":0,
			"byteLength":32,
			"byteOffset":6212540,
			"target":34962
		},
		{
			"buffer":0,
			"byteLength":32,
			"byteOffset":6212572,
			"target":34962
		},
		{
			"buffer":0,
			"byteLength":12,
			"byteOffset":6212604,
			"target":34963
		},
		{
			"buffer":0,
			"byteLength":768,
			"byteOffset":6212616,
			"target":34962
		},
		{
			"buffer":0,
			"byteLength":768,
			"byteOffset":6213384,
			"target":34962
		},
		{
			"buffer":0,
			"byteLength":512,
			"byteOffset":6214152,
			"target":34962
		},
		{
			"buffer":0,
			"byteLength":512,
			"byteOffset":6214664,
			"target":34962
		},
		{
			"buffer":0,
			"byteLength":512,
			"byteOffset":6215176,
			"target":34962
		},
		{
			"buffer":0,
			"byteLength":192,
			"byteOffset":6215688,
			"target":34963
		},
		{
			"buffer":0,
			"byteLength":3840,
			"byteOffset":6215880,
			"target":34962
		},
		{
			"buffer":0,
			"byteLength":3840,
			"byteOffset":6219720,
			"target":34962
		},
		{
			"buffer":0,
			"byteLength":2560,
			"byteOffset":6223560,
			"target":34962
		},
		{
			"buffer":0,
			"byteLength":2560,
			"byteOffset":6226120,
			"target":34962
		},
		{
			"buffer":0,
			"byteLength":2560,
			"byteOffset":6228680,
			"target":34962
		},
		{
			"buffer":0,
			"byteLength":1260,
			"byteOffset":6231240,
			"target":34963
		}
	],
	"samplers":[
		{
			"magFilter":9729,
			"minFilter":9987
		}
	],
	"buffers":[
		{
			"byteLength":6232500,
			"uri":"Building_Large_1.bin"
		}
	]
}
