{
	"asset":{
		"generator":"Khronos glTF Blender I/O v4.3.47",
		"version":"2.0"
	},
	"scene":0,
	"scenes":[
		{
			"name":"Scene",
			"nodes":[
				0
			]
		}
	],
	"nodes":[
		{
			"mesh":0,
			"name":"Cornice_Marble_90Angle_R"
		}
	],
	"materials":[
		{
			"doubleSided":true,
			"name":"MI_Trim",
			"normalTexture":{
				"index":0
			},
			"pbrMetallicRoughness":{
				"baseColorTexture":{
					"index":1
				},
				"metallicRoughnessTexture":{
					"index":2
				}
			}
		},
		{
			"doubleSided":true,
			"name":"MI_Ornaments",
			"normalTexture":{
				"index":3
			},
			"pbrMetallicRoughness":{
				"baseColorTexture":{
					"index":4
				},
				"metallicRoughnessTexture":{
					"index":5
				}
			}
		}
	],
	"meshes":[
		{
			"name":"Cube.150",
			"primitives":[
				{
					"attributes":{
						"POSITION":0,
						"NORMAL":1,
						"TEXCOORD_0":2,
						"TEXCOORD_1":3,
						"COLOR_0":4,
						"COLOR_1":5
					},
					"indices":6,
					"material":0
				},
				{
					"attributes":{
						"POSITION":7,
						"NORMAL":8,
						"TEXCOORD_0":9,
						"TEXCOORD_1":10,
						"COLOR_0":11,
						"COLOR_1":12
					},
					"indices":13,
					"material":1
				}
			]
		}
	],
	"textures":[
		{
			"sampler":0,
			"source":0
		},
		{
			"sampler":0,
			"source":1
		},
		{
			"sampler":0,
			"source":2
		},
		{
			"sampler":0,
			"source":3
		},
		{
			"sampler":0,
			"source":4
		},
		{
			"sampler":0,
			"source":5
		}
	],
	"images":[
		{
			"mimeType":"image/png",
			"name":"T_Trim_Normal",
			"uri":"T_Trim_Normal.png"
		},
		{
			"mimeType":"image/png",
			"name":"T_Trim_BaseColor",
			"uri":"T_Trim_BaseColor.png"
		},
		{
			"mimeType":"image/png",
			"name":"T_Trim_ORM",
			"uri":"T_Trim_ORM.png"
		},
		{
			"mimeType":"image/png",
			"name":"T_Ornaments_Normal",
			"uri":"T_Ornaments_Normal.png"
		},
		{
			"mimeType":"image/png",
			"name":"T_Ornaments_BaseColor",
			"uri":"T_Ornaments_BaseColor.png"
		},
		{
			"mimeType":"image/png",
			"name":"T_Ornaments_ORM",
			"uri":"T_Ornaments_ORM.png"
		}
	],
	"accessors":[
		{
			"bufferView":0,
			"componentType":5126,
			"count":361,
			"max":[
				1,
				1,
				0.5184613466262817
			],
			"min":[
				-1,
				0,
				-0.6000000238418579
			],
			"type":"VEC3"
		},
		{
			"bufferView":1,
			"componentType":5126,
			"count":361,
			"type":"VEC3"
		},
		{
			"bufferView":2,
			"componentType":5126,
			"count":361,
			"type":"VEC2"
		},
		{
			"bufferView":3,
			"componentType":5126,
			"count":361,
			"type":"VEC2"
		},
		{
			"bufferView":4,
			"componentType":5121,
			"count":361,
			"normalized":true,
			"type":"VEC4"
		},
		{
			"bufferView":5,
			"componentType":5123,
			"count":361,
			"normalized":true,
			"type":"VEC4"
		},
		{
			"bufferView":6,
			"componentType":5123,
			"count":747,
			"type":"SCALAR"
		},
		{
			"bufferView":7,
			"componentType":5126,
			"count":92,
			"max":[
				1,
				1,
				0.5184613466262817
			],
			"min":[
				-1,
				0.16552400588989258,
				-0.4257305860519409
			],
			"type":"VEC3"
		},
		{
			"bufferView":8,
			"componentType":5126,
			"count":92,
			"type":"VEC3"
		},
		{
			"bufferView":9,
			"componentType":5126,
			"count":92,
			"type":"VEC2"
		},
		{
			"bufferView":10,
			"componentType":5126,
			"count":92,
			"type":"VEC2"
		},
		{
			"bufferView":11,
			"componentType":5121,
			"count":92,
			"normalized":true,
			"type":"VEC4"
		},
		{
			"bufferView":12,
			"componentType":5123,
			"count":92,
			"normalized":true,
			"type":"VEC4"
		},
		{
			"bufferView":13,
			"componentType":5123,
			"count":138,
			"type":"SCALAR"
		}
	],
	"bufferViews":[
		{
			"buffer":0,
			"byteLength":4332,
			"byteOffset":0,
			"target":34962
		},
		{
			"buffer":0,
			"byteLength":4332,
			"byteOffset":4332,
			"target":34962
		},
		{
			"buffer":0,
			"byteLength":2888,
			"byteOffset":8664,
			"target":34962
		},
		{
			"buffer":0,
			"byteLength":2888,
			"byteOffset":11552,
			"target":34962
		},
		{
			"buffer":0,
			"byteLength":1444,
			"byteOffset":14440,
			"target":34962
		},
		{
			"buffer":0,
			"byteLength":2888,
			"byteOffset":15884,
			"target":34962
		},
		{
			"buffer":0,
			"byteLength":1494,
			"byteOffset":18772,
			"target":34963
		},
		{
			"buffer":0,
			"byteLength":1104,
			"byteOffset":20268,
			"target":34962
		},
		{
			"buffer":0,
			"byteLength":1104,
			"byteOffset":21372,
			"target":34962
		},
		{
			"buffer":0,
			"byteLength":736,
			"byteOffset":22476,
			"target":34962
		},
		{
			"buffer":0,
			"byteLength":736,
			"byteOffset":23212,
			"target":34962
		},
		{
			"buffer":0,
			"byteLength":368,
			"byteOffset":23948,
			"target":34962
		},
		{
			"buffer":0,
			"byteLength":736,
			"byteOffset":24316,
			"target":34962
		},
		{
			"buffer":0,
			"byteLength":276,
			"byteOffset":25052,
			"target":34963
		}
	],
	"samplers":[
		{
			"magFilter":9729,
			"minFilter":9987
		}
	],
	"buffers":[
		{
			"byteLength":25328,
			"uri":"Cornice_Marble_90Angle_R.bin"
		}
	]
}
