{
	"asset":{
		"generator":"Khronos glTF Blender I/O v4.3.47",
		"version":"2.0"
	},
	"scene":0,
	"scenes":[
		{
			"name":"Scene",
			"nodes":[
				0
			]
		}
	],
	"nodes":[
		{
			"mesh":0,
			"name":"DoorFrame_Marble"
		}
	],
	"materials":[
		{
			"doubleSided":true,
			"name":"MI_Trim",
			"normalTexture":{
				"index":0
			},
			"pbrMetallicRoughness":{
				"baseColorTexture":{
					"index":1
				},
				"metallicRoughnessTexture":{
					"index":2
				}
			}
		},
		{
			"doubleSided":true,
			"name":"MI_Trim_MetalConcrete",
			"normalTexture":{
				"index":3
			},
			"pbrMetallicRoughness":{
				"baseColorTexture":{
					"index":4
				},
				"metallicRoughnessTexture":{
					"index":5
				}
			}
		},
		{
			"alphaMode":"BLEND",
			"doubleSided":true,
			"name":"MI_Glass",
			"pbrMetallicRoughness":{
				"baseColorFactor":[
					0.05215025693178177,
					0.05215025693178177,
					0.05215025693178177,
					0.586363673210144
				],
				"metallicFactor":0,
				"roughnessFactor":0.5
			}
		},
		{
			"doubleSided":true,
			"name":"MI_InteriorWall",
			"normalTexture":{
				"index":6
			},
			"pbrMetallicRoughness":{
				"baseColorTexture":{
					"index":7
				},
				"metallicRoughnessTexture":{
					"index":8
				}
			}
		}
	],
	"meshes":[
		{
			"name":"Cube.187",
			"primitives":[
				{
					"attributes":{
						"POSITION":0,
						"NORMAL":1,
						"TEXCOORD_0":2,
						"TEXCOORD_1":3,
						"COLOR_0":4,
						"COLOR_1":5
					},
					"indices":6,
					"material":0
				},
				{
					"attributes":{
						"POSITION":7,
						"NORMAL":8,
						"TEXCOORD_0":9,
						"TEXCOORD_1":10,
						"COLOR_0":11,
						"COLOR_1":12
					},
					"indices":13,
					"material":1
				},
				{
					"attributes":{
						"POSITION":14,
						"NORMAL":15,
						"TEXCOORD_0":16,
						"TEXCOORD_1":17,
						"COLOR_0":18,
						"COLOR_1":19
					},
					"indices":20,
					"material":2
				},
				{
					"attributes":{
						"POSITION":21,
						"NORMAL":22,
						"TEXCOORD_0":23,
						"TEXCOORD_1":24,
						"COLOR_0":25,
						"COLOR_1":26
					},
					"indices":27,
					"material":3
				}
			]
		}
	],
	"textures":[
		{
			"sampler":0,
			"source":0
		},
		{
			"sampler":0,
			"source":1
		},
		{
			"sampler":0,
			"source":2
		},
		{
			"sampler":0,
			"source":3
		},
		{
			"sampler":0,
			"source":4
		},
		{
			"sampler":0,
			"source":5
		},
		{
			"sampler":0,
			"source":6
		},
		{
			"sampler":0,
			"source":7
		},
		{
			"sampler":0,
			"source":8
		}
	],
	"images":[
		{
			"mimeType":"image/png",
			"name":"T_Trim_Normal",
			"uri":"T_Trim_Normal.png"
		},
		{
			"mimeType":"image/png",
			"name":"T_Trim_BaseColor",
			"uri":"T_Trim_BaseColor.png"
		},
		{
			"mimeType":"image/png",
			"name":"T_Trim_ORM",
			"uri":"T_Trim_ORM.png"
		},
		{
			"mimeType":"image/png",
			"name":"T_MetalConcrete_Normal",
			"uri":"T_MetalConcrete_Normal.png"
		},
		{
			"mimeType":"image/png",
			"name":"T_MetalConcrete_BaseColor",
			"uri":"T_MetalConcrete_BaseColor.png"
		},
		{
			"mimeType":"image/png",
			"name":"T_MetalConcrete_ORM",
			"uri":"T_MetalConcrete_ORM.png"
		},
		{
			"mimeType":"image/png",
			"name":"T_RedBrick_Normal",
			"uri":"T_RedBrick_Normal.png"
		},
		{
			"mimeType":"image/png",
			"name":"T_RedBrick_BaseColor",
			"uri":"T_RedBrick_BaseColor.png"
		},
		{
			"mimeType":"image/png",
			"name":"T_RedBrick_ORM",
			"uri":"T_RedBrick_ORM.png"
		}
	],
	"accessors":[
		{
			"bufferView":0,
			"componentType":5126,
			"count":129,
			"max":[
				2,
				4,
				0.030000070109963417
			],
			"min":[
				-2,
				-2.809779964252357e-09,
				-0.188253253698349
			],
			"type":"VEC3"
		},
		{
			"bufferView":1,
			"componentType":5126,
			"count":129,
			"type":"VEC3"
		},
		{
			"bufferView":2,
			"componentType":5126,
			"count":129,
			"type":"VEC2"
		},
		{
			"bufferView":3,
			"componentType":5126,
			"count":129,
			"type":"VEC2"
		},
		{
			"bufferView":4,
			"componentType":5121,
			"count":129,
			"normalized":true,
			"type":"VEC4"
		},
		{
			"bufferView":5,
			"componentType":5123,
			"count":129,
			"normalized":true,
			"type":"VEC4"
		},
		{
			"bufferView":6,
			"componentType":5123,
			"count":288,
			"type":"SCALAR"
		},
		{
			"bufferView":7,
			"componentType":5126,
			"count":412,
			"max":[
				1.4028234481811523,
				3.8087286949157715,
				-0.06575538218021393
			],
			"min":[
				-1.4028234481811523,
				0,
				-0.30051732063293457
			],
			"type":"VEC3"
		},
		{
			"bufferView":8,
			"componentType":5126,
			"count":412,
			"type":"VEC3"
		},
		{
			"bufferView":9,
			"componentType":5126,
			"count":412,
			"type":"VEC2"
		},
		{
			"bufferView":10,
			"componentType":5126,
			"count":412,
			"type":"VEC2"
		},
		{
			"bufferView":11,
			"componentType":5121,
			"count":412,
			"normalized":true,
			"type":"VEC4"
		},
		{
			"bufferView":12,
			"componentType":5123,
			"count":412,
			"normalized":true,
			"type":"VEC4"
		},
		{
			"bufferView":13,
			"componentType":5123,
			"count":858,
			"type":"SCALAR"
		},
		{
			"bufferView":14,
			"componentType":5126,
			"count":48,
			"max":[
				1.3472819328308105,
				3.749147415161133,
				-0.18240390717983246
			],
			"min":[
				-1.3472819328308105,
				0.0555415153503418,
				-0.18386878073215485
			],
			"type":"VEC3"
		},
		{
			"bufferView":15,
			"componentType":5126,
			"count":48,
			"type":"VEC3"
		},
		{
			"bufferView":16,
			"componentType":5126,
			"count":48,
			"type":"VEC2"
		},
		{
			"bufferView":17,
			"componentType":5126,
			"count":48,
			"type":"VEC2"
		},
		{
			"bufferView":18,
			"componentType":5121,
			"count":48,
			"normalized":true,
			"type":"VEC4"
		},
		{
			"bufferView":19,
			"componentType":5123,
			"count":48,
			"normalized":true,
			"type":"VEC4"
		},
		{
			"bufferView":20,
			"componentType":5123,
			"count":96,
			"type":"SCALAR"
		},
		{
			"bufferView":21,
			"componentType":5126,
			"count":24,
			"max":[
				2,
				4.000000476837158,
				-0.2000000923871994
			],
			"min":[
				-2,
				0,
				-0.2000000923871994
			],
			"type":"VEC3"
		},
		{
			"bufferView":22,
			"componentType":5126,
			"count":24,
			"type":"VEC3"
		},
		{
			"bufferView":23,
			"componentType":5126,
			"count":24,
			"type":"VEC2"
		},
		{
			"bufferView":24,
			"componentType":5126,
			"count":24,
			"type":"VEC2"
		},
		{
			"bufferView":25,
			"componentType":5121,
			"count":24,
			"normalized":true,
			"type":"VEC4"
		},
		{
			"bufferView":26,
			"componentType":5123,
			"count":24,
			"normalized":true,
			"type":"VEC4"
		},
		{
			"bufferView":27,
			"componentType":5123,
			"count":48,
			"type":"SCALAR"
		}
	],
	"bufferViews":[
		{
			"buffer":0,
			"byteLength":1548,
			"byteOffset":0,
			"target":34962
		},
		{
			"buffer":0,
			"byteLength":1548,
			"byteOffset":1548,
			"target":34962
		},
		{
			"buffer":0,
			"byteLength":1032,
			"byteOffset":3096,
			"target":34962
		},
		{
			"buffer":0,
			"byteLength":1032,
			"byteOffset":4128,
			"target":34962
		},
		{
			"buffer":0,
			"byteLength":516,
			"byteOffset":5160,
			"target":34962
		},
		{
			"buffer":0,
			"byteLength":1032,
			"byteOffset":5676,
			"target":34962
		},
		{
			"buffer":0,
			"byteLength":576,
			"byteOffset":6708,
			"target":34963
		},
		{
			"buffer":0,
			"byteLength":4944,
			"byteOffset":7284,
			"target":34962
		},
		{
			"buffer":0,
			"byteLength":4944,
			"byteOffset":12228,
			"target":34962
		},
		{
			"buffer":0,
			"byteLength":3296,
			"byteOffset":17172,
			"target":34962
		},
		{
			"buffer":0,
			"byteLength":3296,
			"byteOffset":20468,
			"target":34962
		},
		{
			"buffer":0,
			"byteLength":1648,
			"byteOffset":23764,
			"target":34962
		},
		{
			"buffer":0,
			"byteLength":3296,
			"byteOffset":25412,
			"target":34962
		},
		{
			"buffer":0,
			"byteLength":1716,
			"byteOffset":28708,
			"target":34963
		},
		{
			"buffer":0,
			"byteLength":576,
			"byteOffset":30424,
			"target":34962
		},
		{
			"buffer":0,
			"byteLength":576,
			"byteOffset":31000,
			"target":34962
		},
		{
			"buffer":0,
			"byteLength":384,
			"byteOffset":31576,
			"target":34962
		},
		{
			"buffer":0,
			"byteLength":384,
			"byteOffset":31960,
			"target":34962
		},
		{
			"buffer":0,
			"byteLength":192,
			"byteOffset":32344,
			"target":34962
		},
		{
			"buffer":0,
			"byteLength":384,
			"byteOffset":32536,
			"target":34962
		},
		{
			"buffer":0,
			"byteLength":192,
			"byteOffset":32920,
			"target":34963
		},
		{
			"buffer":0,
			"byteLength":288,
			"byteOffset":33112,
			"target":34962
		},
		{
			"buffer":0,
			"byteLength":288,
			"byteOffset":33400,
			"target":34962
		},
		{
			"buffer":0,
			"byteLength":192,
			"byteOffset":33688,
			"target":34962
		},
		{
			"buffer":0,
			"byteLength":192,
			"byteOffset":33880,
			"target":34962
		},
		{
			"buffer":0,
			"byteLength":96,
			"byteOffset":34072,
			"target":34962
		},
		{
			"buffer":0,
			"byteLength":192,
			"byteOffset":34168,
			"target":34962
		},
		{
			"buffer":0,
			"byteLength":96,
			"byteOffset":34360,
			"target":34963
		}
	],
	"samplers":[
		{
			"magFilter":9729,
			"minFilter":9987
		}
	],
	"buffers":[
		{
			"byteLength":34456,
			"uri":"DoorFrame_Marble.bin"
		}
	]
}
