{
	"asset":{
		"generator":"Khronos glTF Blender I/O v4.3.47",
		"version":"2.0"
	},
	"scene":0,
	"scenes":[
		{
			"name":"Scene",
			"nodes":[
				0
			]
		}
	],
	"nodes":[
		{
			"mesh":0,
			"name":"Door_4"
		}
	],
	"materials":[
		{
			"doubleSided":true,
			"name":"MI_Trim",
			"normalTexture":{
				"index":0
			},
			"pbrMetallicRoughness":{
				"baseColorTexture":{
					"index":1
				},
				"metallicRoughnessTexture":{
					"index":2
				}
			}
		},
		{
			"doubleSided":true,
			"name":"MI_Trim_MetalConcrete",
			"normalTexture":{
				"index":3
			},
			"pbrMetallicRoughness":{
				"baseColorTexture":{
					"index":4
				},
				"metallicRoughnessTexture":{
					"index":5
				}
			}
		}
	],
	"meshes":[
		{
			"name":"Cube.117",
			"primitives":[
				{
					"attributes":{
						"POSITION":0,
						"NORMAL":1,
						"TEXCOORD_0":2,
						"TEXCOORD_1":3
					},
					"indices":4,
					"material":0
				},
				{
					"attributes":{
						"POSITION":5,
						"NORMAL":6,
						"TEXCOORD_0":7,
						"TEXCOORD_1":8
					},
					"indices":9,
					"material":1
				}
			]
		}
	],
	"textures":[
		{
			"sampler":0,
			"source":0
		},
		{
			"sampler":0,
			"source":1
		},
		{
			"sampler":0,
			"source":2
		},
		{
			"sampler":0,
			"source":3
		},
		{
			"sampler":0,
			"source":4
		},
		{
			"sampler":0,
			"source":5
		}
	],
	"images":[
		{
			"mimeType":"image/png",
			"name":"T_Trim_Normal",
			"uri":"T_Trim_Normal.png"
		},
		{
			"mimeType":"image/png",
			"name":"T_Trim_BaseColor",
			"uri":"T_Trim_BaseColor.png"
		},
		{
			"mimeType":"image/png",
			"name":"T_Trim_ORM",
			"uri":"T_Trim_ORM.png"
		},
		{
			"mimeType":"image/png",
			"name":"T_MetalConcrete_Normal",
			"uri":"T_MetalConcrete_Normal.png"
		},
		{
			"mimeType":"image/png",
			"name":"T_MetalConcrete_BaseColor",
			"uri":"T_MetalConcrete_BaseColor.png"
		},
		{
			"mimeType":"image/png",
			"name":"T_MetalConcrete_ORM",
			"uri":"T_MetalConcrete_ORM.png"
		}
	],
	"accessors":[
		{
			"bufferView":0,
			"componentType":5126,
			"count":534,
			"max":[
				0,
				2.1999998092651367,
				0.08064346015453339
			],
			"min":[
				-0.9999997615814209,
				0,
				-0.08064346015453339
			],
			"type":"VEC3"
		},
		{
			"bufferView":1,
			"componentType":5126,
			"count":534,
			"type":"VEC3"
		},
		{
			"bufferView":2,
			"componentType":5126,
			"count":534,
			"type":"VEC2"
		},
		{
			"bufferView":3,
			"componentType":5126,
			"count":534,
			"type":"VEC2"
		},
		{
			"bufferView":4,
			"componentType":5123,
			"count":1068,
			"type":"SCALAR"
		},
		{
			"bufferView":5,
			"componentType":5126,
			"count":480,
			"max":[
				-0.8953543901443481,
				1.0647205114364624,
				0.13043706119060516
			],
			"min":[
				-0.9857416749000549,
				0.7874065637588501,
				-0.13043706119060516
			],
			"type":"VEC3"
		},
		{
			"bufferView":6,
			"componentType":5126,
			"count":480,
			"type":"VEC3"
		},
		{
			"bufferView":7,
			"componentType":5126,
			"count":480,
			"type":"VEC2"
		},
		{
			"bufferView":8,
			"componentType":5126,
			"count":480,
			"type":"VEC2"
		},
		{
			"bufferView":9,
			"componentType":5123,
			"count":1440,
			"type":"SCALAR"
		}
	],
	"bufferViews":[
		{
			"buffer":0,
			"byteLength":6408,
			"byteOffset":0,
			"target":34962
		},
		{
			"buffer":0,
			"byteLength":6408,
			"byteOffset":6408,
			"target":34962
		},
		{
			"buffer":0,
			"byteLength":4272,
			"byteOffset":12816,
			"target":34962
		},
		{
			"buffer":0,
			"byteLength":4272,
			"byteOffset":17088,
			"target":34962
		},
		{
			"buffer":0,
			"byteLength":2136,
			"byteOffset":21360,
			"target":34963
		},
		{
			"buffer":0,
			"byteLength":5760,
			"byteOffset":23496,
			"target":34962
		},
		{
			"buffer":0,
			"byteLength":5760,
			"byteOffset":29256,
			"target":34962
		},
		{
			"buffer":0,
			"byteLength":3840,
			"byteOffset":35016,
			"target":34962
		},
		{
			"buffer":0,
			"byteLength":3840,
			"byteOffset":38856,
			"target":34962
		},
		{
			"buffer":0,
			"byteLength":2880,
			"byteOffset":42696,
			"target":34963
		}
	],
	"samplers":[
		{
			"magFilter":9729,
			"minFilter":9987
		}
	],
	"buffers":[
		{
			"byteLength":45576,
			"uri":"Door_4.bin"
		}
	]
}
