{
	"asset":{
		"generator":"Khronos glTF Blender I/O v4.3.47",
		"version":"2.0"
	},
	"scene":0,
	"scenes":[
		{
			"name":"Scene",
			"nodes":[
				0
			]
		}
	],
	"nodes":[
		{
			"mesh":0,
			"name":"DoorFrame_WhiteBrick"
		}
	],
	"materials":[
		{
			"doubleSided":true,
			"name":"MI_Trim_MetalConcrete",
			"normalTexture":{
				"index":0
			},
			"pbrMetallicRoughness":{
				"baseColorTexture":{
					"index":1
				},
				"metallicRoughnessTexture":{
					"index":2
				}
			}
		},
		{
			"alphaMode":"BLEND",
			"doubleSided":true,
			"name":"MI_Glass",
			"pbrMetallicRoughness":{
				"baseColorFactor":[
					0.05215025693178177,
					0.05215025693178177,
					0.05215025693178177,
					0.586363673210144
				],
				"metallicFactor":0,
				"roughnessFactor":0.5
			}
		},
		{
			"doubleSided":true,
			"name":"MI_WhiteBrick",
			"normalTexture":{
				"index":3
			},
			"pbrMetallicRoughness":{
				"baseColorTexture":{
					"index":4
				},
				"metallicRoughnessTexture":{
					"index":5
				}
			}
		},
		{
			"doubleSided":true,
			"name":"MI_InteriorWall",
			"normalTexture":{
				"index":6
			},
			"pbrMetallicRoughness":{
				"baseColorTexture":{
					"index":7
				},
				"metallicRoughnessTexture":{
					"index":8
				}
			}
		}
	],
	"meshes":[
		{
			"name":"Cube.209",
			"primitives":[
				{
					"attributes":{
						"POSITION":0,
						"NORMAL":1,
						"TEXCOORD_0":2,
						"TEXCOORD_1":3,
						"COLOR_0":4,
						"COLOR_1":5
					},
					"indices":6,
					"material":0
				},
				{
					"attributes":{
						"POSITION":7,
						"NORMAL":8,
						"TEXCOORD_0":9,
						"TEXCOORD_1":10,
						"COLOR_0":11,
						"COLOR_1":12
					},
					"indices":13,
					"material":1
				},
				{
					"attributes":{
						"POSITION":14,
						"NORMAL":15,
						"TEXCOORD_0":16,
						"TEXCOORD_1":17,
						"COLOR_0":18,
						"COLOR_1":19
					},
					"indices":20,
					"material":2
				},
				{
					"attributes":{
						"POSITION":21,
						"NORMAL":22,
						"TEXCOORD_0":23,
						"TEXCOORD_1":24,
						"COLOR_0":25,
						"COLOR_1":26
					},
					"indices":27,
					"material":3
				}
			]
		}
	],
	"textures":[
		{
			"sampler":0,
			"source":0
		},
		{
			"sampler":0,
			"source":1
		},
		{
			"sampler":0,
			"source":2
		},
		{
			"sampler":0,
			"source":3
		},
		{
			"sampler":0,
			"source":4
		},
		{
			"sampler":0,
			"source":5
		},
		{
			"sampler":0,
			"source":6
		},
		{
			"sampler":0,
			"source":7
		},
		{
			"sampler":0,
			"source":8
		}
	],
	"images":[
		{
			"mimeType":"image/png",
			"name":"T_MetalConcrete_Normal",
			"uri":"T_MetalConcrete_Normal.png"
		},
		{
			"mimeType":"image/png",
			"name":"T_MetalConcrete_BaseColor",
			"uri":"T_MetalConcrete_BaseColor.png"
		},
		{
			"mimeType":"image/png",
			"name":"T_MetalConcrete_ORM",
			"uri":"T_MetalConcrete_ORM.png"
		},
		{
			"mimeType":"image/png",
			"name":"T_WhiteBrick_Normal",
			"uri":"T_WhiteBrick_Normal.png"
		},
		{
			"mimeType":"image/png",
			"name":"T_WhiteBrick_BaseColor",
			"uri":"T_WhiteBrick_BaseColor.png"
		},
		{
			"mimeType":"image/png",
			"name":"T_WhiteBrick_ORM",
			"uri":"T_WhiteBrick_ORM.png"
		},
		{
			"mimeType":"image/png",
			"name":"T_RedBrick_Normal",
			"uri":"T_RedBrick_Normal.png"
		},
		{
			"mimeType":"image/png",
			"name":"T_RedBrick_BaseColor",
			"uri":"T_RedBrick_BaseColor.png"
		},
		{
			"mimeType":"image/png",
			"name":"T_RedBrick_ORM",
			"uri":"T_RedBrick_ORM.png"
		}
	],
	"accessors":[
		{
			"bufferView":0,
			"componentType":5126,
			"count":458,
			"max":[
				1,
				3.249999761581421,
				-0.0499999076128006
			],
			"min":[
				-1,
				0,
				-0.24438214302062988
			],
			"type":"VEC3"
		},
		{
			"bufferView":1,
			"componentType":5126,
			"count":458,
			"type":"VEC3"
		},
		{
			"bufferView":2,
			"componentType":5126,
			"count":458,
			"type":"VEC2"
		},
		{
			"bufferView":3,
			"componentType":5126,
			"count":458,
			"type":"VEC2"
		},
		{
			"bufferView":4,
			"componentType":5121,
			"count":458,
			"normalized":true,
			"type":"VEC4"
		},
		{
			"bufferView":5,
			"componentType":5123,
			"count":458,
			"normalized":true,
			"type":"VEC4"
		},
		{
			"bufferView":6,
			"componentType":5123,
			"count":882,
			"type":"SCALAR"
		},
		{
			"bufferView":7,
			"componentType":5126,
			"count":13,
			"max":[
				0.9122143983840942,
				2.447681427001953,
				-0.13533177971839905
			],
			"min":[
				-0.9122143983840942,
				0.05869913101196289,
				-0.13533177971839905
			],
			"type":"VEC3"
		},
		{
			"bufferView":8,
			"componentType":5126,
			"count":13,
			"type":"VEC3"
		},
		{
			"bufferView":9,
			"componentType":5126,
			"count":13,
			"type":"VEC2"
		},
		{
			"bufferView":10,
			"componentType":5126,
			"count":13,
			"type":"VEC2"
		},
		{
			"bufferView":11,
			"componentType":5121,
			"count":13,
			"normalized":true,
			"type":"VEC4"
		},
		{
			"bufferView":12,
			"componentType":5123,
			"count":13,
			"normalized":true,
			"type":"VEC4"
		},
		{
			"bufferView":13,
			"componentType":5123,
			"count":21,
			"type":"SCALAR"
		},
		{
			"bufferView":14,
			"componentType":5126,
			"count":8,
			"max":[
				1.0021580457687378,
				4,
				1.3113415775478643e-07
			],
			"min":[
				-1,
				3.246425151824951,
				-0.08153998851776123
			],
			"type":"VEC3"
		},
		{
			"bufferView":15,
			"componentType":5126,
			"count":8,
			"type":"VEC3"
		},
		{
			"bufferView":16,
			"componentType":5126,
			"count":8,
			"type":"VEC2"
		},
		{
			"bufferView":17,
			"componentType":5126,
			"count":8,
			"type":"VEC2"
		},
		{
			"bufferView":18,
			"componentType":5121,
			"count":8,
			"normalized":true,
			"type":"VEC4"
		},
		{
			"bufferView":19,
			"componentType":5123,
			"count":8,
			"normalized":true,
			"type":"VEC4"
		},
		{
			"bufferView":20,
			"componentType":5123,
			"count":12,
			"type":"SCALAR"
		},
		{
			"bufferView":21,
			"componentType":5126,
			"count":4,
			"max":[
				1,
				4.000000476837158,
				-0.2000000923871994
			],
			"min":[
				-1,
				2.457792282104492,
				-0.2000000923871994
			],
			"type":"VEC3"
		},
		{
			"bufferView":22,
			"componentType":5126,
			"count":4,
			"type":"VEC3"
		},
		{
			"bufferView":23,
			"componentType":5126,
			"count":4,
			"type":"VEC2"
		},
		{
			"bufferView":24,
			"componentType":5126,
			"count":4,
			"type":"VEC2"
		},
		{
			"bufferView":25,
			"componentType":5121,
			"count":4,
			"normalized":true,
			"type":"VEC4"
		},
		{
			"bufferView":26,
			"componentType":5123,
			"count":4,
			"normalized":true,
			"type":"VEC4"
		},
		{
			"bufferView":27,
			"componentType":5123,
			"count":6,
			"type":"SCALAR"
		}
	],
	"bufferViews":[
		{
			"buffer":0,
			"byteLength":5496,
			"byteOffset":0,
			"target":34962
		},
		{
			"buffer":0,
			"byteLength":5496,
			"byteOffset":5496,
			"target":34962
		},
		{
			"buffer":0,
			"byteLength":3664,
			"byteOffset":10992,
			"target":34962
		},
		{
			"buffer":0,
			"byteLength":3664,
			"byteOffset":14656,
			"target":34962
		},
		{
			"buffer":0,
			"byteLength":1832,
			"byteOffset":18320,
			"target":34962
		},
		{
			"buffer":0,
			"byteLength":3664,
			"byteOffset":20152,
			"target":34962
		},
		{
			"buffer":0,
			"byteLength":1764,
			"byteOffset":23816,
			"target":34963
		},
		{
			"buffer":0,
			"byteLength":156,
			"byteOffset":25580,
			"target":34962
		},
		{
			"buffer":0,
			"byteLength":156,
			"byteOffset":25736,
			"target":34962
		},
		{
			"buffer":0,
			"byteLength":104,
			"byteOffset":25892,
			"target":34962
		},
		{
			"buffer":0,
			"byteLength":104,
			"byteOffset":25996,
			"target":34962
		},
		{
			"buffer":0,
			"byteLength":52,
			"byteOffset":26100,
			"target":34962
		},
		{
			"buffer":0,
			"byteLength":104,
			"byteOffset":26152,
			"target":34962
		},
		{
			"buffer":0,
			"byteLength":42,
			"byteOffset":26256,
			"target":34963
		},
		{
			"buffer":0,
			"byteLength":96,
			"byteOffset":26300,
			"target":34962
		},
		{
			"buffer":0,
			"byteLength":96,
			"byteOffset":26396,
			"target":34962
		},
		{
			"buffer":0,
			"byteLength":64,
			"byteOffset":26492,
			"target":34962
		},
		{
			"buffer":0,
			"byteLength":64,
			"byteOffset":26556,
			"target":34962
		},
		{
			"buffer":0,
			"byteLength":32,
			"byteOffset":26620,
			"target":34962
		},
		{
			"buffer":0,
			"byteLength":64,
			"byteOffset":26652,
			"target":34962
		},
		{
			"buffer":0,
			"byteLength":24,
			"byteOffset":26716,
			"target":34963
		},
		{
			"buffer":0,
			"byteLength":48,
			"byteOffset":26740,
			"target":34962
		},
		{
			"buffer":0,
			"byteLength":48,
			"byteOffset":26788,
			"target":34962
		},
		{
			"buffer":0,
			"byteLength":32,
			"byteOffset":26836,
			"target":34962
		},
		{
			"buffer":0,
			"byteLength":32,
			"byteOffset":26868,
			"target":34962
		},
		{
			"buffer":0,
			"byteLength":16,
			"byteOffset":26900,
			"target":34962
		},
		{
			"buffer":0,
			"byteLength":32,
			"byteOffset":26916,
			"target":34962
		},
		{
			"buffer":0,
			"byteLength":12,
			"byteOffset":26948,
			"target":34963
		}
	],
	"samplers":[
		{
			"magFilter":9729,
			"minFilter":9987
		}
	],
	"buffers":[
		{
			"byteLength":26960,
			"uri":"DoorFrame_WhiteBrick.bin"
		}
	]
}
