{
	"asset":{
		"generator":"Khronos glTF Blender I/O v4.3.47",
		"version":"2.0"
	},
	"scene":0,
	"scenes":[
		{
			"name":"Scene",
			"nodes":[
				0
			]
		}
	],
	"nodes":[
		{
			"mesh":0,
			"name":"Marble_Window_Single"
		}
	],
	"materials":[
		{
			"doubleSided":true,
			"name":"MI_Trim_MetalConcrete",
			"normalTexture":{
				"index":0
			},
			"pbrMetallicRoughness":{
				"baseColorTexture":{
					"index":1
				},
				"metallicRoughnessTexture":{
					"index":2
				}
			}
		},
		{
			"alphaMode":"BLEND",
			"doubleSided":true,
			"name":"MI_Glass",
			"pbrMetallicRoughness":{
				"baseColorFactor":[
					0.05215025693178177,
					0.05215025693178177,
					0.05215025693178177,
					0.586363673210144
				],
				"metallicFactor":0,
				"roughnessFactor":0.5
			}
		},
		{
			"doubleSided":true,
			"name":"MI_Trim",
			"normalTexture":{
				"index":3
			},
			"pbrMetallicRoughness":{
				"baseColorTexture":{
					"index":4
				},
				"metallicRoughnessTexture":{
					"index":5
				}
			}
		},
		{
			"doubleSided":true,
			"name":"MI_FakeInterior",
			"pbrMetallicRoughness":{
				"baseColorFactor":[
					0.800000011920929,
					0.800000011920929,
					0.800000011920929,
					1
				],
				"metallicFactor":0,
				"roughnessFactor":0.5
			}
		},
		{
			"doubleSided":true,
			"name":"MI_InteriorWall",
			"normalTexture":{
				"index":6
			},
			"pbrMetallicRoughness":{
				"baseColorTexture":{
					"index":7
				},
				"metallicRoughnessTexture":{
					"index":8
				}
			}
		}
	],
	"meshes":[
		{
			"name":"Cube.222",
			"primitives":[
				{
					"attributes":{
						"POSITION":0,
						"NORMAL":1,
						"TEXCOORD_0":2,
						"TEXCOORD_1":3,
						"COLOR_0":4,
						"COLOR_1":5
					},
					"indices":6,
					"material":0
				},
				{
					"attributes":{
						"POSITION":7,
						"NORMAL":8,
						"TEXCOORD_0":9,
						"TEXCOORD_1":10,
						"COLOR_0":11,
						"COLOR_1":12
					},
					"indices":13,
					"material":1
				},
				{
					"attributes":{
						"POSITION":14,
						"NORMAL":15,
						"TEXCOORD_0":16,
						"TEXCOORD_1":17,
						"COLOR_0":18,
						"COLOR_1":19
					},
					"indices":20,
					"material":2
				},
				{
					"attributes":{
						"POSITION":21,
						"NORMAL":22,
						"TEXCOORD_0":23,
						"TEXCOORD_1":24,
						"COLOR_0":25,
						"COLOR_1":26
					},
					"indices":27,
					"material":3
				},
				{
					"attributes":{
						"POSITION":28,
						"NORMAL":29,
						"TEXCOORD_0":30,
						"TEXCOORD_1":31,
						"COLOR_0":32,
						"COLOR_1":33
					},
					"indices":34,
					"material":4
				}
			]
		}
	],
	"textures":[
		{
			"sampler":0,
			"source":0
		},
		{
			"sampler":0,
			"source":1
		},
		{
			"sampler":0,
			"source":2
		},
		{
			"sampler":0,
			"source":3
		},
		{
			"sampler":0,
			"source":4
		},
		{
			"sampler":0,
			"source":5
		},
		{
			"sampler":0,
			"source":6
		},
		{
			"sampler":0,
			"source":7
		},
		{
			"sampler":0,
			"source":8
		}
	],
	"images":[
		{
			"mimeType":"image/png",
			"name":"T_MetalConcrete_Normal",
			"uri":"T_MetalConcrete_Normal.png"
		},
		{
			"mimeType":"image/png",
			"name":"T_MetalConcrete_BaseColor",
			"uri":"T_MetalConcrete_BaseColor.png"
		},
		{
			"mimeType":"image/png",
			"name":"T_MetalConcrete_ORM",
			"uri":"T_MetalConcrete_ORM.png"
		},
		{
			"mimeType":"image/png",
			"name":"T_Trim_Normal",
			"uri":"T_Trim_Normal.png"
		},
		{
			"mimeType":"image/png",
			"name":"T_Trim_BaseColor",
			"uri":"T_Trim_BaseColor.png"
		},
		{
			"mimeType":"image/png",
			"name":"T_Trim_ORM",
			"uri":"T_Trim_ORM.png"
		},
		{
			"mimeType":"image/png",
			"name":"T_RedBrick_Normal",
			"uri":"T_RedBrick_Normal.png"
		},
		{
			"mimeType":"image/png",
			"name":"T_RedBrick_BaseColor",
			"uri":"T_RedBrick_BaseColor.png"
		},
		{
			"mimeType":"image/png",
			"name":"T_RedBrick_ORM",
			"uri":"T_RedBrick_ORM.png"
		}
	],
	"accessors":[
		{
			"bufferView":0,
			"componentType":5126,
			"count":220,
			"max":[
				0.3714212477207184,
				2.5159378051757812,
				-0.05162134766578674
			],
			"min":[
				-0.3648757040500641,
				0.5017309188842773,
				-0.2778746485710144
			],
			"type":"VEC3"
		},
		{
			"bufferView":1,
			"componentType":5126,
			"count":220,
			"type":"VEC3"
		},
		{
			"bufferView":2,
			"componentType":5126,
			"count":220,
			"type":"VEC2"
		},
		{
			"bufferView":3,
			"componentType":5126,
			"count":220,
			"type":"VEC2"
		},
		{
			"bufferView":4,
			"componentType":5121,
			"count":220,
			"normalized":true,
			"type":"VEC4"
		},
		{
			"bufferView":5,
			"componentType":5123,
			"count":220,
			"normalized":true,
			"type":"VEC4"
		},
		{
			"bufferView":6,
			"componentType":5123,
			"count":408,
			"type":"SCALAR"
		},
		{
			"bufferView":7,
			"componentType":5126,
			"count":12,
			"max":[
				0.307951956987381,
				2.46071195602417,
				-0.16474799811840057
			],
			"min":[
				-0.301406592130661,
				0.5646083354949951,
				-0.16474799811840057
			],
			"type":"VEC3"
		},
		{
			"bufferView":8,
			"componentType":5126,
			"count":12,
			"type":"VEC3"
		},
		{
			"bufferView":9,
			"componentType":5126,
			"count":12,
			"type":"VEC2"
		},
		{
			"bufferView":10,
			"componentType":5126,
			"count":12,
			"type":"VEC2"
		},
		{
			"bufferView":11,
			"componentType":5121,
			"count":12,
			"normalized":true,
			"type":"VEC4"
		},
		{
			"bufferView":12,
			"componentType":5123,
			"count":12,
			"normalized":true,
			"type":"VEC4"
		},
		{
			"bufferView":13,
			"componentType":5123,
			"count":24,
			"type":"SCALAR"
		},
		{
			"bufferView":14,
			"componentType":5126,
			"count":84,
			"max":[
				2,
				3,
				1.3113415775478643e-07
			],
			"min":[
				-2,
				0,
				-0.18446576595306396
			],
			"type":"VEC3"
		},
		{
			"bufferView":15,
			"componentType":5126,
			"count":84,
			"type":"VEC3"
		},
		{
			"bufferView":16,
			"componentType":5126,
			"count":84,
			"type":"VEC2"
		},
		{
			"bufferView":17,
			"componentType":5126,
			"count":84,
			"type":"VEC2"
		},
		{
			"bufferView":18,
			"componentType":5121,
			"count":84,
			"normalized":true,
			"type":"VEC4"
		},
		{
			"bufferView":19,
			"componentType":5123,
			"count":84,
			"normalized":true,
			"type":"VEC4"
		},
		{
			"bufferView":20,
			"componentType":5123,
			"count":168,
			"type":"SCALAR"
		},
		{
			"bufferView":21,
			"componentType":5126,
			"count":4,
			"max":[
				1.4260249137878418,
				2.8756752014160156,
				-0.1970006227493286
			],
			"min":[
				-1.4260249137878418,
				0.09556138515472412,
				-0.1970006227493286
			],
			"type":"VEC3"
		},
		{
			"bufferView":22,
			"componentType":5126,
			"count":4,
			"type":"VEC3"
		},
		{
			"bufferView":23,
			"componentType":5126,
			"count":4,
			"type":"VEC2"
		},
		{
			"bufferView":24,
			"componentType":5126,
			"count":4,
			"type":"VEC2"
		},
		{
			"bufferView":25,
			"componentType":5121,
			"count":4,
			"normalized":true,
			"type":"VEC4"
		},
		{
			"bufferView":26,
			"componentType":5123,
			"count":4,
			"normalized":true,
			"type":"VEC4"
		},
		{
			"bufferView":27,
			"componentType":5123,
			"count":6,
			"type":"SCALAR"
		},
		{
			"bufferView":28,
			"componentType":5126,
			"count":24,
			"max":[
				2,
				3.000000476837158,
				-0.2000000923871994
			],
			"min":[
				-2,
				0,
				-0.2000000923871994
			],
			"type":"VEC3"
		},
		{
			"bufferView":29,
			"componentType":5126,
			"count":24,
			"type":"VEC3"
		},
		{
			"bufferView":30,
			"componentType":5126,
			"count":24,
			"type":"VEC2"
		},
		{
			"bufferView":31,
			"componentType":5126,
			"count":24,
			"type":"VEC2"
		},
		{
			"bufferView":32,
			"componentType":5121,
			"count":24,
			"normalized":true,
			"type":"VEC4"
		},
		{
			"bufferView":33,
			"componentType":5123,
			"count":24,
			"normalized":true,
			"type":"VEC4"
		},
		{
			"bufferView":34,
			"componentType":5123,
			"count":60,
			"type":"SCALAR"
		}
	],
	"bufferViews":[
		{
			"buffer":0,
			"byteLength":2640,
			"byteOffset":0,
			"target":34962
		},
		{
			"buffer":0,
			"byteLength":2640,
			"byteOffset":2640,
			"target":34962
		},
		{
			"buffer":0,
			"byteLength":1760,
			"byteOffset":5280,
			"target":34962
		},
		{
			"buffer":0,
			"byteLength":1760,
			"byteOffset":7040,
			"target":34962
		},
		{
			"buffer":0,
			"byteLength":880,
			"byteOffset":8800,
			"target":34962
		},
		{
			"buffer":0,
			"byteLength":1760,
			"byteOffset":9680,
			"target":34962
		},
		{
			"buffer":0,
			"byteLength":816,
			"byteOffset":11440,
			"target":34963
		},
		{
			"buffer":0,
			"byteLength":144,
			"byteOffset":12256,
			"target":34962
		},
		{
			"buffer":0,
			"byteLength":144,
			"byteOffset":12400,
			"target":34962
		},
		{
			"buffer":0,
			"byteLength":96,
			"byteOffset":12544,
			"target":34962
		},
		{
			"buffer":0,
			"byteLength":96,
			"byteOffset":12640,
			"target":34962
		},
		{
			"buffer":0,
			"byteLength":48,
			"byteOffset":12736,
			"target":34962
		},
		{
			"buffer":0,
			"byteLength":96,
			"byteOffset":12784,
			"target":34962
		},
		{
			"buffer":0,
			"byteLength":48,
			"byteOffset":12880,
			"target":34963
		},
		{
			"buffer":0,
			"byteLength":1008,
			"byteOffset":12928,
			"target":34962
		},
		{
			"buffer":0,
			"byteLength":1008,
			"byteOffset":13936,
			"target":34962
		},
		{
			"buffer":0,
			"byteLength":672,
			"byteOffset":14944,
			"target":34962
		},
		{
			"buffer":0,
			"byteLength":672,
			"byteOffset":15616,
			"target":34962
		},
		{
			"buffer":0,
			"byteLength":336,
			"byteOffset":16288,
			"target":34962
		},
		{
			"buffer":0,
			"byteLength":672,
			"byteOffset":16624,
			"target":34962
		},
		{
			"buffer":0,
			"byteLength":336,
			"byteOffset":17296,
			"target":34963
		},
		{
			"buffer":0,
			"byteLength":48,
			"byteOffset":17632,
			"target":34962
		},
		{
			"buffer":0,
			"byteLength":48,
			"byteOffset":17680,
			"target":34962
		},
		{
			"buffer":0,
			"byteLength":32,
			"byteOffset":17728,
			"target":34962
		},
		{
			"buffer":0,
			"byteLength":32,
			"byteOffset":17760,
			"target":34962
		},
		{
			"buffer":0,
			"byteLength":16,
			"byteOffset":17792,
			"target":34962
		},
		{
			"buffer":0,
			"byteLength":32,
			"byteOffset":17808,
			"target":34962
		},
		{
			"buffer":0,
			"byteLength":12,
			"byteOffset":17840,
			"target":34963
		},
		{
			"buffer":0,
			"byteLength":288,
			"byteOffset":17852,
			"target":34962
		},
		{
			"buffer":0,
			"byteLength":288,
			"byteOffset":18140,
			"target":34962
		},
		{
			"buffer":0,
			"byteLength":192,
			"byteOffset":18428,
			"target":34962
		},
		{
			"buffer":0,
			"byteLength":192,
			"byteOffset":18620,
			"target":34962
		},
		{
			"buffer":0,
			"byteLength":96,
			"byteOffset":18812,
			"target":34962
		},
		{
			"buffer":0,
			"byteLength":192,
			"byteOffset":18908,
			"target":34962
		},
		{
			"buffer":0,
			"byteLength":120,
			"byteOffset":19100,
			"target":34963
		}
	],
	"samplers":[
		{
			"magFilter":9729,
			"minFilter":9987
		}
	],
	"buffers":[
		{
			"byteLength":19220,
			"uri":"Marble_Window_Single.bin"
		}
	]
}
