{
	"asset":{
		"generator":"Khronos glTF Blender I/O v4.3.47",
		"version":"2.0"
	},
	"scene":0,
	"scenes":[
		{
			"name":"Scene",
			"nodes":[
				0
			]
		}
	],
	"nodes":[
		{
			"mesh":0,
			"name":"Marble_Column_Large_Center"
		}
	],
	"materials":[
		{
			"doubleSided":true,
			"name":"MI_Trim",
			"normalTexture":{
				"index":0
			},
			"pbrMetallicRoughness":{
				"baseColorTexture":{
					"index":1
				},
				"metallicRoughnessTexture":{
					"index":2
				}
			}
		}
	],
	"meshes":[
		{
			"name":"Cube.653",
			"primitives":[
				{
					"attributes":{
						"POSITION":0,
						"NORMAL":1,
						"TEXCOORD_0":2,
						"TEXCOORD_1":3
					},
					"indices":4,
					"material":0
				}
			]
		}
	],
	"textures":[
		{
			"sampler":0,
			"source":0
		},
		{
			"sampler":0,
			"source":1
		},
		{
			"sampler":0,
			"source":2
		}
	],
	"images":[
		{
			"mimeType":"image/png",
			"name":"T_Trim_Normal",
			"uri":"T_Trim_Normal.png"
		},
		{
			"mimeType":"image/png",
			"name":"T_Trim_BaseColor",
			"uri":"T_Trim_BaseColor.png"
		},
		{
			"mimeType":"image/png",
			"name":"T_Trim_ORM",
			"uri":"T_Trim_ORM.png"
		}
	],
	"accessors":[
		{
			"bufferView":0,
			"componentType":5126,
			"count":392,
			"max":[
				0.6957266330718994,
				3.999999761581421,
				0.6957266330718994
			],
			"min":[
				-0.6957266330718994,
				0,
				-0.6957266330718994
			],
			"type":"VEC3"
		},
		{
			"bufferView":1,
			"componentType":5126,
			"count":392,
			"type":"VEC3"
		},
		{
			"bufferView":2,
			"componentType":5126,
			"count":392,
			"type":"VEC2"
		},
		{
			"bufferView":3,
			"componentType":5126,
			"count":392,
			"type":"VEC2"
		},
		{
			"bufferView":4,
			"componentType":5123,
			"count":636,
			"type":"SCALAR"
		}
	],
	"bufferViews":[
		{
			"buffer":0,
			"byteLength":4704,
			"byteOffset":0,
			"target":34962
		},
		{
			"buffer":0,
			"byteLength":4704,
			"byteOffset":4704,
			"target":34962
		},
		{
			"buffer":0,
			"byteLength":3136,
			"byteOffset":9408,
			"target":34962
		},
		{
			"buffer":0,
			"byteLength":3136,
			"byteOffset":12544,
			"target":34962
		},
		{
			"buffer":0,
			"byteLength":1272,
			"byteOffset":15680,
			"target":34963
		}
	],
	"samplers":[
		{
			"magFilter":9729,
			"minFilter":9987
		}
	],
	"buffers":[
		{
			"byteLength":16952,
			"uri":"Marble_Column_Large_Center.bin"
		}
	]
}
