{
	"asset":{
		"generator":"Khronos glTF Blender I/O v4.3.47",
		"version":"2.0"
	},
	"scene":0,
	"scenes":[
		{
			"name":"Scene",
			"nodes":[
				0
			]
		}
	],
	"nodes":[
		{
			"mesh":0,
			"name":"Marble_Column_Large_Top"
		}
	],
	"materials":[
		{
			"doubleSided":true,
			"name":"MI_Trim",
			"normalTexture":{
				"index":0
			},
			"pbrMetallicRoughness":{
				"baseColorTexture":{
					"index":1
				},
				"metallicRoughnessTexture":{
					"index":2
				}
			}
		},
		{
			"doubleSided":true,
			"name":"MI_Ornaments",
			"normalTexture":{
				"index":3
			},
			"pbrMetallicRoughness":{
				"baseColorTexture":{
					"index":4
				},
				"metallicRoughnessTexture":{
					"index":5
				}
			}
		}
	],
	"meshes":[
		{
			"name":"Cube.087",
			"primitives":[
				{
					"attributes":{
						"POSITION":0,
						"NORMAL":1,
						"TEXCOORD_0":2,
						"TEXCOORD_1":3
					},
					"indices":4,
					"material":0
				},
				{
					"attributes":{
						"POSITION":5,
						"NORMAL":6,
						"TEXCOORD_0":7,
						"TEXCOORD_1":8
					},
					"indices":9,
					"material":1
				}
			]
		}
	],
	"textures":[
		{
			"sampler":0,
			"source":0
		},
		{
			"sampler":0,
			"source":1
		},
		{
			"sampler":0,
			"source":2
		},
		{
			"sampler":0,
			"source":3
		},
		{
			"sampler":0,
			"source":4
		},
		{
			"sampler":0,
			"source":5
		}
	],
	"images":[
		{
			"mimeType":"image/png",
			"name":"T_Trim_Normal",
			"uri":"T_Trim_Normal.png"
		},
		{
			"mimeType":"image/png",
			"name":"T_Trim_BaseColor",
			"uri":"T_Trim_BaseColor.png"
		},
		{
			"mimeType":"image/png",
			"name":"T_Trim_ORM",
			"uri":"T_Trim_ORM.png"
		},
		{
			"mimeType":"image/png",
			"name":"T_Ornaments_Normal",
			"uri":"T_Ornaments_Normal.png"
		},
		{
			"mimeType":"image/png",
			"name":"T_Ornaments_BaseColor",
			"uri":"T_Ornaments_BaseColor.png"
		},
		{
			"mimeType":"image/png",
			"name":"T_Ornaments_ORM",
			"uri":"T_Ornaments_ORM.png"
		}
	],
	"accessors":[
		{
			"bufferView":0,
			"componentType":5126,
			"count":506,
			"max":[
				0.9332035183906555,
				4.000000476837158,
				0.9332031607627869
			],
			"min":[
				-0.9332029223442078,
				-1.7523120732221287e-07,
				-0.9332032799720764
			],
			"type":"VEC3"
		},
		{
			"bufferView":1,
			"componentType":5126,
			"count":506,
			"type":"VEC3"
		},
		{
			"bufferView":2,
			"componentType":5126,
			"count":506,
			"type":"VEC2"
		},
		{
			"bufferView":3,
			"componentType":5126,
			"count":506,
			"type":"VEC2"
		},
		{
			"bufferView":4,
			"componentType":5123,
			"count":876,
			"type":"SCALAR"
		},
		{
			"bufferView":5,
			"componentType":5126,
			"count":16,
			"max":[
				0.6678837537765503,
				3.5521249771118164,
				0.6752316355705261
			],
			"min":[
				-0.6678842306137085,
				3.131718158721924,
				-0.6752319931983948
			],
			"type":"VEC3"
		},
		{
			"bufferView":6,
			"componentType":5126,
			"count":16,
			"type":"VEC3"
		},
		{
			"bufferView":7,
			"componentType":5126,
			"count":16,
			"type":"VEC2"
		},
		{
			"bufferView":8,
			"componentType":5126,
			"count":16,
			"type":"VEC2"
		},
		{
			"bufferView":9,
			"componentType":5123,
			"count":24,
			"type":"SCALAR"
		}
	],
	"bufferViews":[
		{
			"buffer":0,
			"byteLength":6072,
			"byteOffset":0,
			"target":34962
		},
		{
			"buffer":0,
			"byteLength":6072,
			"byteOffset":6072,
			"target":34962
		},
		{
			"buffer":0,
			"byteLength":4048,
			"byteOffset":12144,
			"target":34962
		},
		{
			"buffer":0,
			"byteLength":4048,
			"byteOffset":16192,
			"target":34962
		},
		{
			"buffer":0,
			"byteLength":1752,
			"byteOffset":20240,
			"target":34963
		},
		{
			"buffer":0,
			"byteLength":192,
			"byteOffset":21992,
			"target":34962
		},
		{
			"buffer":0,
			"byteLength":192,
			"byteOffset":22184,
			"target":34962
		},
		{
			"buffer":0,
			"byteLength":128,
			"byteOffset":22376,
			"target":34962
		},
		{
			"buffer":0,
			"byteLength":128,
			"byteOffset":22504,
			"target":34962
		},
		{
			"buffer":0,
			"byteLength":48,
			"byteOffset":22632,
			"target":34963
		}
	],
	"samplers":[
		{
			"magFilter":9729,
			"minFilter":9987
		}
	],
	"buffers":[
		{
			"byteLength":22680,
			"uri":"Marble_Column_Large_Top.bin"
		}
	]
}
