{
	"asset":{
		"generator":"Khronos glTF Blender I/O v4.3.47",
		"version":"2.0"
	},
	"scene":0,
	"scenes":[
		{
			"name":"Scene",
			"nodes":[
				0
			]
		}
	],
	"nodes":[
		{
			"mesh":0,
			"name":"Marble_WindowTriple"
		}
	],
	"materials":[
		{
			"doubleSided":true,
			"name":"MI_Trim",
			"normalTexture":{
				"index":0
			},
			"pbrMetallicRoughness":{
				"baseColorTexture":{
					"index":1
				},
				"metallicRoughnessTexture":{
					"index":2
				}
			}
		},
		{
			"doubleSided":true,
			"name":"MI_Trim_MetalConcrete",
			"normalTexture":{
				"index":3
			},
			"pbrMetallicRoughness":{
				"baseColorTexture":{
					"index":4
				},
				"metallicRoughnessTexture":{
					"index":5
				}
			}
		},
		{
			"alphaMode":"BLEND",
			"doubleSided":true,
			"name":"MI_Glass",
			"pbrMetallicRoughness":{
				"baseColorFactor":[
					0.05215025693178177,
					0.05215025693178177,
					0.05215025693178177,
					0.586363673210144
				],
				"metallicFactor":0,
				"roughnessFactor":0.5
			}
		},
		{
			"doubleSided":true,
			"name":"MI_Ornaments",
			"normalTexture":{
				"index":6
			},
			"pbrMetallicRoughness":{
				"baseColorTexture":{
					"index":7
				},
				"metallicRoughnessTexture":{
					"index":8
				}
			}
		},
		{
			"doubleSided":true,
			"name":"MI_FakeInterior",
			"pbrMetallicRoughness":{
				"baseColorFactor":[
					0.800000011920929,
					0.800000011920929,
					0.800000011920929,
					1
				],
				"metallicFactor":0,
				"roughnessFactor":0.5
			}
		},
		{
			"doubleSided":true,
			"name":"MI_InteriorWall",
			"normalTexture":{
				"index":9
			},
			"pbrMetallicRoughness":{
				"baseColorTexture":{
					"index":10
				},
				"metallicRoughnessTexture":{
					"index":11
				}
			}
		}
	],
	"meshes":[
		{
			"name":"Cube.033",
			"primitives":[
				{
					"attributes":{
						"POSITION":0,
						"NORMAL":1,
						"TEXCOORD_0":2,
						"TEXCOORD_1":3,
						"COLOR_0":4
					},
					"indices":5,
					"material":0
				},
				{
					"attributes":{
						"POSITION":6,
						"NORMAL":7,
						"TEXCOORD_0":8,
						"TEXCOORD_1":9,
						"COLOR_0":10
					},
					"indices":11,
					"material":1
				},
				{
					"attributes":{
						"POSITION":12,
						"NORMAL":13,
						"TEXCOORD_0":14,
						"TEXCOORD_1":15,
						"COLOR_0":16
					},
					"indices":17,
					"material":2
				},
				{
					"attributes":{
						"POSITION":18,
						"NORMAL":19,
						"TEXCOORD_0":20,
						"TEXCOORD_1":21,
						"COLOR_0":22
					},
					"indices":23,
					"material":3
				},
				{
					"attributes":{
						"POSITION":24,
						"NORMAL":25,
						"TEXCOORD_0":26,
						"TEXCOORD_1":27,
						"COLOR_0":28
					},
					"indices":29,
					"material":4
				},
				{
					"attributes":{
						"POSITION":30,
						"NORMAL":31,
						"TEXCOORD_0":32,
						"TEXCOORD_1":33,
						"COLOR_0":34
					},
					"indices":35,
					"material":5
				}
			]
		}
	],
	"textures":[
		{
			"sampler":0,
			"source":0
		},
		{
			"sampler":0,
			"source":1
		},
		{
			"sampler":0,
			"source":2
		},
		{
			"sampler":0,
			"source":3
		},
		{
			"sampler":0,
			"source":4
		},
		{
			"sampler":0,
			"source":5
		},
		{
			"sampler":0,
			"source":6
		},
		{
			"sampler":0,
			"source":7
		},
		{
			"sampler":0,
			"source":8
		},
		{
			"sampler":0,
			"source":9
		},
		{
			"sampler":0,
			"source":10
		},
		{
			"sampler":0,
			"source":11
		}
	],
	"images":[
		{
			"mimeType":"image/png",
			"name":"T_Trim_Normal",
			"uri":"T_Trim_Normal.png"
		},
		{
			"mimeType":"image/png",
			"name":"T_Trim_BaseColor",
			"uri":"T_Trim_BaseColor.png"
		},
		{
			"mimeType":"image/png",
			"name":"T_Trim_ORM",
			"uri":"T_Trim_ORM.png"
		},
		{
			"mimeType":"image/png",
			"name":"T_MetalConcrete_Normal",
			"uri":"T_MetalConcrete_Normal.png"
		},
		{
			"mimeType":"image/png",
			"name":"T_MetalConcrete_BaseColor",
			"uri":"T_MetalConcrete_BaseColor.png"
		},
		{
			"mimeType":"image/png",
			"name":"T_MetalConcrete_ORM",
			"uri":"T_MetalConcrete_ORM.png"
		},
		{
			"mimeType":"image/png",
			"name":"T_Ornaments_Normal",
			"uri":"T_Ornaments_Normal.png"
		},
		{
			"mimeType":"image/png",
			"name":"T_Ornaments_BaseColor",
			"uri":"T_Ornaments_BaseColor.png"
		},
		{
			"mimeType":"image/png",
			"name":"T_Ornaments_ORM",
			"uri":"T_Ornaments_ORM.png"
		},
		{
			"mimeType":"image/png",
			"name":"T_RedBrick_Normal",
			"uri":"T_RedBrick_Normal.png"
		},
		{
			"mimeType":"image/png",
			"name":"T_RedBrick_BaseColor",
			"uri":"T_RedBrick_BaseColor.png"
		},
		{
			"mimeType":"image/png",
			"name":"T_RedBrick_ORM",
			"uri":"T_RedBrick_ORM.png"
		}
	],
	"accessors":[
		{
			"bufferView":0,
			"componentType":5126,
			"count":549,
			"max":[
				2,
				4,
				0.06681960076093674
			],
			"min":[
				-2,
				-2.9325731176754744e-08,
				-0.19537700712680817
			],
			"type":"VEC3"
		},
		{
			"bufferView":1,
			"componentType":5126,
			"count":549,
			"type":"VEC3"
		},
		{
			"bufferView":2,
			"componentType":5126,
			"count":549,
			"type":"VEC2"
		},
		{
			"bufferView":3,
			"componentType":5126,
			"count":549,
			"type":"VEC2"
		},
		{
			"bufferView":4,
			"componentType":5123,
			"count":549,
			"normalized":true,
			"type":"VEC4"
		},
		{
			"bufferView":5,
			"componentType":5123,
			"count":1176,
			"type":"SCALAR"
		},
		{
			"bufferView":6,
			"componentType":5126,
			"count":672,
			"max":[
				1.2716801166534424,
				3.6675987243652344,
				-0.1604013442993164
			],
			"min":[
				-1.271918773651123,
				1.16304349899292,
				-0.23764222860336304
			],
			"type":"VEC3"
		},
		{
			"bufferView":7,
			"componentType":5126,
			"count":672,
			"type":"VEC3"
		},
		{
			"bufferView":8,
			"componentType":5126,
			"count":672,
			"type":"VEC2"
		},
		{
			"bufferView":9,
			"componentType":5126,
			"count":672,
			"type":"VEC2"
		},
		{
			"bufferView":10,
			"componentType":5123,
			"count":672,
			"normalized":true,
			"type":"VEC4"
		},
		{
			"bufferView":11,
			"componentType":5123,
			"count":1260,
			"type":"SCALAR"
		},
		{
			"bufferView":12,
			"componentType":5126,
			"count":36,
			"max":[
				1.213590383529663,
				3.606574058532715,
				-0.19902178645133972
			],
			"min":[
				-1.2138291597366333,
				1.2325234413146973,
				-0.19902178645133972
			],
			"type":"VEC3"
		},
		{
			"bufferView":13,
			"componentType":5126,
			"count":36,
			"type":"VEC3"
		},
		{
			"bufferView":14,
			"componentType":5126,
			"count":36,
			"type":"VEC2"
		},
		{
			"bufferView":15,
			"componentType":5126,
			"count":36,
			"type":"VEC2"
		},
		{
			"bufferView":16,
			"componentType":5123,
			"count":36,
			"normalized":true,
			"type":"VEC4"
		},
		{
			"bufferView":17,
			"componentType":5123,
			"count":72,
			"type":"SCALAR"
		},
		{
			"bufferView":18,
			"componentType":5126,
			"count":60,
			"max":[
				1.318599820137024,
				0.7908378839492798,
				-0.0010893243597820401
			],
			"min":[
				-1.318599820137024,
				0.20916184782981873,
				-0.03912605717778206
			],
			"type":"VEC3"
		},
		{
			"bufferView":19,
			"componentType":5126,
			"count":60,
			"type":"VEC3"
		},
		{
			"bufferView":20,
			"componentType":5126,
			"count":60,
			"type":"VEC2"
		},
		{
			"bufferView":21,
			"componentType":5126,
			"count":60,
			"type":"VEC2"
		},
		{
			"bufferView":22,
			"componentType":5123,
			"count":60,
			"normalized":true,
			"type":"VEC4"
		},
		{
			"bufferView":23,
			"componentType":5123,
			"count":90,
			"type":"SCALAR"
		},
		{
			"bufferView":24,
			"componentType":5126,
			"count":4,
			"max":[
				1.2715657949447632,
				3.6434903144836426,
				-0.19933724403381348
			],
			"min":[
				-1.2715657949447632,
				1.1645030975341797,
				-0.19933724403381348
			],
			"type":"VEC3"
		},
		{
			"bufferView":25,
			"componentType":5126,
			"count":4,
			"type":"VEC3"
		},
		{
			"bufferView":26,
			"componentType":5126,
			"count":4,
			"type":"VEC2"
		},
		{
			"bufferView":27,
			"componentType":5126,
			"count":4,
			"type":"VEC2"
		},
		{
			"bufferView":28,
			"componentType":5123,
			"count":4,
			"normalized":true,
			"type":"VEC4"
		},
		{
			"bufferView":29,
			"componentType":5123,
			"count":6,
			"type":"SCALAR"
		},
		{
			"bufferView":30,
			"componentType":5126,
			"count":56,
			"max":[
				2,
				4.000000476837158,
				-0.2000000923871994
			],
			"min":[
				-2,
				0,
				-0.2000000923871994
			],
			"type":"VEC3"
		},
		{
			"bufferView":31,
			"componentType":5126,
			"count":56,
			"type":"VEC3"
		},
		{
			"bufferView":32,
			"componentType":5126,
			"count":56,
			"type":"VEC2"
		},
		{
			"bufferView":33,
			"componentType":5126,
			"count":56,
			"type":"VEC2"
		},
		{
			"bufferView":34,
			"componentType":5123,
			"count":56,
			"normalized":true,
			"type":"VEC4"
		},
		{
			"bufferView":35,
			"componentType":5123,
			"count":144,
			"type":"SCALAR"
		}
	],
	"bufferViews":[
		{
			"buffer":0,
			"byteLength":6588,
			"byteOffset":0,
			"target":34962
		},
		{
			"buffer":0,
			"byteLength":6588,
			"byteOffset":6588,
			"target":34962
		},
		{
			"buffer":0,
			"byteLength":4392,
			"byteOffset":13176,
			"target":34962
		},
		{
			"buffer":0,
			"byteLength":4392,
			"byteOffset":17568,
			"target":34962
		},
		{
			"buffer":0,
			"byteLength":4392,
			"byteOffset":21960,
			"target":34962
		},
		{
			"buffer":0,
			"byteLength":2352,
			"byteOffset":26352,
			"target":34963
		},
		{
			"buffer":0,
			"byteLength":8064,
			"byteOffset":28704,
			"target":34962
		},
		{
			"buffer":0,
			"byteLength":8064,
			"byteOffset":36768,
			"target":34962
		},
		{
			"buffer":0,
			"byteLength":5376,
			"byteOffset":44832,
			"target":34962
		},
		{
			"buffer":0,
			"byteLength":5376,
			"byteOffset":50208,
			"target":34962
		},
		{
			"buffer":0,
			"byteLength":5376,
			"byteOffset":55584,
			"target":34962
		},
		{
			"buffer":0,
			"byteLength":2520,
			"byteOffset":60960,
			"target":34963
		},
		{
			"buffer":0,
			"byteLength":432,
			"byteOffset":63480,
			"target":34962
		},
		{
			"buffer":0,
			"byteLength":432,
			"byteOffset":63912,
			"target":34962
		},
		{
			"buffer":0,
			"byteLength":288,
			"byteOffset":64344,
			"target":34962
		},
		{
			"buffer":0,
			"byteLength":288,
			"byteOffset":64632,
			"target":34962
		},
		{
			"buffer":0,
			"byteLength":288,
			"byteOffset":64920,
			"target":34962
		},
		{
			"buffer":0,
			"byteLength":144,
			"byteOffset":65208,
			"target":34963
		},
		{
			"buffer":0,
			"byteLength":720,
			"byteOffset":65352,
			"target":34962
		},
		{
			"buffer":0,
			"byteLength":720,
			"byteOffset":66072,
			"target":34962
		},
		{
			"buffer":0,
			"byteLength":480,
			"byteOffset":66792,
			"target":34962
		},
		{
			"buffer":0,
			"byteLength":480,
			"byteOffset":67272,
			"target":34962
		},
		{
			"buffer":0,
			"byteLength":480,
			"byteOffset":67752,
			"target":34962
		},
		{
			"buffer":0,
			"byteLength":180,
			"byteOffset":68232,
			"target":34963
		},
		{
			"buffer":0,
			"byteLength":48,
			"byteOffset":68412,
			"target":34962
		},
		{
			"buffer":0,
			"byteLength":48,
			"byteOffset":68460,
			"target":34962
		},
		{
			"buffer":0,
			"byteLength":32,
			"byteOffset":68508,
			"target":34962
		},
		{
			"buffer":0,
			"byteLength":32,
			"byteOffset":68540,
			"target":34962
		},
		{
			"buffer":0,
			"byteLength":32,
			"byteOffset":68572,
			"target":34962
		},
		{
			"buffer":0,
			"byteLength":12,
			"byteOffset":68604,
			"target":34963
		},
		{
			"buffer":0,
			"byteLength":672,
			"byteOffset":68616,
			"target":34962
		},
		{
			"buffer":0,
			"byteLength":672,
			"byteOffset":69288,
			"target":34962
		},
		{
			"buffer":0,
			"byteLength":448,
			"byteOffset":69960,
			"target":34962
		},
		{
			"buffer":0,
			"byteLength":448,
			"byteOffset":70408,
			"target":34962
		},
		{
			"buffer":0,
			"byteLength":448,
			"byteOffset":70856,
			"target":34962
		},
		{
			"buffer":0,
			"byteLength":288,
			"byteOffset":71304,
			"target":34963
		}
	],
	"samplers":[
		{
			"magFilter":9729,
			"minFilter":9987
		}
	],
	"buffers":[
		{
			"byteLength":71592,
			"uri":"Marble_WindowTriple.bin"
		}
	]
}
