{
	"asset":{
		"generator":"Khronos glTF Blender I/O v4.3.47",
		"version":"2.0"
	},
	"scene":0,
	"scenes":[
		{
			"name":"Scene",
			"nodes":[
				0
			]
		}
	],
	"nodes":[
		{
			"mesh":0,
			"name":"Marble_ColumnInset_Large_Top"
		}
	],
	"materials":[
		{
			"doubleSided":true,
			"name":"MI_Trim",
			"normalTexture":{
				"index":0
			},
			"pbrMetallicRoughness":{
				"baseColorTexture":{
					"index":1
				},
				"metallicRoughnessTexture":{
					"index":2
				}
			}
		},
		{
			"doubleSided":true,
			"name":"MI_Ornaments",
			"normalTexture":{
				"index":3
			},
			"pbrMetallicRoughness":{
				"baseColorTexture":{
					"index":4
				},
				"metallicRoughnessTexture":{
					"index":5
				}
			}
		}
	],
	"meshes":[
		{
			"name":"Cube.3572",
			"primitives":[
				{
					"attributes":{
						"POSITION":0,
						"NORMAL":1,
						"TEXCOORD_0":2,
						"TEXCOORD_1":3
					},
					"indices":4,
					"material":0
				},
				{
					"attributes":{
						"POSITION":5,
						"NORMAL":6,
						"TEXCOORD_0":7,
						"TEXCOORD_1":8
					},
					"indices":9,
					"material":1
				}
			]
		}
	],
	"textures":[
		{
			"sampler":0,
			"source":0
		},
		{
			"sampler":0,
			"source":1
		},
		{
			"sampler":0,
			"source":2
		},
		{
			"sampler":0,
			"source":3
		},
		{
			"sampler":0,
			"source":4
		},
		{
			"sampler":0,
			"source":5
		}
	],
	"images":[
		{
			"mimeType":"image/png",
			"name":"T_Trim_Normal",
			"uri":"T_Trim_Normal.png"
		},
		{
			"mimeType":"image/png",
			"name":"T_Trim_BaseColor",
			"uri":"T_Trim_BaseColor.png"
		},
		{
			"mimeType":"image/png",
			"name":"T_Trim_ORM",
			"uri":"T_Trim_ORM.png"
		},
		{
			"mimeType":"image/png",
			"name":"T_Ornaments_Normal",
			"uri":"T_Ornaments_Normal.png"
		},
		{
			"mimeType":"image/png",
			"name":"T_Ornaments_BaseColor",
			"uri":"T_Ornaments_BaseColor.png"
		},
		{
			"mimeType":"image/png",
			"name":"T_Ornaments_ORM",
			"uri":"T_Ornaments_ORM.png"
		}
	],
	"accessors":[
		{
			"bufferView":0,
			"componentType":5126,
			"count":452,
			"max":[
				0.4332025647163391,
				4,
				0.43320316076278687
			],
			"min":[
				-1.4332038164138794,
				-2.384185791015625e-07,
				-1.4332032203674316
			],
			"type":"VEC3"
		},
		{
			"bufferView":1,
			"componentType":5126,
			"count":452,
			"type":"VEC3"
		},
		{
			"bufferView":2,
			"componentType":5126,
			"count":452,
			"type":"VEC2"
		},
		{
			"bufferView":3,
			"componentType":5126,
			"count":452,
			"type":"VEC2"
		},
		{
			"bufferView":4,
			"componentType":5123,
			"count":780,
			"type":"SCALAR"
		},
		{
			"bufferView":5,
			"componentType":5126,
			"count":16,
			"max":[
				0.1678828001022339,
				3.552124500274658,
				0.17523163557052612
			],
			"min":[
				-1.167885184288025,
				3.131718158721924,
				-1.17523193359375
			],
			"type":"VEC3"
		},
		{
			"bufferView":6,
			"componentType":5126,
			"count":16,
			"type":"VEC3"
		},
		{
			"bufferView":7,
			"componentType":5126,
			"count":16,
			"type":"VEC2"
		},
		{
			"bufferView":8,
			"componentType":5126,
			"count":16,
			"type":"VEC2"
		},
		{
			"bufferView":9,
			"componentType":5123,
			"count":24,
			"type":"SCALAR"
		}
	],
	"bufferViews":[
		{
			"buffer":0,
			"byteLength":5424,
			"byteOffset":0,
			"target":34962
		},
		{
			"buffer":0,
			"byteLength":5424,
			"byteOffset":5424,
			"target":34962
		},
		{
			"buffer":0,
			"byteLength":3616,
			"byteOffset":10848,
			"target":34962
		},
		{
			"buffer":0,
			"byteLength":3616,
			"byteOffset":14464,
			"target":34962
		},
		{
			"buffer":0,
			"byteLength":1560,
			"byteOffset":18080,
			"target":34963
		},
		{
			"buffer":0,
			"byteLength":192,
			"byteOffset":19640,
			"target":34962
		},
		{
			"buffer":0,
			"byteLength":192,
			"byteOffset":19832,
			"target":34962
		},
		{
			"buffer":0,
			"byteLength":128,
			"byteOffset":20024,
			"target":34962
		},
		{
			"buffer":0,
			"byteLength":128,
			"byteOffset":20152,
			"target":34962
		},
		{
			"buffer":0,
			"byteLength":48,
			"byteOffset":20280,
			"target":34963
		}
	],
	"samplers":[
		{
			"magFilter":9729,
			"minFilter":9987
		}
	],
	"buffers":[
		{
			"byteLength":20328,
			"uri":"Marble_ColumnInset_Large_Top.bin"
		}
	]
}
