{
	"asset":{
		"generator":"Khronos glTF Blender I/O v4.3.47",
		"version":"2.0"
	},
	"scene":0,
	"scenes":[
		{
			"name":"Scene",
			"nodes":[
				0
			]
		}
	],
	"nodes":[
		{
			"mesh":0,
			"name":"Marble_ShopWindow"
		}
	],
	"materials":[
		{
			"doubleSided":true,
			"name":"MI_Trim",
			"normalTexture":{
				"index":0
			},
			"pbrMetallicRoughness":{
				"baseColorTexture":{
					"index":1
				},
				"metallicRoughnessTexture":{
					"index":2
				}
			}
		},
		{
			"doubleSided":true,
			"name":"MI_Trim_MetalConcrete",
			"normalTexture":{
				"index":3
			},
			"pbrMetallicRoughness":{
				"baseColorTexture":{
					"index":4
				},
				"metallicRoughnessTexture":{
					"index":5
				}
			}
		},
		{
			"alphaMode":"BLEND",
			"doubleSided":true,
			"name":"MI_Glass",
			"pbrMetallicRoughness":{
				"baseColorFactor":[
					0.05215025693178177,
					0.05215025693178177,
					0.05215025693178177,
					0.586363673210144
				],
				"metallicFactor":0,
				"roughnessFactor":0.5
			}
		},
		{
			"doubleSided":true,
			"name":"MI_FakeInterior",
			"pbrMetallicRoughness":{
				"baseColorFactor":[
					0.800000011920929,
					0.800000011920929,
					0.800000011920929,
					1
				],
				"metallicFactor":0,
				"roughnessFactor":0.5
			}
		},
		{
			"doubleSided":true,
			"name":"MI_InteriorWall",
			"normalTexture":{
				"index":6
			},
			"pbrMetallicRoughness":{
				"baseColorTexture":{
					"index":7
				},
				"metallicRoughnessTexture":{
					"index":8
				}
			}
		}
	],
	"meshes":[
		{
			"name":"Cube.006",
			"primitives":[
				{
					"attributes":{
						"POSITION":0,
						"NORMAL":1,
						"TEXCOORD_0":2,
						"TEXCOORD_1":3,
						"COLOR_0":4,
						"COLOR_1":5
					},
					"indices":6,
					"material":0
				},
				{
					"attributes":{
						"POSITION":7,
						"NORMAL":8,
						"TEXCOORD_0":9,
						"TEXCOORD_1":10,
						"COLOR_0":11,
						"COLOR_1":12
					},
					"indices":13,
					"material":1
				},
				{
					"attributes":{
						"POSITION":14,
						"NORMAL":15,
						"TEXCOORD_0":16,
						"TEXCOORD_1":17,
						"COLOR_0":18,
						"COLOR_1":19
					},
					"indices":20,
					"material":2
				},
				{
					"attributes":{
						"POSITION":21,
						"NORMAL":22,
						"TEXCOORD_0":23,
						"TEXCOORD_1":24,
						"COLOR_0":25,
						"COLOR_1":26
					},
					"indices":27,
					"material":3
				},
				{
					"attributes":{
						"POSITION":28,
						"NORMAL":29,
						"TEXCOORD_0":30,
						"TEXCOORD_1":31,
						"COLOR_0":32,
						"COLOR_1":33
					},
					"indices":34,
					"material":4
				}
			]
		}
	],
	"textures":[
		{
			"sampler":0,
			"source":0
		},
		{
			"sampler":0,
			"source":1
		},
		{
			"sampler":0,
			"source":2
		},
		{
			"sampler":0,
			"source":3
		},
		{
			"sampler":0,
			"source":4
		},
		{
			"sampler":0,
			"source":5
		},
		{
			"sampler":0,
			"source":6
		},
		{
			"sampler":0,
			"source":7
		},
		{
			"sampler":0,
			"source":8
		}
	],
	"images":[
		{
			"mimeType":"image/png",
			"name":"T_Trim_Normal",
			"uri":"T_Trim_Normal.png"
		},
		{
			"mimeType":"image/png",
			"name":"T_Trim_BaseColor",
			"uri":"T_Trim_BaseColor.png"
		},
		{
			"mimeType":"image/png",
			"name":"T_Trim_ORM",
			"uri":"T_Trim_ORM.png"
		},
		{
			"mimeType":"image/png",
			"name":"T_MetalConcrete_Normal",
			"uri":"T_MetalConcrete_Normal.png"
		},
		{
			"mimeType":"image/png",
			"name":"T_MetalConcrete_BaseColor",
			"uri":"T_MetalConcrete_BaseColor.png"
		},
		{
			"mimeType":"image/png",
			"name":"T_MetalConcrete_ORM",
			"uri":"T_MetalConcrete_ORM.png"
		},
		{
			"mimeType":"image/png",
			"name":"T_RedBrick_Normal",
			"uri":"T_RedBrick_Normal.png"
		},
		{
			"mimeType":"image/png",
			"name":"T_RedBrick_BaseColor",
			"uri":"T_RedBrick_BaseColor.png"
		},
		{
			"mimeType":"image/png",
			"name":"T_RedBrick_ORM",
			"uri":"T_RedBrick_ORM.png"
		}
	],
	"accessors":[
		{
			"bufferView":0,
			"componentType":5126,
			"count":139,
			"max":[
				2,
				4,
				0.030000070109963417
			],
			"min":[
				-2,
				-2.809779964252357e-09,
				-0.188253253698349
			],
			"type":"VEC3"
		},
		{
			"bufferView":1,
			"componentType":5126,
			"count":139,
			"type":"VEC3"
		},
		{
			"bufferView":2,
			"componentType":5126,
			"count":139,
			"type":"VEC2"
		},
		{
			"bufferView":3,
			"componentType":5126,
			"count":139,
			"type":"VEC2"
		},
		{
			"bufferView":4,
			"componentType":5121,
			"count":139,
			"normalized":true,
			"type":"VEC4"
		},
		{
			"bufferView":5,
			"componentType":5123,
			"count":139,
			"normalized":true,
			"type":"VEC4"
		},
		{
			"bufferView":6,
			"componentType":5123,
			"count":312,
			"type":"SCALAR"
		},
		{
			"bufferView":7,
			"componentType":5126,
			"count":180,
			"max":[
				1.4028234481811523,
				3.8087286949157715,
				-0.06575538218021393
			],
			"min":[
				-1.4028234481811523,
				0.10000000149011612,
				-0.26331591606140137
			],
			"type":"VEC3"
		},
		{
			"bufferView":8,
			"componentType":5126,
			"count":180,
			"type":"VEC3"
		},
		{
			"bufferView":9,
			"componentType":5126,
			"count":180,
			"type":"VEC2"
		},
		{
			"bufferView":10,
			"componentType":5126,
			"count":180,
			"type":"VEC2"
		},
		{
			"bufferView":11,
			"componentType":5121,
			"count":180,
			"normalized":true,
			"type":"VEC4"
		},
		{
			"bufferView":12,
			"componentType":5123,
			"count":180,
			"normalized":true,
			"type":"VEC4"
		},
		{
			"bufferView":13,
			"componentType":5123,
			"count":306,
			"type":"SCALAR"
		},
		{
			"bufferView":14,
			"componentType":5126,
			"count":8,
			"max":[
				1.3432419300079346,
				3.749147415161133,
				-0.18240390717983246
			],
			"min":[
				-1.3432419300079346,
				0.15958142280578613,
				-0.18240390717983246
			],
			"type":"VEC3"
		},
		{
			"bufferView":15,
			"componentType":5126,
			"count":8,
			"type":"VEC3"
		},
		{
			"bufferView":16,
			"componentType":5126,
			"count":8,
			"type":"VEC2"
		},
		{
			"bufferView":17,
			"componentType":5126,
			"count":8,
			"type":"VEC2"
		},
		{
			"bufferView":18,
			"componentType":5121,
			"count":8,
			"normalized":true,
			"type":"VEC4"
		},
		{
			"bufferView":19,
			"componentType":5123,
			"count":8,
			"normalized":true,
			"type":"VEC4"
		},
		{
			"bufferView":20,
			"componentType":5123,
			"count":12,
			"type":"SCALAR"
		},
		{
			"bufferView":21,
			"componentType":5126,
			"count":4,
			"max":[
				1.37549889087677,
				3.808354377746582,
				-0.18932071328163147
			],
			"min":[
				-1.37549889087677,
				0.10743021965026855,
				-0.18932071328163147
			],
			"type":"VEC3"
		},
		{
			"bufferView":22,
			"componentType":5126,
			"count":4,
			"type":"VEC3"
		},
		{
			"bufferView":23,
			"componentType":5126,
			"count":4,
			"type":"VEC2"
		},
		{
			"bufferView":24,
			"componentType":5126,
			"count":4,
			"type":"VEC2"
		},
		{
			"bufferView":25,
			"componentType":5121,
			"count":4,
			"normalized":true,
			"type":"VEC4"
		},
		{
			"bufferView":26,
			"componentType":5123,
			"count":4,
			"normalized":true,
			"type":"VEC4"
		},
		{
			"bufferView":27,
			"componentType":5123,
			"count":6,
			"type":"SCALAR"
		},
		{
			"bufferView":28,
			"componentType":5126,
			"count":32,
			"max":[
				2,
				4.000000476837158,
				-0.2000000923871994
			],
			"min":[
				-2,
				0,
				-0.2000000923871994
			],
			"type":"VEC3"
		},
		{
			"bufferView":29,
			"componentType":5126,
			"count":32,
			"type":"VEC3"
		},
		{
			"bufferView":30,
			"componentType":5126,
			"count":32,
			"type":"VEC2"
		},
		{
			"bufferView":31,
			"componentType":5126,
			"count":32,
			"type":"VEC2"
		},
		{
			"bufferView":32,
			"componentType":5121,
			"count":32,
			"normalized":true,
			"type":"VEC4"
		},
		{
			"bufferView":33,
			"componentType":5123,
			"count":32,
			"normalized":true,
			"type":"VEC4"
		},
		{
			"bufferView":34,
			"componentType":5123,
			"count":72,
			"type":"SCALAR"
		}
	],
	"bufferViews":[
		{
			"buffer":0,
			"byteLength":1668,
			"byteOffset":0,
			"target":34962
		},
		{
			"buffer":0,
			"byteLength":1668,
			"byteOffset":1668,
			"target":34962
		},
		{
			"buffer":0,
			"byteLength":1112,
			"byteOffset":3336,
			"target":34962
		},
		{
			"buffer":0,
			"byteLength":1112,
			"byteOffset":4448,
			"target":34962
		},
		{
			"buffer":0,
			"byteLength":556,
			"byteOffset":5560,
			"target":34962
		},
		{
			"buffer":0,
			"byteLength":1112,
			"byteOffset":6116,
			"target":34962
		},
		{
			"buffer":0,
			"byteLength":624,
			"byteOffset":7228,
			"target":34963
		},
		{
			"buffer":0,
			"byteLength":2160,
			"byteOffset":7852,
			"target":34962
		},
		{
			"buffer":0,
			"byteLength":2160,
			"byteOffset":10012,
			"target":34962
		},
		{
			"buffer":0,
			"byteLength":1440,
			"byteOffset":12172,
			"target":34962
		},
		{
			"buffer":0,
			"byteLength":1440,
			"byteOffset":13612,
			"target":34962
		},
		{
			"buffer":0,
			"byteLength":720,
			"byteOffset":15052,
			"target":34962
		},
		{
			"buffer":0,
			"byteLength":1440,
			"byteOffset":15772,
			"target":34962
		},
		{
			"buffer":0,
			"byteLength":612,
			"byteOffset":17212,
			"target":34963
		},
		{
			"buffer":0,
			"byteLength":96,
			"byteOffset":17824,
			"target":34962
		},
		{
			"buffer":0,
			"byteLength":96,
			"byteOffset":17920,
			"target":34962
		},
		{
			"buffer":0,
			"byteLength":64,
			"byteOffset":18016,
			"target":34962
		},
		{
			"buffer":0,
			"byteLength":64,
			"byteOffset":18080,
			"target":34962
		},
		{
			"buffer":0,
			"byteLength":32,
			"byteOffset":18144,
			"target":34962
		},
		{
			"buffer":0,
			"byteLength":64,
			"byteOffset":18176,
			"target":34962
		},
		{
			"buffer":0,
			"byteLength":24,
			"byteOffset":18240,
			"target":34963
		},
		{
			"buffer":0,
			"byteLength":48,
			"byteOffset":18264,
			"target":34962
		},
		{
			"buffer":0,
			"byteLength":48,
			"byteOffset":18312,
			"target":34962
		},
		{
			"buffer":0,
			"byteLength":32,
			"byteOffset":18360,
			"target":34962
		},
		{
			"buffer":0,
			"byteLength":32,
			"byteOffset":18392,
			"target":34962
		},
		{
			"buffer":0,
			"byteLength":16,
			"byteOffset":18424,
			"target":34962
		},
		{
			"buffer":0,
			"byteLength":32,
			"byteOffset":18440,
			"target":34962
		},
		{
			"buffer":0,
			"byteLength":12,
			"byteOffset":18472,
			"target":34963
		},
		{
			"buffer":0,
			"byteLength":384,
			"byteOffset":18484,
			"target":34962
		},
		{
			"buffer":0,
			"byteLength":384,
			"byteOffset":18868,
			"target":34962
		},
		{
			"buffer":0,
			"byteLength":256,
			"byteOffset":19252,
			"target":34962
		},
		{
			"buffer":0,
			"byteLength":256,
			"byteOffset":19508,
			"target":34962
		},
		{
			"buffer":0,
			"byteLength":128,
			"byteOffset":19764,
			"target":34962
		},
		{
			"buffer":0,
			"byteLength":256,
			"byteOffset":19892,
			"target":34962
		},
		{
			"buffer":0,
			"byteLength":144,
			"byteOffset":20148,
			"target":34963
		}
	],
	"samplers":[
		{
			"magFilter":9729,
			"minFilter":9987
		}
	],
	"buffers":[
		{
			"byteLength":20292,
			"uri":"Marble_ShopWindow.bin"
		}
	]
}
