{
	"asset":{
		"generator":"Khronos glTF Blender I/O v4.3.47",
		"version":"2.0"
	},
	"scene":0,
	"scenes":[
		{
			"name":"Scene",
			"nodes":[
				0
			]
		}
	],
	"nodes":[
		{
			"mesh":0,
			"name":"Metal_BayWindow_Bottom"
		}
	],
	"materials":[
		{
			"alphaMode":"BLEND",
			"doubleSided":true,
			"name":"MI_Glass",
			"pbrMetallicRoughness":{
				"baseColorFactor":[
					0.05215025693178177,
					0.05215025693178177,
					0.05215025693178177,
					0.586363673210144
				],
				"metallicFactor":0,
				"roughnessFactor":0.5
			}
		},
		{
			"doubleSided":true,
			"name":"MI_FakeInterior",
			"pbrMetallicRoughness":{
				"baseColorFactor":[
					0.800000011920929,
					0.800000011920929,
					0.800000011920929,
					1
				],
				"metallicFactor":0,
				"roughnessFactor":0.5
			}
		},
		{
			"doubleSided":true,
			"name":"MI_Trim_MetalConcrete",
			"normalTexture":{
				"index":0
			},
			"pbrMetallicRoughness":{
				"baseColorTexture":{
					"index":1
				},
				"metallicRoughnessTexture":{
					"index":2
				}
			}
		},
		{
			"doubleSided":true,
			"name":"MI_InteriorWall",
			"normalTexture":{
				"index":3
			},
			"pbrMetallicRoughness":{
				"baseColorTexture":{
					"index":4
				},
				"metallicRoughnessTexture":{
					"index":5
				}
			}
		}
	],
	"meshes":[
		{
			"name":"Cube.263",
			"primitives":[
				{
					"attributes":{
						"POSITION":0,
						"NORMAL":1,
						"TEXCOORD_0":2,
						"TEXCOORD_1":3,
						"COLOR_0":4,
						"COLOR_1":5
					},
					"indices":6,
					"material":0
				},
				{
					"attributes":{
						"POSITION":7,
						"NORMAL":8,
						"TEXCOORD_0":9,
						"TEXCOORD_1":10,
						"COLOR_0":11,
						"COLOR_1":12
					},
					"indices":13,
					"material":1
				},
				{
					"attributes":{
						"POSITION":14,
						"NORMAL":15,
						"TEXCOORD_0":16,
						"TEXCOORD_1":17,
						"COLOR_0":18,
						"COLOR_1":19
					},
					"indices":20,
					"material":2
				},
				{
					"attributes":{
						"POSITION":21,
						"NORMAL":22,
						"TEXCOORD_0":23,
						"TEXCOORD_1":24,
						"COLOR_0":25,
						"COLOR_1":26
					},
					"indices":27,
					"material":3
				}
			]
		}
	],
	"textures":[
		{
			"sampler":0,
			"source":0
		},
		{
			"sampler":0,
			"source":1
		},
		{
			"sampler":0,
			"source":2
		},
		{
			"sampler":0,
			"source":3
		},
		{
			"sampler":0,
			"source":4
		},
		{
			"sampler":0,
			"source":5
		}
	],
	"images":[
		{
			"mimeType":"image/png",
			"name":"T_MetalConcrete_Normal",
			"uri":"T_MetalConcrete_Normal.png"
		},
		{
			"mimeType":"image/png",
			"name":"T_MetalConcrete_BaseColor",
			"uri":"T_MetalConcrete_BaseColor.png"
		},
		{
			"mimeType":"image/png",
			"name":"T_MetalConcrete_ORM",
			"uri":"T_MetalConcrete_ORM.png"
		},
		{
			"mimeType":"image/png",
			"name":"T_RedBrick_Normal",
			"uri":"T_RedBrick_Normal.png"
		},
		{
			"mimeType":"image/png",
			"name":"T_RedBrick_BaseColor",
			"uri":"T_RedBrick_BaseColor.png"
		},
		{
			"mimeType":"image/png",
			"name":"T_RedBrick_ORM",
			"uri":"T_RedBrick_ORM.png"
		}
	],
	"accessors":[
		{
			"bufferView":0,
			"componentType":5126,
			"count":32,
			"max":[
				1.853119969367981,
				2.445091485977173,
				0.8563531041145325
			],
			"min":[
				-1.853119969367981,
				0.0414847731590271,
				-0.042901620268821716
			],
			"type":"VEC3"
		},
		{
			"bufferView":1,
			"componentType":5126,
			"count":32,
			"type":"VEC3"
		},
		{
			"bufferView":2,
			"componentType":5126,
			"count":32,
			"type":"VEC2"
		},
		{
			"bufferView":3,
			"componentType":5126,
			"count":32,
			"type":"VEC2"
		},
		{
			"bufferView":4,
			"componentType":5121,
			"count":32,
			"normalized":true,
			"type":"VEC4"
		},
		{
			"bufferView":5,
			"componentType":5123,
			"count":32,
			"normalized":true,
			"type":"VEC4"
		},
		{
			"bufferView":6,
			"componentType":5123,
			"count":48,
			"type":"SCALAR"
		},
		{
			"bufferView":7,
			"componentType":5126,
			"count":12,
			"max":[
				1.8630461692810059,
				2.4652676582336426,
				0.8539459109306335
			],
			"min":[
				-1.8531475067138672,
				0.02259528636932373,
				-0.08203127980232239
			],
			"type":"VEC3"
		},
		{
			"bufferView":8,
			"componentType":5126,
			"count":12,
			"type":"VEC3"
		},
		{
			"bufferView":9,
			"componentType":5126,
			"count":12,
			"type":"VEC2"
		},
		{
			"bufferView":10,
			"componentType":5126,
			"count":12,
			"type":"VEC2"
		},
		{
			"bufferView":11,
			"componentType":5121,
			"count":12,
			"normalized":true,
			"type":"VEC4"
		},
		{
			"bufferView":12,
			"componentType":5123,
			"count":12,
			"normalized":true,
			"type":"VEC4"
		},
		{
			"bufferView":13,
			"componentType":5123,
			"count":18,
			"type":"SCALAR"
		},
		{
			"bufferView":14,
			"componentType":5126,
			"count":739,
			"max":[
				2.000002384185791,
				3,
				1.0000001192092896
			],
			"min":[
				-2.000002384185791,
				-0.000594273442402482,
				-0.20000045001506805
			],
			"type":"VEC3"
		},
		{
			"bufferView":15,
			"componentType":5126,
			"count":739,
			"type":"VEC3"
		},
		{
			"bufferView":16,
			"componentType":5126,
			"count":739,
			"type":"VEC2"
		},
		{
			"bufferView":17,
			"componentType":5126,
			"count":739,
			"type":"VEC2"
		},
		{
			"bufferView":18,
			"componentType":5121,
			"count":739,
			"normalized":true,
			"type":"VEC4"
		},
		{
			"bufferView":19,
			"componentType":5123,
			"count":739,
			"normalized":true,
			"type":"VEC4"
		},
		{
			"bufferView":20,
			"componentType":5123,
			"count":1554,
			"type":"SCALAR"
		},
		{
			"bufferView":21,
			"componentType":5126,
			"count":14,
			"max":[
				2,
				3.000000476837158,
				0.7999998927116394
			],
			"min":[
				-2,
				2.483945369720459,
				-0.20000004768371582
			],
			"type":"VEC3"
		},
		{
			"bufferView":22,
			"componentType":5126,
			"count":14,
			"type":"VEC3"
		},
		{
			"bufferView":23,
			"componentType":5126,
			"count":14,
			"type":"VEC2"
		},
		{
			"bufferView":24,
			"componentType":5126,
			"count":14,
			"type":"VEC2"
		},
		{
			"bufferView":25,
			"componentType":5121,
			"count":14,
			"normalized":true,
			"type":"VEC4"
		},
		{
			"bufferView":26,
			"componentType":5123,
			"count":14,
			"normalized":true,
			"type":"VEC4"
		},
		{
			"bufferView":27,
			"componentType":5123,
			"count":24,
			"type":"SCALAR"
		}
	],
	"bufferViews":[
		{
			"buffer":0,
			"byteLength":384,
			"byteOffset":0,
			"target":34962
		},
		{
			"buffer":0,
			"byteLength":384,
			"byteOffset":384,
			"target":34962
		},
		{
			"buffer":0,
			"byteLength":256,
			"byteOffset":768,
			"target":34962
		},
		{
			"buffer":0,
			"byteLength":256,
			"byteOffset":1024,
			"target":34962
		},
		{
			"buffer":0,
			"byteLength":128,
			"byteOffset":1280,
			"target":34962
		},
		{
			"buffer":0,
			"byteLength":256,
			"byteOffset":1408,
			"target":34962
		},
		{
			"buffer":0,
			"byteLength":96,
			"byteOffset":1664,
			"target":34963
		},
		{
			"buffer":0,
			"byteLength":144,
			"byteOffset":1760,
			"target":34962
		},
		{
			"buffer":0,
			"byteLength":144,
			"byteOffset":1904,
			"target":34962
		},
		{
			"buffer":0,
			"byteLength":96,
			"byteOffset":2048,
			"target":34962
		},
		{
			"buffer":0,
			"byteLength":96,
			"byteOffset":2144,
			"target":34962
		},
		{
			"buffer":0,
			"byteLength":48,
			"byteOffset":2240,
			"target":34962
		},
		{
			"buffer":0,
			"byteLength":96,
			"byteOffset":2288,
			"target":34962
		},
		{
			"buffer":0,
			"byteLength":36,
			"byteOffset":2384,
			"target":34963
		},
		{
			"buffer":0,
			"byteLength":8868,
			"byteOffset":2420,
			"target":34962
		},
		{
			"buffer":0,
			"byteLength":8868,
			"byteOffset":11288,
			"target":34962
		},
		{
			"buffer":0,
			"byteLength":5912,
			"byteOffset":20156,
			"target":34962
		},
		{
			"buffer":0,
			"byteLength":5912,
			"byteOffset":26068,
			"target":34962
		},
		{
			"buffer":0,
			"byteLength":2956,
			"byteOffset":31980,
			"target":34962
		},
		{
			"buffer":0,
			"byteLength":5912,
			"byteOffset":34936,
			"target":34962
		},
		{
			"buffer":0,
			"byteLength":3108,
			"byteOffset":40848,
			"target":34963
		},
		{
			"buffer":0,
			"byteLength":168,
			"byteOffset":43956,
			"target":34962
		},
		{
			"buffer":0,
			"byteLength":168,
			"byteOffset":44124,
			"target":34962
		},
		{
			"buffer":0,
			"byteLength":112,
			"byteOffset":44292,
			"target":34962
		},
		{
			"buffer":0,
			"byteLength":112,
			"byteOffset":44404,
			"target":34962
		},
		{
			"buffer":0,
			"byteLength":56,
			"byteOffset":44516,
			"target":34962
		},
		{
			"buffer":0,
			"byteLength":112,
			"byteOffset":44572,
			"target":34962
		},
		{
			"buffer":0,
			"byteLength":48,
			"byteOffset":44684,
			"target":34963
		}
	],
	"samplers":[
		{
			"magFilter":9729,
			"minFilter":9987
		}
	],
	"buffers":[
		{
			"byteLength":44732,
			"uri":"Metal_BayWindow_Bottom.bin"
		}
	]
}
