{
	"asset":{
		"generator":"Khronos glTF Blender I/O v4.3.47",
		"version":"2.0"
	},
	"scene":0,
	"scenes":[
		{
			"name":"Scene",
			"nodes":[
				0
			]
		}
	],
	"nodes":[
		{
			"mesh":0,
			"name":"Metal_Panel_Window_4"
		}
	],
	"materials":[
		{
			"doubleSided":true,
			"name":"MI_Trim_MetalConcrete",
			"normalTexture":{
				"index":0
			},
			"pbrMetallicRoughness":{
				"baseColorTexture":{
					"index":1
				},
				"metallicRoughnessTexture":{
					"index":2
				}
			}
		},
		{
			"alphaMode":"BLEND",
			"doubleSided":true,
			"name":"MI_Glass",
			"pbrMetallicRoughness":{
				"baseColorFactor":[
					0.05215025693178177,
					0.05215025693178177,
					0.05215025693178177,
					0.586363673210144
				],
				"metallicFactor":0,
				"roughnessFactor":0.5
			}
		},
		{
			"doubleSided":true,
			"name":"MI_FakeInterior",
			"pbrMetallicRoughness":{
				"baseColorFactor":[
					0.800000011920929,
					0.800000011920929,
					0.800000011920929,
					1
				],
				"metallicFactor":0,
				"roughnessFactor":0.5
			}
		},
		{
			"doubleSided":true,
			"name":"MI_InteriorWall",
			"normalTexture":{
				"index":3
			},
			"pbrMetallicRoughness":{
				"baseColorTexture":{
					"index":4
				},
				"metallicRoughnessTexture":{
					"index":5
				}
			}
		}
	],
	"meshes":[
		{
			"name":"Cube.098",
			"primitives":[
				{
					"attributes":{
						"POSITION":0,
						"NORMAL":1,
						"TEXCOORD_0":2,
						"TEXCOORD_1":3,
						"COLOR_0":4,
						"COLOR_1":5
					},
					"indices":6,
					"material":0
				},
				{
					"attributes":{
						"POSITION":7,
						"NORMAL":8,
						"TEXCOORD_0":9,
						"TEXCOORD_1":10,
						"COLOR_0":11,
						"COLOR_1":12
					},
					"indices":13,
					"material":1
				},
				{
					"attributes":{
						"POSITION":14,
						"NORMAL":15,
						"TEXCOORD_0":16,
						"TEXCOORD_1":17,
						"COLOR_0":18,
						"COLOR_1":19
					},
					"indices":20,
					"material":2
				},
				{
					"attributes":{
						"POSITION":21,
						"NORMAL":22,
						"TEXCOORD_0":23,
						"TEXCOORD_1":24,
						"COLOR_0":25,
						"COLOR_1":26
					},
					"indices":27,
					"material":3
				}
			]
		}
	],
	"textures":[
		{
			"sampler":0,
			"source":0
		},
		{
			"sampler":0,
			"source":1
		},
		{
			"sampler":0,
			"source":2
		},
		{
			"sampler":0,
			"source":3
		},
		{
			"sampler":0,
			"source":4
		},
		{
			"sampler":0,
			"source":5
		}
	],
	"images":[
		{
			"mimeType":"image/png",
			"name":"T_MetalConcrete_Normal",
			"uri":"T_MetalConcrete_Normal.png"
		},
		{
			"mimeType":"image/png",
			"name":"T_MetalConcrete_BaseColor",
			"uri":"T_MetalConcrete_BaseColor.png"
		},
		{
			"mimeType":"image/png",
			"name":"T_MetalConcrete_ORM",
			"uri":"T_MetalConcrete_ORM.png"
		},
		{
			"mimeType":"image/png",
			"name":"T_RedBrick_Normal",
			"uri":"T_RedBrick_Normal.png"
		},
		{
			"mimeType":"image/png",
			"name":"T_RedBrick_BaseColor",
			"uri":"T_RedBrick_BaseColor.png"
		},
		{
			"mimeType":"image/png",
			"name":"T_RedBrick_ORM",
			"uri":"T_RedBrick_ORM.png"
		}
	],
	"accessors":[
		{
			"bufferView":0,
			"componentType":5126,
			"count":607,
			"max":[
				2,
				4,
				1.3113415775478643e-07
			],
			"min":[
				-2,
				-1.4901161193847656e-08,
				-0.2865232527256012
			],
			"type":"VEC3"
		},
		{
			"bufferView":1,
			"componentType":5126,
			"count":607,
			"type":"VEC3"
		},
		{
			"bufferView":2,
			"componentType":5126,
			"count":607,
			"type":"VEC2"
		},
		{
			"bufferView":3,
			"componentType":5126,
			"count":607,
			"type":"VEC2"
		},
		{
			"bufferView":4,
			"componentType":5121,
			"count":607,
			"normalized":true,
			"type":"VEC4"
		},
		{
			"bufferView":5,
			"componentType":5123,
			"count":607,
			"normalized":true,
			"type":"VEC4"
		},
		{
			"bufferView":6,
			"componentType":5123,
			"count":1278,
			"type":"SCALAR"
		},
		{
			"bufferView":7,
			"componentType":5126,
			"count":16,
			"max":[
				1.4673317670822144,
				3.394467353820801,
				-0.1900167614221573
			],
			"min":[
				-1.4673317670822144,
				0.30515801906585693,
				-0.1900167614221573
			],
			"type":"VEC3"
		},
		{
			"bufferView":8,
			"componentType":5126,
			"count":16,
			"type":"VEC3"
		},
		{
			"bufferView":9,
			"componentType":5126,
			"count":16,
			"type":"VEC2"
		},
		{
			"bufferView":10,
			"componentType":5126,
			"count":16,
			"type":"VEC2"
		},
		{
			"bufferView":11,
			"componentType":5121,
			"count":16,
			"normalized":true,
			"type":"VEC4"
		},
		{
			"bufferView":12,
			"componentType":5123,
			"count":16,
			"normalized":true,
			"type":"VEC4"
		},
		{
			"bufferView":13,
			"componentType":5123,
			"count":24,
			"type":"SCALAR"
		},
		{
			"bufferView":14,
			"componentType":5126,
			"count":4,
			"max":[
				1.884358525276184,
				3.8295514583587646,
				-0.1954840123653412
			],
			"min":[
				-1.8843737840652466,
				0.060819149017333984,
				-0.1954841911792755
			],
			"type":"VEC3"
		},
		{
			"bufferView":15,
			"componentType":5126,
			"count":4,
			"type":"VEC3"
		},
		{
			"bufferView":16,
			"componentType":5126,
			"count":4,
			"type":"VEC2"
		},
		{
			"bufferView":17,
			"componentType":5126,
			"count":4,
			"type":"VEC2"
		},
		{
			"bufferView":18,
			"componentType":5121,
			"count":4,
			"normalized":true,
			"type":"VEC4"
		},
		{
			"bufferView":19,
			"componentType":5123,
			"count":4,
			"normalized":true,
			"type":"VEC4"
		},
		{
			"bufferView":20,
			"componentType":5123,
			"count":6,
			"type":"SCALAR"
		},
		{
			"bufferView":21,
			"componentType":5126,
			"count":32,
			"max":[
				2.000000238418579,
				4.000000953674316,
				-0.2000001221895218
			],
			"min":[
				-2.000000238418579,
				0,
				-0.20000013709068298
			],
			"type":"VEC3"
		},
		{
			"bufferView":22,
			"componentType":5126,
			"count":32,
			"type":"VEC3"
		},
		{
			"bufferView":23,
			"componentType":5126,
			"count":32,
			"type":"VEC2"
		},
		{
			"bufferView":24,
			"componentType":5126,
			"count":32,
			"type":"VEC2"
		},
		{
			"bufferView":25,
			"componentType":5121,
			"count":32,
			"normalized":true,
			"type":"VEC4"
		},
		{
			"bufferView":26,
			"componentType":5123,
			"count":32,
			"normalized":true,
			"type":"VEC4"
		},
		{
			"bufferView":27,
			"componentType":5123,
			"count":72,
			"type":"SCALAR"
		}
	],
	"bufferViews":[
		{
			"buffer":0,
			"byteLength":7284,
			"byteOffset":0,
			"target":34962
		},
		{
			"buffer":0,
			"byteLength":7284,
			"byteOffset":7284,
			"target":34962
		},
		{
			"buffer":0,
			"byteLength":4856,
			"byteOffset":14568,
			"target":34962
		},
		{
			"buffer":0,
			"byteLength":4856,
			"byteOffset":19424,
			"target":34962
		},
		{
			"buffer":0,
			"byteLength":2428,
			"byteOffset":24280,
			"target":34962
		},
		{
			"buffer":0,
			"byteLength":4856,
			"byteOffset":26708,
			"target":34962
		},
		{
			"buffer":0,
			"byteLength":2556,
			"byteOffset":31564,
			"target":34963
		},
		{
			"buffer":0,
			"byteLength":192,
			"byteOffset":34120,
			"target":34962
		},
		{
			"buffer":0,
			"byteLength":192,
			"byteOffset":34312,
			"target":34962
		},
		{
			"buffer":0,
			"byteLength":128,
			"byteOffset":34504,
			"target":34962
		},
		{
			"buffer":0,
			"byteLength":128,
			"byteOffset":34632,
			"target":34962
		},
		{
			"buffer":0,
			"byteLength":64,
			"byteOffset":34760,
			"target":34962
		},
		{
			"buffer":0,
			"byteLength":128,
			"byteOffset":34824,
			"target":34962
		},
		{
			"buffer":0,
			"byteLength":48,
			"byteOffset":34952,
			"target":34963
		},
		{
			"buffer":0,
			"byteLength":48,
			"byteOffset":35000,
			"target":34962
		},
		{
			"buffer":0,
			"byteLength":48,
			"byteOffset":35048,
			"target":34962
		},
		{
			"buffer":0,
			"byteLength":32,
			"byteOffset":35096,
			"target":34962
		},
		{
			"buffer":0,
			"byteLength":32,
			"byteOffset":35128,
			"target":34962
		},
		{
			"buffer":0,
			"byteLength":16,
			"byteOffset":35160,
			"target":34962
		},
		{
			"buffer":0,
			"byteLength":32,
			"byteOffset":35176,
			"target":34962
		},
		{
			"buffer":0,
			"byteLength":12,
			"byteOffset":35208,
			"target":34963
		},
		{
			"buffer":0,
			"byteLength":384,
			"byteOffset":35220,
			"target":34962
		},
		{
			"buffer":0,
			"byteLength":384,
			"byteOffset":35604,
			"target":34962
		},
		{
			"buffer":0,
			"byteLength":256,
			"byteOffset":35988,
			"target":34962
		},
		{
			"buffer":0,
			"byteLength":256,
			"byteOffset":36244,
			"target":34962
		},
		{
			"buffer":0,
			"byteLength":128,
			"byteOffset":36500,
			"target":34962
		},
		{
			"buffer":0,
			"byteLength":256,
			"byteOffset":36628,
			"target":34962
		},
		{
			"buffer":0,
			"byteLength":144,
			"byteOffset":36884,
			"target":34963
		}
	],
	"samplers":[
		{
			"magFilter":9729,
			"minFilter":9987
		}
	],
	"buffers":[
		{
			"byteLength":37028,
			"uri":"Metal_Panel_Window_4.bin"
		}
	]
}
