{
	"asset":{
		"generator":"Khronos glTF Blender I/O v4.3.47",
		"version":"2.0"
	},
	"scene":0,
	"scenes":[
		{
			"name":"Scene",
			"nodes":[
				0
			]
		}
	],
	"nodes":[
		{
			"mesh":0,
			"name":"Prop_EntranceArch"
		}
	],
	"materials":[
		{
			"doubleSided":true,
			"name":"MI_Trim",
			"normalTexture":{
				"index":0
			},
			"pbrMetallicRoughness":{
				"baseColorTexture":{
					"index":1
				},
				"metallicRoughnessTexture":{
					"index":2
				}
			}
		},
		{
			"doubleSided":true,
			"name":"MI_Ornaments",
			"normalTexture":{
				"index":3
			},
			"pbrMetallicRoughness":{
				"baseColorTexture":{
					"index":4
				},
				"metallicRoughnessTexture":{
					"index":5
				}
			}
		}
	],
	"meshes":[
		{
			"name":"Cube.004",
			"primitives":[
				{
					"attributes":{
						"POSITION":0,
						"NORMAL":1,
						"TEXCOORD_0":2,
						"TEXCOORD_1":3,
						"COLOR_0":4,
						"COLOR_1":5
					},
					"indices":6,
					"material":0
				},
				{
					"attributes":{
						"POSITION":7,
						"NORMAL":8,
						"TEXCOORD_0":9,
						"TEXCOORD_1":10,
						"COLOR_0":11,
						"COLOR_1":12
					},
					"indices":13,
					"material":1
				}
			]
		}
	],
	"textures":[
		{
			"sampler":0,
			"source":0
		},
		{
			"sampler":0,
			"source":1
		},
		{
			"sampler":0,
			"source":2
		},
		{
			"sampler":0,
			"source":3
		},
		{
			"sampler":0,
			"source":4
		},
		{
			"sampler":0,
			"source":5
		}
	],
	"images":[
		{
			"mimeType":"image/png",
			"name":"T_Trim_Normal",
			"uri":"T_Trim_Normal.png"
		},
		{
			"mimeType":"image/png",
			"name":"T_Trim_BaseColor",
			"uri":"T_Trim_BaseColor.png"
		},
		{
			"mimeType":"image/png",
			"name":"T_Trim_ORM",
			"uri":"T_Trim_ORM.png"
		},
		{
			"mimeType":"image/png",
			"name":"T_Ornaments_Normal",
			"uri":"T_Ornaments_Normal.png"
		},
		{
			"mimeType":"image/png",
			"name":"T_Ornaments_BaseColor",
			"uri":"T_Ornaments_BaseColor.png"
		},
		{
			"mimeType":"image/png",
			"name":"T_Ornaments_ORM",
			"uri":"T_Ornaments_ORM.png"
		}
	],
	"accessors":[
		{
			"bufferView":0,
			"componentType":5126,
			"count":1449,
			"max":[
				2.020371437072754,
				4.443244934082031,
				0.8534330129623413
			],
			"min":[
				-2.020371437072754,
				0,
				-0.3741428256034851
			],
			"type":"VEC3"
		},
		{
			"bufferView":1,
			"componentType":5126,
			"count":1449,
			"type":"VEC3"
		},
		{
			"bufferView":2,
			"componentType":5126,
			"count":1449,
			"type":"VEC2"
		},
		{
			"bufferView":3,
			"componentType":5126,
			"count":1449,
			"type":"VEC2"
		},
		{
			"bufferView":4,
			"componentType":5121,
			"count":1449,
			"normalized":true,
			"type":"VEC4"
		},
		{
			"bufferView":5,
			"componentType":5123,
			"count":1449,
			"normalized":true,
			"type":"VEC4"
		},
		{
			"bufferView":6,
			"componentType":5123,
			"count":3456,
			"type":"SCALAR"
		},
		{
			"bufferView":7,
			"componentType":5126,
			"count":234,
			"max":[
				1.6374868154525757,
				3.522329092025757,
				0.3458438515663147
			],
			"min":[
				-1.6374868154525757,
				0,
				-0.3458438515663147
			],
			"type":"VEC3"
		},
		{
			"bufferView":8,
			"componentType":5126,
			"count":234,
			"type":"VEC3"
		},
		{
			"bufferView":9,
			"componentType":5126,
			"count":234,
			"type":"VEC2"
		},
		{
			"bufferView":10,
			"componentType":5126,
			"count":234,
			"type":"VEC2"
		},
		{
			"bufferView":11,
			"componentType":5121,
			"count":234,
			"normalized":true,
			"type":"VEC4"
		},
		{
			"bufferView":12,
			"componentType":5123,
			"count":234,
			"normalized":true,
			"type":"VEC4"
		},
		{
			"bufferView":13,
			"componentType":5123,
			"count":552,
			"type":"SCALAR"
		}
	],
	"bufferViews":[
		{
			"buffer":0,
			"byteLength":17388,
			"byteOffset":0,
			"target":34962
		},
		{
			"buffer":0,
			"byteLength":17388,
			"byteOffset":17388,
			"target":34962
		},
		{
			"buffer":0,
			"byteLength":11592,
			"byteOffset":34776,
			"target":34962
		},
		{
			"buffer":0,
			"byteLength":11592,
			"byteOffset":46368,
			"target":34962
		},
		{
			"buffer":0,
			"byteLength":5796,
			"byteOffset":57960,
			"target":34962
		},
		{
			"buffer":0,
			"byteLength":11592,
			"byteOffset":63756,
			"target":34962
		},
		{
			"buffer":0,
			"byteLength":6912,
			"byteOffset":75348,
			"target":34963
		},
		{
			"buffer":0,
			"byteLength":2808,
			"byteOffset":82260,
			"target":34962
		},
		{
			"buffer":0,
			"byteLength":2808,
			"byteOffset":85068,
			"target":34962
		},
		{
			"buffer":0,
			"byteLength":1872,
			"byteOffset":87876,
			"target":34962
		},
		{
			"buffer":0,
			"byteLength":1872,
			"byteOffset":89748,
			"target":34962
		},
		{
			"buffer":0,
			"byteLength":936,
			"byteOffset":91620,
			"target":34962
		},
		{
			"buffer":0,
			"byteLength":1872,
			"byteOffset":92556,
			"target":34962
		},
		{
			"buffer":0,
			"byteLength":1104,
			"byteOffset":94428,
			"target":34963
		}
	],
	"samplers":[
		{
			"magFilter":9729,
			"minFilter":9987
		}
	],
	"buffers":[
		{
			"byteLength":95532,
			"uri":"Prop_EntranceArch.bin"
		}
	]
}
