{
	"asset":{
		"generator":"Khronos glTF Blender I/O v4.3.47",
		"version":"2.0"
	},
	"scene":0,
	"scenes":[
		{
			"name":"Scene",
			"nodes":[
				0
			]
		}
	],
	"nodes":[
		{
			"mesh":0,
			"name":"Prop_Ornament_3"
		}
	],
	"materials":[
		{
			"doubleSided":true,
			"name":"MI_Ornaments",
			"normalTexture":{
				"index":0
			},
			"pbrMetallicRoughness":{
				"baseColorTexture":{
					"index":1
				},
				"metallicRoughnessTexture":{
					"index":2
				}
			}
		}
	],
	"meshes":[
		{
			"name":"Cube.217",
			"primitives":[
				{
					"attributes":{
						"POSITION":0,
						"NORMAL":1,
						"TEXCOORD_0":2,
						"TEXCOORD_1":3,
						"COLOR_0":4
					},
					"indices":5,
					"material":0
				}
			]
		}
	],
	"textures":[
		{
			"sampler":0,
			"source":0
		},
		{
			"sampler":0,
			"source":1
		},
		{
			"sampler":0,
			"source":2
		}
	],
	"images":[
		{
			"mimeType":"image/png",
			"name":"T_Ornaments_Normal",
			"uri":"T_Ornaments_Normal.png"
		},
		{
			"mimeType":"image/png",
			"name":"T_Ornaments_BaseColor",
			"uri":"T_Ornaments_BaseColor.png"
		},
		{
			"mimeType":"image/png",
			"name":"T_Ornaments_ORM",
			"uri":"T_Ornaments_ORM.png"
		}
	],
	"accessors":[
		{
			"bufferView":0,
			"componentType":5126,
			"count":20,
			"max":[
				0.27056920528411865,
				0.2705692648887634,
				0.04974444583058357
			],
			"min":[
				-0.27056920528411865,
				-0.27056920528411865,
				-7.972121238708496e-07
			],
			"type":"VEC3"
		},
		{
			"bufferView":1,
			"componentType":5126,
			"count":20,
			"type":"VEC3"
		},
		{
			"bufferView":2,
			"componentType":5126,
			"count":20,
			"type":"VEC2"
		},
		{
			"bufferView":3,
			"componentType":5126,
			"count":20,
			"type":"VEC2"
		},
		{
			"bufferView":4,
			"componentType":5123,
			"count":20,
			"normalized":true,
			"type":"VEC4"
		},
		{
			"bufferView":5,
			"componentType":5123,
			"count":30,
			"type":"SCALAR"
		}
	],
	"bufferViews":[
		{
			"buffer":0,
			"byteLength":240,
			"byteOffset":0,
			"target":34962
		},
		{
			"buffer":0,
			"byteLength":240,
			"byteOffset":240,
			"target":34962
		},
		{
			"buffer":0,
			"byteLength":160,
			"byteOffset":480,
			"target":34962
		},
		{
			"buffer":0,
			"byteLength":160,
			"byteOffset":640,
			"target":34962
		},
		{
			"buffer":0,
			"byteLength":160,
			"byteOffset":800,
			"target":34962
		},
		{
			"buffer":0,
			"byteLength":60,
			"byteOffset":960,
			"target":34963
		}
	],
	"samplers":[
		{
			"magFilter":9729,
			"minFilter":9987
		}
	],
	"buffers":[
		{
			"byteLength":1020,
			"uri":"Prop_Ornament_3.bin"
		}
	]
}
