{
	"asset":{
		"generator":"Khronos glTF Blender I/O v4.3.47",
		"version":"2.0"
	},
	"scene":0,
	"scenes":[
		{
			"name":"Scene",
			"nodes":[
				0
			]
		}
	],
	"nodes":[
		{
			"mesh":0,
			"name":"Prop_Column_Trim"
		}
	],
	"materials":[
		{
			"doubleSided":true,
			"name":"MI_Trim",
			"normalTexture":{
				"index":0
			},
			"pbrMetallicRoughness":{
				"baseColorTexture":{
					"index":1
				},
				"metallicRoughnessTexture":{
					"index":2
				}
			}
		}
	],
	"meshes":[
		{
			"name":"Cube.107",
			"primitives":[
				{
					"attributes":{
						"POSITION":0,
						"NORMAL":1,
						"TEXCOORD_0":2,
						"TEXCOORD_1":3,
						"COLOR_0":4,
						"COLOR_1":5
					},
					"indices":6,
					"material":0
				}
			]
		}
	],
	"textures":[
		{
			"sampler":0,
			"source":0
		},
		{
			"sampler":0,
			"source":1
		},
		{
			"sampler":0,
			"source":2
		}
	],
	"images":[
		{
			"mimeType":"image/png",
			"name":"T_Trim_Normal",
			"uri":"T_Trim_Normal.png"
		},
		{
			"mimeType":"image/png",
			"name":"T_Trim_BaseColor",
			"uri":"T_Trim_BaseColor.png"
		},
		{
			"mimeType":"image/png",
			"name":"T_Trim_ORM",
			"uri":"T_Trim_ORM.png"
		}
	],
	"accessors":[
		{
			"bufferView":0,
			"componentType":5126,
			"count":701,
			"max":[
				0.27146297693252563,
				2.976278781890869,
				0.2769604027271271
			],
			"min":[
				-0.2714895009994507,
				0,
				-0.27696043252944946
			],
			"type":"VEC3"
		},
		{
			"bufferView":1,
			"componentType":5126,
			"count":701,
			"type":"VEC3"
		},
		{
			"bufferView":2,
			"componentType":5126,
			"count":701,
			"type":"VEC2"
		},
		{
			"bufferView":3,
			"componentType":5126,
			"count":701,
			"type":"VEC2"
		},
		{
			"bufferView":4,
			"componentType":5121,
			"count":701,
			"normalized":true,
			"type":"VEC4"
		},
		{
			"bufferView":5,
			"componentType":5123,
			"count":701,
			"normalized":true,
			"type":"VEC4"
		},
		{
			"bufferView":6,
			"componentType":5123,
			"count":2208,
			"type":"SCALAR"
		}
	],
	"bufferViews":[
		{
			"buffer":0,
			"byteLength":8412,
			"byteOffset":0,
			"target":34962
		},
		{
			"buffer":0,
			"byteLength":8412,
			"byteOffset":8412,
			"target":34962
		},
		{
			"buffer":0,
			"byteLength":5608,
			"byteOffset":16824,
			"target":34962
		},
		{
			"buffer":0,
			"byteLength":5608,
			"byteOffset":22432,
			"target":34962
		},
		{
			"buffer":0,
			"byteLength":2804,
			"byteOffset":28040,
			"target":34962
		},
		{
			"buffer":0,
			"byteLength":5608,
			"byteOffset":30844,
			"target":34962
		},
		{
			"buffer":0,
			"byteLength":4416,
			"byteOffset":36452,
			"target":34963
		}
	],
	"samplers":[
		{
			"magFilter":9729,
			"minFilter":9987
		}
	],
	"buffers":[
		{
			"byteLength":40868,
			"uri":"Prop_Column_Trim.bin"
		}
	]
}
