{
	"asset":{
		"generator":"Khronos glTF Blender I/O v4.3.47",
		"version":"2.0"
	},
	"scene":0,
	"scenes":[
		{
			"name":"Scene",
			"nodes":[
				0
			]
		}
	],
	"nodes":[
		{
			"mesh":0,
			"name":"Prop_Awning_Carmines"
		}
	],
	"materials":[
		{
			"doubleSided":true,
			"name":"MI_Awning",
			"normalTexture":{
				"index":0
			},
			"pbrMetallicRoughness":{
				"baseColorTexture":{
					"index":1
				},
				"metallicRoughnessTexture":{
					"index":2
				}
			}
		},
		{
			"doubleSided":true,
			"name":"MI_Trim_MetalConcrete",
			"normalTexture":{
				"index":3
			},
			"pbrMetallicRoughness":{
				"baseColorTexture":{
					"index":4
				},
				"metallicRoughnessTexture":{
					"index":5
				}
			}
		},
		{
			"doubleSided":true,
			"name":"MI_Shop_Signs",
			"normalTexture":{
				"index":6
			},
			"pbrMetallicRoughness":{
				"baseColorTexture":{
					"index":7
				},
				"metallicFactor":0
			}
		}
	],
	"meshes":[
		{
			"name":"Cube.162",
			"primitives":[
				{
					"attributes":{
						"POSITION":0,
						"NORMAL":1,
						"TEXCOORD_0":2,
						"TEXCOORD_1":3,
						"COLOR_0":4,
						"COLOR_1":5
					},
					"indices":6,
					"material":0
				},
				{
					"attributes":{
						"POSITION":7,
						"NORMAL":8,
						"TEXCOORD_0":9,
						"TEXCOORD_1":10,
						"COLOR_0":11,
						"COLOR_1":12
					},
					"indices":13,
					"material":1
				},
				{
					"attributes":{
						"POSITION":14,
						"NORMAL":15,
						"TEXCOORD_0":16,
						"TEXCOORD_1":17,
						"COLOR_0":18,
						"COLOR_1":19
					},
					"indices":20,
					"material":2
				}
			]
		}
	],
	"textures":[
		{
			"sampler":0,
			"source":0
		},
		{
			"sampler":0,
			"source":1
		},
		{
			"sampler":0,
			"source":2
		},
		{
			"sampler":0,
			"source":3
		},
		{
			"sampler":0,
			"source":4
		},
		{
			"sampler":0,
			"source":5
		},
		{
			"sampler":0,
			"source":6
		},
		{
			"sampler":0,
			"source":7
		}
	],
	"images":[
		{
			"mimeType":"image/png",
			"name":"T_Ornaments_Normal",
			"uri":"T_Ornaments_Normal.png"
		},
		{
			"mimeType":"image/png",
			"name":"T_Ornaments_BaseColor",
			"uri":"T_Ornaments_BaseColor.png"
		},
		{
			"mimeType":"image/png",
			"name":"T_Ornaments_ORM",
			"uri":"T_Ornaments_ORM.png"
		},
		{
			"mimeType":"image/png",
			"name":"T_MetalConcrete_Normal",
			"uri":"T_MetalConcrete_Normal.png"
		},
		{
			"mimeType":"image/png",
			"name":"T_MetalConcrete_BaseColor",
			"uri":"T_MetalConcrete_BaseColor.png"
		},
		{
			"mimeType":"image/png",
			"name":"T_MetalConcrete_ORM",
			"uri":"T_MetalConcrete_ORM.png"
		},
		{
			"mimeType":"image/png",
			"name":"T_Shop_Signs_Normal",
			"uri":"T_Shop_Signs_Normal.png"
		},
		{
			"mimeType":"image/png",
			"name":"T_Shop_Signs_BaseColor",
			"uri":"T_Shop_Signs_BaseColor.png"
		}
	],
	"accessors":[
		{
			"bufferView":0,
			"componentType":5126,
			"count":66,
			"max":[
				1.4028234481811523,
				3.804994583129883,
				1.5102041959762573
			],
			"min":[
				-1.4028234481811523,
				3.088200807571411,
				0.0299999862909317
			],
			"type":"VEC3"
		},
		{
			"bufferView":1,
			"componentType":5126,
			"count":66,
			"type":"VEC3"
		},
		{
			"bufferView":2,
			"componentType":5126,
			"count":66,
			"type":"VEC2"
		},
		{
			"bufferView":3,
			"componentType":5126,
			"count":66,
			"type":"VEC2"
		},
		{
			"bufferView":4,
			"componentType":5121,
			"count":66,
			"normalized":true,
			"type":"VEC4"
		},
		{
			"bufferView":5,
			"componentType":5123,
			"count":66,
			"normalized":true,
			"type":"VEC4"
		},
		{
			"bufferView":6,
			"componentType":5123,
			"count":144,
			"type":"SCALAR"
		},
		{
			"bufferView":7,
			"componentType":5126,
			"count":108,
			"max":[
				1.4250130653381348,
				3.8070178031921387,
				1.4988514184951782
			],
			"min":[
				-1.425012469291687,
				3.0549991130828857,
				-0.017791926860809326
			],
			"type":"VEC3"
		},
		{
			"bufferView":8,
			"componentType":5126,
			"count":108,
			"type":"VEC3"
		},
		{
			"bufferView":9,
			"componentType":5126,
			"count":108,
			"type":"VEC2"
		},
		{
			"bufferView":10,
			"componentType":5126,
			"count":108,
			"type":"VEC2"
		},
		{
			"bufferView":11,
			"componentType":5121,
			"count":108,
			"normalized":true,
			"type":"VEC4"
		},
		{
			"bufferView":12,
			"componentType":5123,
			"count":108,
			"normalized":true,
			"type":"VEC4"
		},
		{
			"bufferView":13,
			"componentType":5123,
			"count":228,
			"type":"SCALAR"
		},
		{
			"bufferView":14,
			"componentType":5126,
			"count":26,
			"max":[
				1.4028234481811523,
				3.093195676803589,
				1.5102041959762573
			],
			"min":[
				-1.4028234481811523,
				2.882481575012207,
				1.4999998807907104
			],
			"type":"VEC3"
		},
		{
			"bufferView":15,
			"componentType":5126,
			"count":26,
			"type":"VEC3"
		},
		{
			"bufferView":16,
			"componentType":5126,
			"count":26,
			"type":"VEC2"
		},
		{
			"bufferView":17,
			"componentType":5126,
			"count":26,
			"type":"VEC2"
		},
		{
			"bufferView":18,
			"componentType":5121,
			"count":26,
			"normalized":true,
			"type":"VEC4"
		},
		{
			"bufferView":19,
			"componentType":5123,
			"count":26,
			"normalized":true,
			"type":"VEC4"
		},
		{
			"bufferView":20,
			"componentType":5123,
			"count":48,
			"type":"SCALAR"
		}
	],
	"bufferViews":[
		{
			"buffer":0,
			"byteLength":792,
			"byteOffset":0,
			"target":34962
		},
		{
			"buffer":0,
			"byteLength":792,
			"byteOffset":792,
			"target":34962
		},
		{
			"buffer":0,
			"byteLength":528,
			"byteOffset":1584,
			"target":34962
		},
		{
			"buffer":0,
			"byteLength":528,
			"byteOffset":2112,
			"target":34962
		},
		{
			"buffer":0,
			"byteLength":264,
			"byteOffset":2640,
			"target":34962
		},
		{
			"buffer":0,
			"byteLength":528,
			"byteOffset":2904,
			"target":34962
		},
		{
			"buffer":0,
			"byteLength":288,
			"byteOffset":3432,
			"target":34963
		},
		{
			"buffer":0,
			"byteLength":1296,
			"byteOffset":3720,
			"target":34962
		},
		{
			"buffer":0,
			"byteLength":1296,
			"byteOffset":5016,
			"target":34962
		},
		{
			"buffer":0,
			"byteLength":864,
			"byteOffset":6312,
			"target":34962
		},
		{
			"buffer":0,
			"byteLength":864,
			"byteOffset":7176,
			"target":34962
		},
		{
			"buffer":0,
			"byteLength":432,
			"byteOffset":8040,
			"target":34962
		},
		{
			"buffer":0,
			"byteLength":864,
			"byteOffset":8472,
			"target":34962
		},
		{
			"buffer":0,
			"byteLength":456,
			"byteOffset":9336,
			"target":34963
		},
		{
			"buffer":0,
			"byteLength":312,
			"byteOffset":9792,
			"target":34962
		},
		{
			"buffer":0,
			"byteLength":312,
			"byteOffset":10104,
			"target":34962
		},
		{
			"buffer":0,
			"byteLength":208,
			"byteOffset":10416,
			"target":34962
		},
		{
			"buffer":0,
			"byteLength":208,
			"byteOffset":10624,
			"target":34962
		},
		{
			"buffer":0,
			"byteLength":104,
			"byteOffset":10832,
			"target":34962
		},
		{
			"buffer":0,
			"byteLength":208,
			"byteOffset":10936,
			"target":34962
		},
		{
			"buffer":0,
			"byteLength":96,
			"byteOffset":11144,
			"target":34963
		}
	],
	"samplers":[
		{
			"magFilter":9729,
			"minFilter":9987
		}
	],
	"buffers":[
		{
			"byteLength":11240,
			"uri":"Prop_Awning_Carmines.bin"
		}
	]
}
