{
	"asset":{
		"generator":"Khronos glTF Blender I/O v4.3.47",
		"version":"2.0"
	},
	"scene":0,
	"scenes":[
		{
			"name":"Scene",
			"nodes":[
				0
			]
		}
	],
	"nodes":[
		{
			"mesh":0,
			"name":"Prop_ColumnArch",
			"scale":[
				1.0965100526809692,
				1,
				1
			]
		}
	],
	"materials":[
		{
			"doubleSided":true,
			"name":"MI_Trim",
			"normalTexture":{
				"index":0
			},
			"pbrMetallicRoughness":{
				"baseColorTexture":{
					"index":1
				},
				"metallicRoughnessTexture":{
					"index":2
				}
			}
		}
	],
	"meshes":[
		{
			"name":"Cube.103",
			"primitives":[
				{
					"attributes":{
						"POSITION":0,
						"NORMAL":1,
						"TEXCOORD_0":2,
						"TEXCOORD_1":3,
						"COLOR_0":4,
						"COLOR_1":5
					},
					"indices":6,
					"material":0
				}
			]
		}
	],
	"textures":[
		{
			"sampler":0,
			"source":0
		},
		{
			"sampler":0,
			"source":1
		},
		{
			"sampler":0,
			"source":2
		}
	],
	"images":[
		{
			"mimeType":"image/png",
			"name":"T_Trim_Normal",
			"uri":"T_Trim_Normal.png"
		},
		{
			"mimeType":"image/png",
			"name":"T_Trim_BaseColor",
			"uri":"T_Trim_BaseColor.png"
		},
		{
			"mimeType":"image/png",
			"name":"T_Trim_ORM",
			"uri":"T_Trim_ORM.png"
		}
	],
	"accessors":[
		{
			"bufferView":0,
			"componentType":5126,
			"count":1906,
			"max":[
				1.6676371097564697,
				3.222198486328125,
				1.153433084487915
			],
			"min":[
				-1.6676371097564697,
				0.0033148527145385742,
				-0.054182227700948715
			],
			"type":"VEC3"
		},
		{
			"bufferView":1,
			"componentType":5126,
			"count":1906,
			"type":"VEC3"
		},
		{
			"bufferView":2,
			"componentType":5126,
			"count":1906,
			"type":"VEC2"
		},
		{
			"bufferView":3,
			"componentType":5126,
			"count":1906,
			"type":"VEC2"
		},
		{
			"bufferView":4,
			"componentType":5121,
			"count":1906,
			"normalized":true,
			"type":"VEC4"
		},
		{
			"bufferView":5,
			"componentType":5123,
			"count":1906,
			"normalized":true,
			"type":"VEC4"
		},
		{
			"bufferView":6,
			"componentType":5123,
			"count":5316,
			"type":"SCALAR"
		}
	],
	"bufferViews":[
		{
			"buffer":0,
			"byteLength":22872,
			"byteOffset":0,
			"target":34962
		},
		{
			"buffer":0,
			"byteLength":22872,
			"byteOffset":22872,
			"target":34962
		},
		{
			"buffer":0,
			"byteLength":15248,
			"byteOffset":45744,
			"target":34962
		},
		{
			"buffer":0,
			"byteLength":15248,
			"byteOffset":60992,
			"target":34962
		},
		{
			"buffer":0,
			"byteLength":7624,
			"byteOffset":76240,
			"target":34962
		},
		{
			"buffer":0,
			"byteLength":15248,
			"byteOffset":83864,
			"target":34962
		},
		{
			"buffer":0,
			"byteLength":10632,
			"byteOffset":99112,
			"target":34963
		}
	],
	"samplers":[
		{
			"magFilter":9729,
			"minFilter":9987
		}
	],
	"buffers":[
		{
			"byteLength":109744,
			"uri":"Prop_ColumnArch.bin"
		}
	]
}
