{
	"asset":{
		"generator":"Khronos glTF Blender I/O v4.3.47",
		"version":"2.0"
	},
	"scene":0,
	"scenes":[
		{
			"name":"Scene",
			"nodes":[
				0
			]
		}
	],
	"nodes":[
		{
			"mesh":0,
			"name":"Prop_FireEscape_Center"
		}
	],
	"materials":[
		{
			"doubleSided":true,
			"name":"MI_Trim_MetalConcrete",
			"normalTexture":{
				"index":0
			},
			"pbrMetallicRoughness":{
				"baseColorTexture":{
					"index":1
				},
				"metallicRoughnessTexture":{
					"index":2
				}
			}
		}
	],
	"meshes":[
		{
			"name":"Plane.046",
			"primitives":[
				{
					"attributes":{
						"POSITION":0,
						"NORMAL":1,
						"TEXCOORD_0":2,
						"TEXCOORD_1":3
					},
					"indices":4,
					"material":0
				}
			]
		}
	],
	"textures":[
		{
			"sampler":0,
			"source":0
		},
		{
			"sampler":0,
			"source":1
		},
		{
			"sampler":0,
			"source":2
		}
	],
	"images":[
		{
			"mimeType":"image/png",
			"name":"T_MetalConcrete_Normal",
			"uri":"T_MetalConcrete_Normal.png"
		},
		{
			"mimeType":"image/png",
			"name":"T_MetalConcrete_BaseColor",
			"uri":"T_MetalConcrete_BaseColor.png"
		},
		{
			"mimeType":"image/png",
			"name":"T_MetalConcrete_ORM",
			"uri":"T_MetalConcrete_ORM.png"
		}
	],
	"accessors":[
		{
			"bufferView":0,
			"componentType":5126,
			"count":2828,
			"max":[
				2.4006612300872803,
				3.0360779762268066,
				1.9445557594299316
			],
			"min":[
				-2.4006612300872803,
				-0.036416295915842056,
				-0.03115733712911606
			],
			"type":"VEC3"
		},
		{
			"bufferView":1,
			"componentType":5126,
			"count":2828,
			"type":"VEC3"
		},
		{
			"bufferView":2,
			"componentType":5126,
			"count":2828,
			"type":"VEC2"
		},
		{
			"bufferView":3,
			"componentType":5126,
			"count":2828,
			"type":"VEC2"
		},
		{
			"bufferView":4,
			"componentType":5123,
			"count":4272,
			"type":"SCALAR"
		}
	],
	"bufferViews":[
		{
			"buffer":0,
			"byteLength":33936,
			"byteOffset":0,
			"target":34962
		},
		{
			"buffer":0,
			"byteLength":33936,
			"byteOffset":33936,
			"target":34962
		},
		{
			"buffer":0,
			"byteLength":22624,
			"byteOffset":67872,
			"target":34962
		},
		{
			"buffer":0,
			"byteLength":22624,
			"byteOffset":90496,
			"target":34962
		},
		{
			"buffer":0,
			"byteLength":8544,
			"byteOffset":113120,
			"target":34963
		}
	],
	"samplers":[
		{
			"magFilter":9729,
			"minFilter":9987
		}
	],
	"buffers":[
		{
			"byteLength":121664,
			"uri":"Prop_FireEscape_Center.bin"
		}
	]
}
