{
	"asset":{
		"generator":"Khronos glTF Blender I/O v4.3.47",
		"version":"2.0"
	},
	"scene":0,
	"scenes":[
		{
			"name":"Scene",
			"nodes":[
				0
			]
		}
	],
	"nodes":[
		{
			"mesh":0,
			"name":"Prop_Planter_Small_Side_L"
		}
	],
	"materials":[
		{
			"doubleSided":true,
			"name":"MI_Trim_MetalConcrete",
			"normalTexture":{
				"index":0
			},
			"pbrMetallicRoughness":{
				"baseColorTexture":{
					"index":1
				},
				"metallicRoughnessTexture":{
					"index":2
				}
			}
		},
		{
			"doubleSided":true,
			"name":"MI_Dirt",
			"normalTexture":{
				"index":3
			},
			"pbrMetallicRoughness":{
				"baseColorTexture":{
					"index":4
				},
				"metallicRoughnessTexture":{
					"index":5
				}
			}
		}
	],
	"meshes":[
		{
			"name":"Cube.123",
			"primitives":[
				{
					"attributes":{
						"POSITION":0,
						"NORMAL":1,
						"TEXCOORD_0":2,
						"TEXCOORD_1":3
					},
					"indices":4,
					"material":0
				},
				{
					"attributes":{
						"POSITION":5,
						"NORMAL":6,
						"TEXCOORD_0":7,
						"TEXCOORD_1":8
					},
					"indices":9,
					"material":1
				}
			]
		}
	],
	"textures":[
		{
			"sampler":0,
			"source":0
		},
		{
			"sampler":0,
			"source":1
		},
		{
			"sampler":0,
			"source":2
		},
		{
			"sampler":0,
			"source":3
		},
		{
			"sampler":0,
			"source":4
		},
		{
			"sampler":0,
			"source":5
		}
	],
	"images":[
		{
			"mimeType":"image/png",
			"name":"T_MetalConcrete_Normal",
			"uri":"T_MetalConcrete_Normal.png"
		},
		{
			"mimeType":"image/png",
			"name":"T_MetalConcrete_BaseColor",
			"uri":"T_MetalConcrete_BaseColor.png"
		},
		{
			"mimeType":"image/png",
			"name":"T_MetalConcrete_ORM",
			"uri":"T_MetalConcrete_ORM.png"
		},
		{
			"mimeType":"image/png",
			"name":"T_Dirt_Normal",
			"uri":"T_Dirt_Normal.png"
		},
		{
			"mimeType":"image/png",
			"name":"T_Dirt_BaseColor",
			"uri":"T_Dirt_BaseColor.png"
		},
		{
			"mimeType":"image/png",
			"name":"T_Dirt_ORM",
			"uri":"T_Dirt_ORM.png"
		}
	],
	"accessors":[
		{
			"bufferView":0,
			"componentType":5126,
			"count":155,
			"max":[
				1.000000238418579,
				0.6000000238418579,
				0.49987339973449707
			],
			"min":[
				-1,
				0,
				-0.49987339973449707
			],
			"type":"VEC3"
		},
		{
			"bufferView":1,
			"componentType":5126,
			"count":155,
			"type":"VEC3"
		},
		{
			"bufferView":2,
			"componentType":5126,
			"count":155,
			"type":"VEC2"
		},
		{
			"bufferView":3,
			"componentType":5126,
			"count":155,
			"type":"VEC2"
		},
		{
			"bufferView":4,
			"componentType":5123,
			"count":267,
			"type":"SCALAR"
		},
		{
			"bufferView":5,
			"componentType":5126,
			"count":4,
			"max":[
				1,
				0.5786258578300476,
				0.31642407178878784
			],
			"min":[
				-0.8140485286712646,
				0.5786258578300476,
				-0.32357603311538696
			],
			"type":"VEC3"
		},
		{
			"bufferView":6,
			"componentType":5126,
			"count":4,
			"type":"VEC3"
		},
		{
			"bufferView":7,
			"componentType":5126,
			"count":4,
			"type":"VEC2"
		},
		{
			"bufferView":8,
			"componentType":5126,
			"count":4,
			"type":"VEC2"
		},
		{
			"bufferView":9,
			"componentType":5123,
			"count":6,
			"type":"SCALAR"
		}
	],
	"bufferViews":[
		{
			"buffer":0,
			"byteLength":1860,
			"byteOffset":0,
			"target":34962
		},
		{
			"buffer":0,
			"byteLength":1860,
			"byteOffset":1860,
			"target":34962
		},
		{
			"buffer":0,
			"byteLength":1240,
			"byteOffset":3720,
			"target":34962
		},
		{
			"buffer":0,
			"byteLength":1240,
			"byteOffset":4960,
			"target":34962
		},
		{
			"buffer":0,
			"byteLength":534,
			"byteOffset":6200,
			"target":34963
		},
		{
			"buffer":0,
			"byteLength":48,
			"byteOffset":6736,
			"target":34962
		},
		{
			"buffer":0,
			"byteLength":48,
			"byteOffset":6784,
			"target":34962
		},
		{
			"buffer":0,
			"byteLength":32,
			"byteOffset":6832,
			"target":34962
		},
		{
			"buffer":0,
			"byteLength":32,
			"byteOffset":6864,
			"target":34962
		},
		{
			"buffer":0,
			"byteLength":12,
			"byteOffset":6896,
			"target":34963
		}
	],
	"samplers":[
		{
			"magFilter":9729,
			"minFilter":9987
		}
	],
	"buffers":[
		{
			"byteLength":6908,
			"uri":"Prop_Planter_Small_Side_L.bin"
		}
	]
}
