{
	"asset":{
		"generator":"Khronos glTF Blender I/O v4.3.47",
		"version":"2.0"
	},
	"scene":0,
	"scenes":[
		{
			"name":"Scene",
			"nodes":[
				0
			]
		}
	],
	"nodes":[
		{
			"mesh":0,
			"name":"Prop_Awning_Carmines_Long"
		}
	],
	"materials":[
		{
			"doubleSided":true,
			"name":"MI_Awning",
			"normalTexture":{
				"index":0
			},
			"pbrMetallicRoughness":{
				"baseColorTexture":{
					"index":1
				},
				"metallicRoughnessTexture":{
					"index":2
				}
			}
		},
		{
			"doubleSided":true,
			"name":"MI_Trim_MetalConcrete",
			"normalTexture":{
				"index":3
			},
			"pbrMetallicRoughness":{
				"baseColorTexture":{
					"index":4
				},
				"metallicRoughnessTexture":{
					"index":5
				}
			}
		},
		{
			"doubleSided":true,
			"name":"MI_Shop_Signs",
			"normalTexture":{
				"index":6
			},
			"pbrMetallicRoughness":{
				"baseColorTexture":{
					"index":7
				},
				"metallicFactor":0
			}
		}
	],
	"meshes":[
		{
			"name":"Cube.172",
			"primitives":[
				{
					"attributes":{
						"POSITION":0,
						"NORMAL":1,
						"TEXCOORD_0":2,
						"TEXCOORD_1":3,
						"COLOR_0":4,
						"COLOR_1":5
					},
					"indices":6,
					"material":0
				},
				{
					"attributes":{
						"POSITION":7,
						"NORMAL":8,
						"TEXCOORD_0":9,
						"TEXCOORD_1":10,
						"COLOR_0":11,
						"COLOR_1":12
					},
					"indices":13,
					"material":1
				},
				{
					"attributes":{
						"POSITION":14,
						"NORMAL":15,
						"TEXCOORD_0":16,
						"TEXCOORD_1":17,
						"COLOR_0":18,
						"COLOR_1":19
					},
					"indices":20,
					"material":2
				}
			]
		}
	],
	"textures":[
		{
			"sampler":0,
			"source":0
		},
		{
			"sampler":0,
			"source":1
		},
		{
			"sampler":0,
			"source":2
		},
		{
			"sampler":0,
			"source":3
		},
		{
			"sampler":0,
			"source":4
		},
		{
			"sampler":0,
			"source":5
		},
		{
			"sampler":0,
			"source":6
		},
		{
			"sampler":0,
			"source":7
		}
	],
	"images":[
		{
			"mimeType":"image/png",
			"name":"T_Ornaments_Normal",
			"uri":"T_Ornaments_Normal.png"
		},
		{
			"mimeType":"image/png",
			"name":"T_Ornaments_BaseColor",
			"uri":"T_Ornaments_BaseColor.png"
		},
		{
			"mimeType":"image/png",
			"name":"T_Ornaments_ORM",
			"uri":"T_Ornaments_ORM.png"
		},
		{
			"mimeType":"image/png",
			"name":"T_MetalConcrete_Normal",
			"uri":"T_MetalConcrete_Normal.png"
		},
		{
			"mimeType":"image/png",
			"name":"T_MetalConcrete_BaseColor",
			"uri":"T_MetalConcrete_BaseColor.png"
		},
		{
			"mimeType":"image/png",
			"name":"T_MetalConcrete_ORM",
			"uri":"T_MetalConcrete_ORM.png"
		},
		{
			"mimeType":"image/png",
			"name":"T_Shop_Signs_Normal",
			"uri":"T_Shop_Signs_Normal.png"
		},
		{
			"mimeType":"image/png",
			"name":"T_Shop_Signs_BaseColor",
			"uri":"T_Shop_Signs_BaseColor.png"
		}
	],
	"accessors":[
		{
			"bufferView":0,
			"componentType":5126,
			"count":52,
			"max":[
				2.8056468963623047,
				3.804994583129883,
				1.5102041959762573
			],
			"min":[
				-2.8056468963623047,
				3.088200807571411,
				0.0299999862909317
			],
			"type":"VEC3"
		},
		{
			"bufferView":1,
			"componentType":5126,
			"count":52,
			"type":"VEC3"
		},
		{
			"bufferView":2,
			"componentType":5126,
			"count":52,
			"type":"VEC2"
		},
		{
			"bufferView":3,
			"componentType":5126,
			"count":52,
			"type":"VEC2"
		},
		{
			"bufferView":4,
			"componentType":5121,
			"count":52,
			"normalized":true,
			"type":"VEC4"
		},
		{
			"bufferView":5,
			"componentType":5123,
			"count":52,
			"normalized":true,
			"type":"VEC4"
		},
		{
			"bufferView":6,
			"componentType":5123,
			"count":96,
			"type":"SCALAR"
		},
		{
			"bufferView":7,
			"componentType":5126,
			"count":116,
			"max":[
				2.8500261306762695,
				3.8070178031921387,
				1.4988514184951782
			],
			"min":[
				-2.850024938583374,
				3.0549991130828857,
				-0.017791926860809326
			],
			"type":"VEC3"
		},
		{
			"bufferView":8,
			"componentType":5126,
			"count":116,
			"type":"VEC3"
		},
		{
			"bufferView":9,
			"componentType":5126,
			"count":116,
			"type":"VEC2"
		},
		{
			"bufferView":10,
			"componentType":5126,
			"count":116,
			"type":"VEC2"
		},
		{
			"bufferView":11,
			"componentType":5121,
			"count":116,
			"normalized":true,
			"type":"VEC4"
		},
		{
			"bufferView":12,
			"componentType":5123,
			"count":116,
			"normalized":true,
			"type":"VEC4"
		},
		{
			"bufferView":13,
			"componentType":5123,
			"count":228,
			"type":"SCALAR"
		},
		{
			"bufferView":14,
			"componentType":5126,
			"count":20,
			"max":[
				2.8056468963623047,
				3.093195676803589,
				1.5102041959762573
			],
			"min":[
				-2.8056468963623047,
				2.882481575012207,
				1.4999998807907104
			],
			"type":"VEC3"
		},
		{
			"bufferView":15,
			"componentType":5126,
			"count":20,
			"type":"VEC3"
		},
		{
			"bufferView":16,
			"componentType":5126,
			"count":20,
			"type":"VEC2"
		},
		{
			"bufferView":17,
			"componentType":5126,
			"count":20,
			"type":"VEC2"
		},
		{
			"bufferView":18,
			"componentType":5121,
			"count":20,
			"normalized":true,
			"type":"VEC4"
		},
		{
			"bufferView":19,
			"componentType":5123,
			"count":20,
			"normalized":true,
			"type":"VEC4"
		},
		{
			"bufferView":20,
			"componentType":5123,
			"count":30,
			"type":"SCALAR"
		}
	],
	"bufferViews":[
		{
			"buffer":0,
			"byteLength":624,
			"byteOffset":0,
			"target":34962
		},
		{
			"buffer":0,
			"byteLength":624,
			"byteOffset":624,
			"target":34962
		},
		{
			"buffer":0,
			"byteLength":416,
			"byteOffset":1248,
			"target":34962
		},
		{
			"buffer":0,
			"byteLength":416,
			"byteOffset":1664,
			"target":34962
		},
		{
			"buffer":0,
			"byteLength":208,
			"byteOffset":2080,
			"target":34962
		},
		{
			"buffer":0,
			"byteLength":416,
			"byteOffset":2288,
			"target":34962
		},
		{
			"buffer":0,
			"byteLength":192,
			"byteOffset":2704,
			"target":34963
		},
		{
			"buffer":0,
			"byteLength":1392,
			"byteOffset":2896,
			"target":34962
		},
		{
			"buffer":0,
			"byteLength":1392,
			"byteOffset":4288,
			"target":34962
		},
		{
			"buffer":0,
			"byteLength":928,
			"byteOffset":5680,
			"target":34962
		},
		{
			"buffer":0,
			"byteLength":928,
			"byteOffset":6608,
			"target":34962
		},
		{
			"buffer":0,
			"byteLength":464,
			"byteOffset":7536,
			"target":34962
		},
		{
			"buffer":0,
			"byteLength":928,
			"byteOffset":8000,
			"target":34962
		},
		{
			"buffer":0,
			"byteLength":456,
			"byteOffset":8928,
			"target":34963
		},
		{
			"buffer":0,
			"byteLength":240,
			"byteOffset":9384,
			"target":34962
		},
		{
			"buffer":0,
			"byteLength":240,
			"byteOffset":9624,
			"target":34962
		},
		{
			"buffer":0,
			"byteLength":160,
			"byteOffset":9864,
			"target":34962
		},
		{
			"buffer":0,
			"byteLength":160,
			"byteOffset":10024,
			"target":34962
		},
		{
			"buffer":0,
			"byteLength":80,
			"byteOffset":10184,
			"target":34962
		},
		{
			"buffer":0,
			"byteLength":160,
			"byteOffset":10264,
			"target":34962
		},
		{
			"buffer":0,
			"byteLength":60,
			"byteOffset":10424,
			"target":34963
		}
	],
	"samplers":[
		{
			"magFilter":9729,
			"minFilter":9987
		}
	],
	"buffers":[
		{
			"byteLength":10484,
			"uri":"Prop_Awning_Carmines_Long.bin"
		}
	]
}
