{
	"asset":{
		"generator":"Khronos glTF Blender I/O v4.3.47",
		"version":"2.0"
	},
	"scene":0,
	"scenes":[
		{
			"name":"Scene",
			"nodes":[
				0
			]
		}
	],
	"nodes":[
		{
			"mesh":0,
			"name":"Sidewalk_Corner_Flat_1m",
			"rotation":[
				0,
				-0.7071068286895752,
				0,
				0.7071068286895752
			]
		}
	],
	"materials":[
		{
			"doubleSided":true,
			"name":"MI_Trim_MetalConcrete",
			"normalTexture":{
				"index":0
			},
			"pbrMetallicRoughness":{
				"baseColorTexture":{
					"index":1
				},
				"metallicRoughnessTexture":{
					"index":2
				}
			}
		}
	],
	"meshes":[
		{
			"name":"Cube.137",
			"primitives":[
				{
					"attributes":{
						"POSITION":0,
						"NORMAL":1,
						"TEXCOORD_0":2,
						"TEXCOORD_1":3,
						"COLOR_0":4
					},
					"indices":5,
					"material":0
				}
			]
		}
	],
	"textures":[
		{
			"sampler":0,
			"source":0
		},
		{
			"sampler":0,
			"source":1
		},
		{
			"sampler":0,
			"source":2
		}
	],
	"images":[
		{
			"mimeType":"image/png",
			"name":"T_MetalConcrete_Normal",
			"uri":"T_MetalConcrete_Normal.png"
		},
		{
			"mimeType":"image/png",
			"name":"T_MetalConcrete_BaseColor",
			"uri":"T_MetalConcrete_BaseColor.png"
		},
		{
			"mimeType":"image/png",
			"name":"T_MetalConcrete_ORM",
			"uri":"T_MetalConcrete_ORM.png"
		}
	],
	"accessors":[
		{
			"bufferView":0,
			"componentType":5126,
			"count":67,
			"max":[
				0.5100001096725464,
				2.9802322387695312e-08,
				0.5099999904632568
			],
			"min":[
				-0.5,
				-0.15000000596046448,
				-0.5
			],
			"type":"VEC3"
		},
		{
			"bufferView":1,
			"componentType":5126,
			"count":67,
			"type":"VEC3"
		},
		{
			"bufferView":2,
			"componentType":5126,
			"count":67,
			"type":"VEC2"
		},
		{
			"bufferView":3,
			"componentType":5126,
			"count":67,
			"type":"VEC2"
		},
		{
			"bufferView":4,
			"componentType":5123,
			"count":67,
			"normalized":true,
			"type":"VEC4"
		},
		{
			"bufferView":5,
			"componentType":5123,
			"count":147,
			"type":"SCALAR"
		}
	],
	"bufferViews":[
		{
			"buffer":0,
			"byteLength":804,
			"byteOffset":0,
			"target":34962
		},
		{
			"buffer":0,
			"byteLength":804,
			"byteOffset":804,
			"target":34962
		},
		{
			"buffer":0,
			"byteLength":536,
			"byteOffset":1608,
			"target":34962
		},
		{
			"buffer":0,
			"byteLength":536,
			"byteOffset":2144,
			"target":34962
		},
		{
			"buffer":0,
			"byteLength":536,
			"byteOffset":2680,
			"target":34962
		},
		{
			"buffer":0,
			"byteLength":294,
			"byteOffset":3216,
			"target":34963
		}
	],
	"samplers":[
		{
			"magFilter":9729,
			"minFilter":9987
		}
	],
	"buffers":[
		{
			"byteLength":3512,
			"uri":"Sidewalk_Corner_Flat_1m.bin"
		}
	]
}
