{
	"asset":{
		"generator":"Khronos glTF Blender I/O v4.3.47",
		"version":"2.0"
	},
	"scene":0,
	"scenes":[
		{
			"name":"Scene",
			"nodes":[
				0
			]
		}
	],
	"nodes":[
		{
			"mesh":0,
			"name":"Stairs_Rails_Concrete_Straight_2"
		}
	],
	"materials":[
		{
			"doubleSided":true,
			"name":"MI_Trim_MetalConcrete",
			"normalTexture":{
				"index":0
			},
			"pbrMetallicRoughness":{
				"baseColorTexture":{
					"index":1
				},
				"metallicRoughnessTexture":{
					"index":2
				}
			}
		},
		{
			"doubleSided":true,
			"name":"MI_Concrete",
			"normalTexture":{
				"index":3
			},
			"pbrMetallicRoughness":{
				"baseColorTexture":{
					"index":4
				},
				"metallicRoughnessTexture":{
					"index":5
				}
			}
		}
	],
	"meshes":[
		{
			"name":"Cube.065",
			"primitives":[
				{
					"attributes":{
						"POSITION":0,
						"NORMAL":1,
						"TEXCOORD_0":2,
						"TEXCOORD_1":3
					},
					"indices":4,
					"material":0
				},
				{
					"attributes":{
						"POSITION":5,
						"NORMAL":6,
						"TEXCOORD_0":7,
						"TEXCOORD_1":8
					},
					"indices":9,
					"material":1
				}
			]
		}
	],
	"textures":[
		{
			"sampler":0,
			"source":0
		},
		{
			"sampler":0,
			"source":1
		},
		{
			"sampler":0,
			"source":2
		},
		{
			"sampler":0,
			"source":3
		},
		{
			"sampler":0,
			"source":4
		},
		{
			"sampler":0,
			"source":5
		}
	],
	"images":[
		{
			"mimeType":"image/png",
			"name":"T_MetalConcrete_Normal",
			"uri":"T_MetalConcrete_Normal.png"
		},
		{
			"mimeType":"image/png",
			"name":"T_MetalConcrete_BaseColor",
			"uri":"T_MetalConcrete_BaseColor.png"
		},
		{
			"mimeType":"image/png",
			"name":"T_MetalConcrete_ORM",
			"uri":"T_MetalConcrete_ORM.png"
		},
		{
			"mimeType":"image/png",
			"name":"T_Concrete_Normal",
			"uri":"T_Concrete_Normal.png"
		},
		{
			"mimeType":"image/png",
			"name":"T_Concrete_BaseColor",
			"uri":"T_Concrete_BaseColor.png"
		},
		{
			"mimeType":"image/png",
			"name":"T_Concrete_ORM",
			"uri":"T_Concrete_ORM.png"
		}
	],
	"accessors":[
		{
			"bufferView":0,
			"componentType":5126,
			"count":668,
			"max":[
				1.1757166385650635,
				1.9694111347198486,
				1
			],
			"min":[
				-1.1757166385650635,
				0,
				-1
			],
			"type":"VEC3"
		},
		{
			"bufferView":1,
			"componentType":5126,
			"count":668,
			"type":"VEC3"
		},
		{
			"bufferView":2,
			"componentType":5126,
			"count":668,
			"type":"VEC2"
		},
		{
			"bufferView":3,
			"componentType":5126,
			"count":668,
			"type":"VEC2"
		},
		{
			"bufferView":4,
			"componentType":5123,
			"count":1056,
			"type":"SCALAR"
		},
		{
			"bufferView":5,
			"componentType":5126,
			"count":72,
			"max":[
				1.1757166385650635,
				1.463810682296753,
				1
			],
			"min":[
				-1.1757166385650635,
				0,
				-1
			],
			"type":"VEC3"
		},
		{
			"bufferView":6,
			"componentType":5126,
			"count":72,
			"type":"VEC3"
		},
		{
			"bufferView":7,
			"componentType":5126,
			"count":72,
			"type":"VEC2"
		},
		{
			"bufferView":8,
			"componentType":5126,
			"count":72,
			"type":"VEC2"
		},
		{
			"bufferView":9,
			"componentType":5123,
			"count":144,
			"type":"SCALAR"
		}
	],
	"bufferViews":[
		{
			"buffer":0,
			"byteLength":8016,
			"byteOffset":0,
			"target":34962
		},
		{
			"buffer":0,
			"byteLength":8016,
			"byteOffset":8016,
			"target":34962
		},
		{
			"buffer":0,
			"byteLength":5344,
			"byteOffset":16032,
			"target":34962
		},
		{
			"buffer":0,
			"byteLength":5344,
			"byteOffset":21376,
			"target":34962
		},
		{
			"buffer":0,
			"byteLength":2112,
			"byteOffset":26720,
			"target":34963
		},
		{
			"buffer":0,
			"byteLength":864,
			"byteOffset":28832,
			"target":34962
		},
		{
			"buffer":0,
			"byteLength":864,
			"byteOffset":29696,
			"target":34962
		},
		{
			"buffer":0,
			"byteLength":576,
			"byteOffset":30560,
			"target":34962
		},
		{
			"buffer":0,
			"byteLength":576,
			"byteOffset":31136,
			"target":34962
		},
		{
			"buffer":0,
			"byteLength":288,
			"byteOffset":31712,
			"target":34963
		}
	],
	"samplers":[
		{
			"magFilter":9729,
			"minFilter":9987
		}
	],
	"buffers":[
		{
			"byteLength":32000,
			"uri":"Stairs_Rails_Concrete_Straight_2.bin"
		}
	]
}
