{
	"asset":{
		"generator":"Khronos glTF Blender I/O v4.3.47",
		"version":"2.0"
	},
	"scene":0,
	"scenes":[
		{
			"name":"Scene",
			"nodes":[
				0
			]
		}
	],
	"nodes":[
		{
			"mesh":0,
			"name":"Street_Curve_4LaneLong"
		}
	],
	"materials":[
		{
			"doubleSided":true,
			"name":"MI_Asphalt",
			"normalTexture":{
				"index":0
			},
			"pbrMetallicRoughness":{
				"baseColorTexture":{
					"index":1
				},
				"metallicRoughnessTexture":{
					"index":2
				}
			}
		},
		{
			"alphaMode":"BLEND",
			"doubleSided":true,
			"name":"MI_StreetDecals",
			"pbrMetallicRoughness":{
				"baseColorTexture":{
					"index":3
				},
				"metallicFactor":0,
				"roughnessFactor":0.5
			}
		},
		{
			"doubleSided":true,
			"name":"MI_Trim_MetalConcrete",
			"normalTexture":{
				"index":4
			},
			"pbrMetallicRoughness":{
				"baseColorTexture":{
					"index":5
				},
				"metallicRoughnessTexture":{
					"index":6
				}
			}
		}
	],
	"meshes":[
		{
			"name":"Plane.116",
			"primitives":[
				{
					"attributes":{
						"POSITION":0,
						"NORMAL":1,
						"TEXCOORD_0":2,
						"TEXCOORD_1":3,
						"COLOR_0":4
					},
					"indices":5,
					"material":0
				},
				{
					"attributes":{
						"POSITION":6,
						"NORMAL":7,
						"TEXCOORD_0":8,
						"TEXCOORD_1":9,
						"COLOR_0":10
					},
					"indices":11,
					"material":1
				},
				{
					"attributes":{
						"POSITION":12,
						"NORMAL":13,
						"TEXCOORD_0":14,
						"TEXCOORD_1":15,
						"COLOR_0":16
					},
					"indices":17,
					"material":2
				}
			]
		}
	],
	"textures":[
		{
			"sampler":0,
			"source":0
		},
		{
			"sampler":0,
			"source":1
		},
		{
			"sampler":0,
			"source":2
		},
		{
			"sampler":0,
			"source":3
		},
		{
			"sampler":0,
			"source":4
		},
		{
			"sampler":0,
			"source":5
		},
		{
			"sampler":0,
			"source":6
		}
	],
	"images":[
		{
			"mimeType":"image/png",
			"name":"T_Concrete_Normal",
			"uri":"T_Concrete_Normal.png"
		},
		{
			"mimeType":"image/png",
			"name":"T_Concrete_Asphalt_BaseColor",
			"uri":"T_Concrete_Asphalt_BaseColor.png"
		},
		{
			"mimeType":"image/png",
			"name":"T_Concrete_ORM",
			"uri":"T_Concrete_ORM.png"
		},
		{
			"mimeType":"image/png",
			"name":"T_Street_Decals",
			"uri":"T_Street_Decals.png"
		},
		{
			"mimeType":"image/png",
			"name":"T_MetalConcrete_Normal",
			"uri":"T_MetalConcrete_Normal.png"
		},
		{
			"mimeType":"image/png",
			"name":"T_MetalConcrete_BaseColor",
			"uri":"T_MetalConcrete_BaseColor.png"
		},
		{
			"mimeType":"image/png",
			"name":"T_MetalConcrete_ORM",
			"uri":"T_MetalConcrete_ORM.png"
		}
	],
	"accessors":[
		{
			"bufferView":0,
			"componentType":5126,
			"count":55,
			"max":[
				19.999990463256836,
				-0.15000000596046448,
				20
			],
			"min":[
				-6.516827852465212e-06,
				-0.15000000596046448,
				0
			],
			"type":"VEC3"
		},
		{
			"bufferView":1,
			"componentType":5126,
			"count":55,
			"type":"VEC3"
		},
		{
			"bufferView":2,
			"componentType":5126,
			"count":55,
			"type":"VEC2"
		},
		{
			"bufferView":3,
			"componentType":5126,
			"count":55,
			"type":"VEC2"
		},
		{
			"bufferView":4,
			"componentType":5123,
			"count":55,
			"normalized":true,
			"type":"VEC4"
		},
		{
			"bufferView":5,
			"componentType":5123,
			"count":234,
			"type":"SCALAR"
		},
		{
			"bufferView":6,
			"componentType":5126,
			"count":80,
			"max":[
				17.799989700317383,
				-0.14800000190734863,
				17.80000114440918
			],
			"min":[
				-1.907349087559851e-06,
				-0.14800000190734863,
				-6.67572021484375e-06
			],
			"type":"VEC3"
		},
		{
			"bufferView":7,
			"componentType":5126,
			"count":80,
			"type":"VEC3"
		},
		{
			"bufferView":8,
			"componentType":5126,
			"count":80,
			"type":"VEC2"
		},
		{
			"bufferView":9,
			"componentType":5126,
			"count":80,
			"type":"VEC2"
		},
		{
			"bufferView":10,
			"componentType":5123,
			"count":80,
			"normalized":true,
			"type":"VEC4"
		},
		{
			"bufferView":11,
			"componentType":5123,
			"count":228,
			"type":"SCALAR"
		},
		{
			"bufferView":12,
			"componentType":5126,
			"count":534,
			"max":[
				20.999988555908203,
				2.7939677238464355e-07,
				21
			],
			"min":[
				-2.86102294921875e-06,
				-0.15000024437904358,
				-7.62939453125e-06
			],
			"type":"VEC3"
		},
		{
			"bufferView":13,
			"componentType":5126,
			"count":534,
			"type":"VEC3"
		},
		{
			"bufferView":14,
			"componentType":5126,
			"count":534,
			"type":"VEC2"
		},
		{
			"bufferView":15,
			"componentType":5126,
			"count":534,
			"type":"VEC2"
		},
		{
			"bufferView":16,
			"componentType":5123,
			"count":534,
			"normalized":true,
			"type":"VEC4"
		},
		{
			"bufferView":17,
			"componentType":5123,
			"count":1554,
			"type":"SCALAR"
		}
	],
	"bufferViews":[
		{
			"buffer":0,
			"byteLength":660,
			"byteOffset":0,
			"target":34962
		},
		{
			"buffer":0,
			"byteLength":660,
			"byteOffset":660,
			"target":34962
		},
		{
			"buffer":0,
			"byteLength":440,
			"byteOffset":1320,
			"target":34962
		},
		{
			"buffer":0,
			"byteLength":440,
			"byteOffset":1760,
			"target":34962
		},
		{
			"buffer":0,
			"byteLength":440,
			"byteOffset":2200,
			"target":34962
		},
		{
			"buffer":0,
			"byteLength":468,
			"byteOffset":2640,
			"target":34963
		},
		{
			"buffer":0,
			"byteLength":960,
			"byteOffset":3108,
			"target":34962
		},
		{
			"buffer":0,
			"byteLength":960,
			"byteOffset":4068,
			"target":34962
		},
		{
			"buffer":0,
			"byteLength":640,
			"byteOffset":5028,
			"target":34962
		},
		{
			"buffer":0,
			"byteLength":640,
			"byteOffset":5668,
			"target":34962
		},
		{
			"buffer":0,
			"byteLength":640,
			"byteOffset":6308,
			"target":34962
		},
		{
			"buffer":0,
			"byteLength":456,
			"byteOffset":6948,
			"target":34963
		},
		{
			"buffer":0,
			"byteLength":6408,
			"byteOffset":7404,
			"target":34962
		},
		{
			"buffer":0,
			"byteLength":6408,
			"byteOffset":13812,
			"target":34962
		},
		{
			"buffer":0,
			"byteLength":4272,
			"byteOffset":20220,
			"target":34962
		},
		{
			"buffer":0,
			"byteLength":4272,
			"byteOffset":24492,
			"target":34962
		},
		{
			"buffer":0,
			"byteLength":4272,
			"byteOffset":28764,
			"target":34962
		},
		{
			"buffer":0,
			"byteLength":3108,
			"byteOffset":33036,
			"target":34963
		}
	],
	"samplers":[
		{
			"magFilter":9729,
			"minFilter":9987
		}
	],
	"buffers":[
		{
			"byteLength":36144,
			"uri":"Street_Curve_4LaneLong.bin"
		}
	]
}
