{
	"asset":{
		"generator":"Khronos glTF Blender I/O v4.3.47",
		"version":"2.0"
	},
	"scene":0,
	"scenes":[
		{
			"name":"Scene",
			"nodes":[
				0
			]
		}
	],
	"nodes":[
		{
			"mesh":0,
			"name":"Trim_BayWindow_Corner_R"
		}
	],
	"materials":[
		{
			"doubleSided":true,
			"name":"MI_Trim",
			"normalTexture":{
				"index":0
			},
			"pbrMetallicRoughness":{
				"baseColorTexture":{
					"index":1
				},
				"metallicRoughnessTexture":{
					"index":2
				}
			}
		},
		{
			"doubleSided":true,
			"name":"MI_Asphalt",
			"normalTexture":{
				"index":3
			},
			"pbrMetallicRoughness":{
				"baseColorTexture":{
					"index":4
				},
				"metallicRoughnessTexture":{
					"index":5
				}
			}
		}
	],
	"meshes":[
		{
			"name":"Cube.143",
			"primitives":[
				{
					"attributes":{
						"POSITION":0,
						"NORMAL":1,
						"TEXCOORD_0":2,
						"TEXCOORD_1":3,
						"COLOR_0":4,
						"COLOR_1":5
					},
					"indices":6,
					"material":0
				},
				{
					"attributes":{
						"POSITION":7,
						"NORMAL":8,
						"TEXCOORD_0":9,
						"TEXCOORD_1":10,
						"COLOR_0":11,
						"COLOR_1":12
					},
					"indices":13,
					"material":1
				}
			]
		}
	],
	"textures":[
		{
			"sampler":0,
			"source":0
		},
		{
			"sampler":0,
			"source":1
		},
		{
			"sampler":0,
			"source":2
		},
		{
			"sampler":0,
			"source":3
		},
		{
			"sampler":0,
			"source":4
		},
		{
			"sampler":0,
			"source":5
		}
	],
	"images":[
		{
			"mimeType":"image/png",
			"name":"T_Trim_Normal",
			"uri":"T_Trim_Normal.png"
		},
		{
			"mimeType":"image/png",
			"name":"T_Trim_BaseColor",
			"uri":"T_Trim_BaseColor.png"
		},
		{
			"mimeType":"image/png",
			"name":"T_Trim_ORM",
			"uri":"T_Trim_ORM.png"
		},
		{
			"mimeType":"image/png",
			"name":"T_Concrete_Normal",
			"uri":"T_Concrete_Normal.png"
		},
		{
			"mimeType":"image/png",
			"name":"T_Concrete_Asphalt_BaseColor",
			"uri":"T_Concrete_Asphalt_BaseColor.png"
		},
		{
			"mimeType":"image/png",
			"name":"T_Concrete_ORM",
			"uri":"T_Concrete_ORM.png"
		}
	],
	"accessors":[
		{
			"bufferView":0,
			"componentType":5126,
			"count":704,
			"max":[
				2.527894973754883,
				0.9983841180801392,
				1.5278400182724
			],
			"min":[
				-4,
				0,
				-2
			],
			"type":"VEC3"
		},
		{
			"bufferView":1,
			"componentType":5126,
			"count":704,
			"type":"VEC3"
		},
		{
			"bufferView":2,
			"componentType":5126,
			"count":704,
			"type":"VEC2"
		},
		{
			"bufferView":3,
			"componentType":5126,
			"count":704,
			"type":"VEC2"
		},
		{
			"bufferView":4,
			"componentType":5121,
			"count":704,
			"normalized":true,
			"type":"VEC4"
		},
		{
			"bufferView":5,
			"componentType":5123,
			"count":704,
			"normalized":true,
			"type":"VEC4"
		},
		{
			"bufferView":6,
			"componentType":5123,
			"count":1344,
			"type":"SCALAR"
		},
		{
			"bufferView":7,
			"componentType":5126,
			"count":6,
			"max":[
				1.900054931640625,
				0.800000011920929,
				0.9000000953674316
			],
			"min":[
				-1.9102725982666016,
				0.800000011920929,
				-0.10022258758544922
			],
			"type":"VEC3"
		},
		{
			"bufferView":8,
			"componentType":5126,
			"count":6,
			"type":"VEC3"
		},
		{
			"bufferView":9,
			"componentType":5126,
			"count":6,
			"type":"VEC2"
		},
		{
			"bufferView":10,
			"componentType":5126,
			"count":6,
			"type":"VEC2"
		},
		{
			"bufferView":11,
			"componentType":5121,
			"count":6,
			"normalized":true,
			"type":"VEC4"
		},
		{
			"bufferView":12,
			"componentType":5123,
			"count":6,
			"normalized":true,
			"type":"VEC4"
		},
		{
			"bufferView":13,
			"componentType":5123,
			"count":12,
			"type":"SCALAR"
		}
	],
	"bufferViews":[
		{
			"buffer":0,
			"byteLength":8448,
			"byteOffset":0,
			"target":34962
		},
		{
			"buffer":0,
			"byteLength":8448,
			"byteOffset":8448,
			"target":34962
		},
		{
			"buffer":0,
			"byteLength":5632,
			"byteOffset":16896,
			"target":34962
		},
		{
			"buffer":0,
			"byteLength":5632,
			"byteOffset":22528,
			"target":34962
		},
		{
			"buffer":0,
			"byteLength":2816,
			"byteOffset":28160,
			"target":34962
		},
		{
			"buffer":0,
			"byteLength":5632,
			"byteOffset":30976,
			"target":34962
		},
		{
			"buffer":0,
			"byteLength":2688,
			"byteOffset":36608,
			"target":34963
		},
		{
			"buffer":0,
			"byteLength":72,
			"byteOffset":39296,
			"target":34962
		},
		{
			"buffer":0,
			"byteLength":72,
			"byteOffset":39368,
			"target":34962
		},
		{
			"buffer":0,
			"byteLength":48,
			"byteOffset":39440,
			"target":34962
		},
		{
			"buffer":0,
			"byteLength":48,
			"byteOffset":39488,
			"target":34962
		},
		{
			"buffer":0,
			"byteLength":24,
			"byteOffset":39536,
			"target":34962
		},
		{
			"buffer":0,
			"byteLength":48,
			"byteOffset":39560,
			"target":34962
		},
		{
			"buffer":0,
			"byteLength":24,
			"byteOffset":39608,
			"target":34963
		}
	],
	"samplers":[
		{
			"magFilter":9729,
			"minFilter":9987
		}
	],
	"buffers":[
		{
			"byteLength":39632,
			"uri":"Trim_BayWindow_Corner_R.bin"
		}
	]
}
