{
	"asset":{
		"generator":"Khronos glTF Blender I/O v4.3.47",
		"version":"2.0"
	},
	"scene":0,
	"scenes":[
		{
			"name":"Scene",
			"nodes":[
				0
			]
		}
	],
	"nodes":[
		{
			"mesh":0,
			"name":"WhiteBrick_Window_Center"
		}
	],
	"materials":[
		{
			"doubleSided":true,
			"name":"MI_WhiteBrick",
			"normalTexture":{
				"index":0
			},
			"pbrMetallicRoughness":{
				"baseColorTexture":{
					"index":1
				},
				"metallicRoughnessTexture":{
					"index":2
				}
			}
		},
		{
			"doubleSided":true,
			"name":"MI_Trim_MetalConcrete",
			"normalTexture":{
				"index":3
			},
			"pbrMetallicRoughness":{
				"baseColorTexture":{
					"index":4
				},
				"metallicRoughnessTexture":{
					"index":5
				}
			}
		},
		{
			"alphaMode":"BLEND",
			"doubleSided":true,
			"name":"MI_Glass",
			"pbrMetallicRoughness":{
				"baseColorFactor":[
					0.05215025693178177,
					0.05215025693178177,
					0.05215025693178177,
					0.586363673210144
				],
				"metallicFactor":0,
				"roughnessFactor":0.5
			}
		},
		{
			"doubleSided":true,
			"name":"MI_FakeInterior",
			"pbrMetallicRoughness":{
				"baseColorFactor":[
					0.800000011920929,
					0.800000011920929,
					0.800000011920929,
					1
				],
				"metallicFactor":0,
				"roughnessFactor":0.5
			}
		},
		{
			"doubleSided":true,
			"name":"MI_InteriorWall",
			"normalTexture":{
				"index":6
			},
			"pbrMetallicRoughness":{
				"baseColorTexture":{
					"index":7
				},
				"metallicRoughnessTexture":{
					"index":8
				}
			}
		}
	],
	"meshes":[
		{
			"name":"Cube.110",
			"primitives":[
				{
					"attributes":{
						"POSITION":0,
						"NORMAL":1,
						"TEXCOORD_0":2,
						"TEXCOORD_1":3,
						"COLOR_0":4,
						"COLOR_1":5
					},
					"indices":6,
					"material":0
				},
				{
					"attributes":{
						"POSITION":7,
						"NORMAL":8,
						"TEXCOORD_0":9,
						"TEXCOORD_1":10,
						"COLOR_0":11,
						"COLOR_1":12
					},
					"indices":13,
					"material":1
				},
				{
					"attributes":{
						"POSITION":14,
						"NORMAL":15,
						"TEXCOORD_0":16,
						"TEXCOORD_1":17,
						"COLOR_0":18,
						"COLOR_1":19
					},
					"indices":20,
					"material":2
				},
				{
					"attributes":{
						"POSITION":21,
						"NORMAL":22,
						"TEXCOORD_0":23,
						"TEXCOORD_1":24,
						"COLOR_0":25,
						"COLOR_1":26
					},
					"indices":27,
					"material":3
				},
				{
					"attributes":{
						"POSITION":28,
						"NORMAL":29,
						"TEXCOORD_0":30,
						"TEXCOORD_1":31,
						"COLOR_0":32,
						"COLOR_1":33
					},
					"indices":34,
					"material":4
				}
			]
		}
	],
	"textures":[
		{
			"sampler":0,
			"source":0
		},
		{
			"sampler":0,
			"source":1
		},
		{
			"sampler":0,
			"source":2
		},
		{
			"sampler":0,
			"source":3
		},
		{
			"sampler":0,
			"source":4
		},
		{
			"sampler":0,
			"source":5
		},
		{
			"sampler":0,
			"source":6
		},
		{
			"sampler":0,
			"source":7
		},
		{
			"sampler":0,
			"source":8
		}
	],
	"images":[
		{
			"mimeType":"image/png",
			"name":"T_WhiteBrick_Normal",
			"uri":"T_WhiteBrick_Normal.png"
		},
		{
			"mimeType":"image/png",
			"name":"T_WhiteBrick_BaseColor",
			"uri":"T_WhiteBrick_BaseColor.png"
		},
		{
			"mimeType":"image/png",
			"name":"T_WhiteBrick_ORM",
			"uri":"T_WhiteBrick_ORM.png"
		},
		{
			"mimeType":"image/png",
			"name":"T_MetalConcrete_Normal",
			"uri":"T_MetalConcrete_Normal.png"
		},
		{
			"mimeType":"image/png",
			"name":"T_MetalConcrete_BaseColor",
			"uri":"T_MetalConcrete_BaseColor.png"
		},
		{
			"mimeType":"image/png",
			"name":"T_MetalConcrete_ORM",
			"uri":"T_MetalConcrete_ORM.png"
		},
		{
			"mimeType":"image/png",
			"name":"T_RedBrick_Normal",
			"uri":"T_RedBrick_Normal.png"
		},
		{
			"mimeType":"image/png",
			"name":"T_RedBrick_BaseColor",
			"uri":"T_RedBrick_BaseColor.png"
		},
		{
			"mimeType":"image/png",
			"name":"T_RedBrick_ORM",
			"uri":"T_RedBrick_ORM.png"
		}
	],
	"accessors":[
		{
			"bufferView":0,
			"componentType":5126,
			"count":8,
			"max":[
				1.0021580457687378,
				4,
				1.3113415775478643e-07
			],
			"min":[
				-1,
				3.246425151824951,
				-0.08153998851776123
			],
			"type":"VEC3"
		},
		{
			"bufferView":1,
			"componentType":5126,
			"count":8,
			"type":"VEC3"
		},
		{
			"bufferView":2,
			"componentType":5126,
			"count":8,
			"type":"VEC2"
		},
		{
			"bufferView":3,
			"componentType":5126,
			"count":8,
			"type":"VEC2"
		},
		{
			"bufferView":4,
			"componentType":5121,
			"count":8,
			"normalized":true,
			"type":"VEC4"
		},
		{
			"bufferView":5,
			"componentType":5123,
			"count":8,
			"normalized":true,
			"type":"VEC4"
		},
		{
			"bufferView":6,
			"componentType":5123,
			"count":12,
			"type":"SCALAR"
		},
		{
			"bufferView":7,
			"componentType":5126,
			"count":392,
			"max":[
				1,
				3.249999761581421,
				0
			],
			"min":[
				-1,
				-0.0005897283554077148,
				-0.2598543167114258
			],
			"type":"VEC3"
		},
		{
			"bufferView":8,
			"componentType":5126,
			"count":392,
			"type":"VEC3"
		},
		{
			"bufferView":9,
			"componentType":5126,
			"count":392,
			"type":"VEC2"
		},
		{
			"bufferView":10,
			"componentType":5126,
			"count":392,
			"type":"VEC2"
		},
		{
			"bufferView":11,
			"componentType":5121,
			"count":392,
			"normalized":true,
			"type":"VEC4"
		},
		{
			"bufferView":12,
			"componentType":5123,
			"count":392,
			"normalized":true,
			"type":"VEC4"
		},
		{
			"bufferView":13,
			"componentType":5123,
			"count":852,
			"type":"SCALAR"
		},
		{
			"bufferView":14,
			"componentType":5126,
			"count":16,
			"max":[
				0.9255115389823914,
				2.430180072784424,
				-0.13533179461956024
			],
			"min":[
				-0.9255115389823914,
				0.041484713554382324,
				-0.1353318989276886
			],
			"type":"VEC3"
		},
		{
			"bufferView":15,
			"componentType":5126,
			"count":16,
			"type":"VEC3"
		},
		{
			"bufferView":16,
			"componentType":5126,
			"count":16,
			"type":"VEC2"
		},
		{
			"bufferView":17,
			"componentType":5126,
			"count":16,
			"type":"VEC2"
		},
		{
			"bufferView":18,
			"componentType":5121,
			"count":16,
			"normalized":true,
			"type":"VEC4"
		},
		{
			"bufferView":19,
			"componentType":5123,
			"count":16,
			"normalized":true,
			"type":"VEC4"
		},
		{
			"bufferView":20,
			"componentType":5123,
			"count":24,
			"type":"SCALAR"
		},
		{
			"bufferView":21,
			"componentType":5126,
			"count":4,
			"max":[
				1,
				2.788115978240967,
				-0.1380426436662674
			],
			"min":[
				-1,
				0.008002042770385742,
				-0.1380426436662674
			],
			"type":"VEC3"
		},
		{
			"bufferView":22,
			"componentType":5126,
			"count":4,
			"type":"VEC3"
		},
		{
			"bufferView":23,
			"componentType":5126,
			"count":4,
			"type":"VEC2"
		},
		{
			"bufferView":24,
			"componentType":5126,
			"count":4,
			"type":"VEC2"
		},
		{
			"bufferView":25,
			"componentType":5121,
			"count":4,
			"normalized":true,
			"type":"VEC4"
		},
		{
			"bufferView":26,
			"componentType":5123,
			"count":4,
			"normalized":true,
			"type":"VEC4"
		},
		{
			"bufferView":27,
			"componentType":5123,
			"count":6,
			"type":"SCALAR"
		},
		{
			"bufferView":28,
			"componentType":5126,
			"count":4,
			"max":[
				1,
				4.000000476837158,
				-0.2000000923871994
			],
			"min":[
				-1,
				2.457792282104492,
				-0.2000000923871994
			],
			"type":"VEC3"
		},
		{
			"bufferView":29,
			"componentType":5126,
			"count":4,
			"type":"VEC3"
		},
		{
			"bufferView":30,
			"componentType":5126,
			"count":4,
			"type":"VEC2"
		},
		{
			"bufferView":31,
			"componentType":5126,
			"count":4,
			"type":"VEC2"
		},
		{
			"bufferView":32,
			"componentType":5121,
			"count":4,
			"normalized":true,
			"type":"VEC4"
		},
		{
			"bufferView":33,
			"componentType":5123,
			"count":4,
			"normalized":true,
			"type":"VEC4"
		},
		{
			"bufferView":34,
			"componentType":5123,
			"count":6,
			"type":"SCALAR"
		}
	],
	"bufferViews":[
		{
			"buffer":0,
			"byteLength":96,
			"byteOffset":0,
			"target":34962
		},
		{
			"buffer":0,
			"byteLength":96,
			"byteOffset":96,
			"target":34962
		},
		{
			"buffer":0,
			"byteLength":64,
			"byteOffset":192,
			"target":34962
		},
		{
			"buffer":0,
			"byteLength":64,
			"byteOffset":256,
			"target":34962
		},
		{
			"buffer":0,
			"byteLength":32,
			"byteOffset":320,
			"target":34962
		},
		{
			"buffer":0,
			"byteLength":64,
			"byteOffset":352,
			"target":34962
		},
		{
			"buffer":0,
			"byteLength":24,
			"byteOffset":416,
			"target":34963
		},
		{
			"buffer":0,
			"byteLength":4704,
			"byteOffset":440,
			"target":34962
		},
		{
			"buffer":0,
			"byteLength":4704,
			"byteOffset":5144,
			"target":34962
		},
		{
			"buffer":0,
			"byteLength":3136,
			"byteOffset":9848,
			"target":34962
		},
		{
			"buffer":0,
			"byteLength":3136,
			"byteOffset":12984,
			"target":34962
		},
		{
			"buffer":0,
			"byteLength":1568,
			"byteOffset":16120,
			"target":34962
		},
		{
			"buffer":0,
			"byteLength":3136,
			"byteOffset":17688,
			"target":34962
		},
		{
			"buffer":0,
			"byteLength":1704,
			"byteOffset":20824,
			"target":34963
		},
		{
			"buffer":0,
			"byteLength":192,
			"byteOffset":22528,
			"target":34962
		},
		{
			"buffer":0,
			"byteLength":192,
			"byteOffset":22720,
			"target":34962
		},
		{
			"buffer":0,
			"byteLength":128,
			"byteOffset":22912,
			"target":34962
		},
		{
			"buffer":0,
			"byteLength":128,
			"byteOffset":23040,
			"target":34962
		},
		{
			"buffer":0,
			"byteLength":64,
			"byteOffset":23168,
			"target":34962
		},
		{
			"buffer":0,
			"byteLength":128,
			"byteOffset":23232,
			"target":34962
		},
		{
			"buffer":0,
			"byteLength":48,
			"byteOffset":23360,
			"target":34963
		},
		{
			"buffer":0,
			"byteLength":48,
			"byteOffset":23408,
			"target":34962
		},
		{
			"buffer":0,
			"byteLength":48,
			"byteOffset":23456,
			"target":34962
		},
		{
			"buffer":0,
			"byteLength":32,
			"byteOffset":23504,
			"target":34962
		},
		{
			"buffer":0,
			"byteLength":32,
			"byteOffset":23536,
			"target":34962
		},
		{
			"buffer":0,
			"byteLength":16,
			"byteOffset":23568,
			"target":34962
		},
		{
			"buffer":0,
			"byteLength":32,
			"byteOffset":23584,
			"target":34962
		},
		{
			"buffer":0,
			"byteLength":12,
			"byteOffset":23616,
			"target":34963
		},
		{
			"buffer":0,
			"byteLength":48,
			"byteOffset":23628,
			"target":34962
		},
		{
			"buffer":0,
			"byteLength":48,
			"byteOffset":23676,
			"target":34962
		},
		{
			"buffer":0,
			"byteLength":32,
			"byteOffset":23724,
			"target":34962
		},
		{
			"buffer":0,
			"byteLength":32,
			"byteOffset":23756,
			"target":34962
		},
		{
			"buffer":0,
			"byteLength":16,
			"byteOffset":23788,
			"target":34962
		},
		{
			"buffer":0,
			"byteLength":32,
			"byteOffset":23804,
			"target":34962
		},
		{
			"buffer":0,
			"byteLength":12,
			"byteOffset":23836,
			"target":34963
		}
	],
	"samplers":[
		{
			"magFilter":9729,
			"minFilter":9987
		}
	],
	"buffers":[
		{
			"byteLength":23848,
			"uri":"WhiteBrick_Window_Center.bin"
		}
	]
}
