{
	"asset":{
		"generator":"Khronos glTF Blender I/O v4.3.47",
		"version":"2.0"
	},
	"scene":0,
	"scenes":[
		{
			"name":"Scene",
			"nodes":[
				0
			]
		}
	],
	"nodes":[
		{
			"mesh":0,
			"name":"WhiteBrick_Corner"
		}
	],
	"materials":[
		{
			"doubleSided":true,
			"name":"MI_WhiteBrick",
			"normalTexture":{
				"index":0
			},
			"pbrMetallicRoughness":{
				"baseColorTexture":{
					"index":1
				},
				"metallicRoughnessTexture":{
					"index":2
				}
			}
		},
		{
			"doubleSided":true,
			"name":"MI_Trim",
			"normalTexture":{
				"index":3
			},
			"pbrMetallicRoughness":{
				"baseColorTexture":{
					"index":4
				},
				"metallicRoughnessTexture":{
					"index":5
				}
			}
		},
		{
			"doubleSided":true,
			"name":"MI_InteriorWall",
			"normalTexture":{
				"index":6
			},
			"pbrMetallicRoughness":{
				"baseColorTexture":{
					"index":7
				},
				"metallicRoughnessTexture":{
					"index":8
				}
			}
		}
	],
	"meshes":[
		{
			"name":"Cube.002",
			"primitives":[
				{
					"attributes":{
						"POSITION":0,
						"NORMAL":1,
						"TEXCOORD_0":2,
						"TEXCOORD_1":3,
						"COLOR_0":4,
						"COLOR_1":5
					},
					"indices":6,
					"material":0
				},
				{
					"attributes":{
						"POSITION":7,
						"NORMAL":8,
						"TEXCOORD_0":9,
						"TEXCOORD_1":10,
						"COLOR_0":11,
						"COLOR_1":12
					},
					"indices":13,
					"material":1
				},
				{
					"attributes":{
						"POSITION":14,
						"NORMAL":15,
						"TEXCOORD_0":16,
						"TEXCOORD_1":17,
						"COLOR_0":18,
						"COLOR_1":19
					},
					"indices":20,
					"material":2
				}
			]
		}
	],
	"textures":[
		{
			"sampler":0,
			"source":0
		},
		{
			"sampler":0,
			"source":1
		},
		{
			"sampler":0,
			"source":2
		},
		{
			"sampler":0,
			"source":3
		},
		{
			"sampler":0,
			"source":4
		},
		{
			"sampler":0,
			"source":5
		},
		{
			"sampler":0,
			"source":6
		},
		{
			"sampler":0,
			"source":7
		},
		{
			"sampler":0,
			"source":8
		}
	],
	"images":[
		{
			"mimeType":"image/png",
			"name":"T_WhiteBrick_Normal",
			"uri":"T_WhiteBrick_Normal.png"
		},
		{
			"mimeType":"image/png",
			"name":"T_WhiteBrick_BaseColor",
			"uri":"T_WhiteBrick_BaseColor.png"
		},
		{
			"mimeType":"image/png",
			"name":"T_WhiteBrick_ORM",
			"uri":"T_WhiteBrick_ORM.png"
		},
		{
			"mimeType":"image/png",
			"name":"T_Trim_Normal",
			"uri":"T_Trim_Normal.png"
		},
		{
			"mimeType":"image/png",
			"name":"T_Trim_BaseColor",
			"uri":"T_Trim_BaseColor.png"
		},
		{
			"mimeType":"image/png",
			"name":"T_Trim_ORM",
			"uri":"T_Trim_ORM.png"
		},
		{
			"mimeType":"image/png",
			"name":"T_RedBrick_Normal",
			"uri":"T_RedBrick_Normal.png"
		},
		{
			"mimeType":"image/png",
			"name":"T_RedBrick_BaseColor",
			"uri":"T_RedBrick_BaseColor.png"
		},
		{
			"mimeType":"image/png",
			"name":"T_RedBrick_ORM",
			"uri":"T_RedBrick_ORM.png"
		}
	],
	"accessors":[
		{
			"bufferView":0,
			"componentType":5126,
			"count":12,
			"max":[
				1,
				3,
				1.0331603306212855e-07
			],
			"min":[
				-1.0000001192092896,
				0,
				-2
			],
			"type":"VEC3"
		},
		{
			"bufferView":1,
			"componentType":5126,
			"count":12,
			"type":"VEC3"
		},
		{
			"bufferView":2,
			"componentType":5126,
			"count":12,
			"type":"VEC2"
		},
		{
			"bufferView":3,
			"componentType":5126,
			"count":12,
			"type":"VEC2"
		},
		{
			"bufferView":4,
			"componentType":5121,
			"count":12,
			"normalized":true,
			"type":"VEC4"
		},
		{
			"bufferView":5,
			"componentType":5123,
			"count":12,
			"normalized":true,
			"type":"VEC4"
		},
		{
			"bufferView":6,
			"componentType":5123,
			"count":24,
			"type":"SCALAR"
		},
		{
			"bufferView":7,
			"componentType":5126,
			"count":240,
			"max":[
				-0.08394962549209595,
				2.996673583984375,
				0.04717889428138733
			],
			"min":[
				-1.0428670644760132,
				0.00276792049407959,
				-0.9121462106704712
			],
			"type":"VEC3"
		},
		{
			"bufferView":8,
			"componentType":5126,
			"count":240,
			"type":"VEC3"
		},
		{
			"bufferView":9,
			"componentType":5126,
			"count":240,
			"type":"VEC2"
		},
		{
			"bufferView":10,
			"componentType":5126,
			"count":240,
			"type":"VEC2"
		},
		{
			"bufferView":11,
			"componentType":5121,
			"count":240,
			"normalized":true,
			"type":"VEC4"
		},
		{
			"bufferView":12,
			"componentType":5123,
			"count":240,
			"normalized":true,
			"type":"VEC4"
		},
		{
			"bufferView":13,
			"componentType":5123,
			"count":360,
			"type":"SCALAR"
		},
		{
			"bufferView":14,
			"componentType":5126,
			"count":20,
			"max":[
				1,
				3.000000476837158,
				-0.20000006258487701
			],
			"min":[
				-0.800000011920929,
				0,
				-2
			],
			"type":"VEC3"
		},
		{
			"bufferView":15,
			"componentType":5126,
			"count":20,
			"type":"VEC3"
		},
		{
			"bufferView":16,
			"componentType":5126,
			"count":20,
			"type":"VEC2"
		},
		{
			"bufferView":17,
			"componentType":5126,
			"count":20,
			"type":"VEC2"
		},
		{
			"bufferView":18,
			"componentType":5121,
			"count":20,
			"normalized":true,
			"type":"VEC4"
		},
		{
			"bufferView":19,
			"componentType":5123,
			"count":20,
			"normalized":true,
			"type":"VEC4"
		},
		{
			"bufferView":20,
			"componentType":5123,
			"count":36,
			"type":"SCALAR"
		}
	],
	"bufferViews":[
		{
			"buffer":0,
			"byteLength":144,
			"byteOffset":0,
			"target":34962
		},
		{
			"buffer":0,
			"byteLength":144,
			"byteOffset":144,
			"target":34962
		},
		{
			"buffer":0,
			"byteLength":96,
			"byteOffset":288,
			"target":34962
		},
		{
			"buffer":0,
			"byteLength":96,
			"byteOffset":384,
			"target":34962
		},
		{
			"buffer":0,
			"byteLength":48,
			"byteOffset":480,
			"target":34962
		},
		{
			"buffer":0,
			"byteLength":96,
			"byteOffset":528,
			"target":34962
		},
		{
			"buffer":0,
			"byteLength":48,
			"byteOffset":624,
			"target":34963
		},
		{
			"buffer":0,
			"byteLength":2880,
			"byteOffset":672,
			"target":34962
		},
		{
			"buffer":0,
			"byteLength":2880,
			"byteOffset":3552,
			"target":34962
		},
		{
			"buffer":0,
			"byteLength":1920,
			"byteOffset":6432,
			"target":34962
		},
		{
			"buffer":0,
			"byteLength":1920,
			"byteOffset":8352,
			"target":34962
		},
		{
			"buffer":0,
			"byteLength":960,
			"byteOffset":10272,
			"target":34962
		},
		{
			"buffer":0,
			"byteLength":1920,
			"byteOffset":11232,
			"target":34962
		},
		{
			"buffer":0,
			"byteLength":720,
			"byteOffset":13152,
			"target":34963
		},
		{
			"buffer":0,
			"byteLength":240,
			"byteOffset":13872,
			"target":34962
		},
		{
			"buffer":0,
			"byteLength":240,
			"byteOffset":14112,
			"target":34962
		},
		{
			"buffer":0,
			"byteLength":160,
			"byteOffset":14352,
			"target":34962
		},
		{
			"buffer":0,
			"byteLength":160,
			"byteOffset":14512,
			"target":34962
		},
		{
			"buffer":0,
			"byteLength":80,
			"byteOffset":14672,
			"target":34962
		},
		{
			"buffer":0,
			"byteLength":160,
			"byteOffset":14752,
			"target":34962
		},
		{
			"buffer":0,
			"byteLength":72,
			"byteOffset":14912,
			"target":34963
		}
	],
	"samplers":[
		{
			"magFilter":9729,
			"minFilter":9987
		}
	],
	"buffers":[
		{
			"byteLength":14984,
			"uri":"WhiteBrick_Corner.bin"
		}
	]
}
