{
	"asset":{
		"generator":"Khronos glTF Blender I/O v4.3.47",
		"version":"2.0"
	},
	"scene":0,
	"scenes":[
		{
			"name":"Scene",
			"nodes":[
				0
			]
		}
	],
	"nodes":[
		{
			"mesh":0,
			"name":"WhiteBrick_Window_L"
		}
	],
	"materials":[
		{
			"doubleSided":true,
			"name":"MI_WhiteBrick",
			"normalTexture":{
				"index":0
			},
			"pbrMetallicRoughness":{
				"baseColorTexture":{
					"index":1
				},
				"metallicRoughnessTexture":{
					"index":2
				}
			}
		},
		{
			"doubleSided":true,
			"name":"MI_Trim_MetalConcrete",
			"normalTexture":{
				"index":3
			},
			"pbrMetallicRoughness":{
				"baseColorTexture":{
					"index":4
				},
				"metallicRoughnessTexture":{
					"index":5
				}
			}
		},
		{
			"alphaMode":"BLEND",
			"doubleSided":true,
			"name":"MI_Glass",
			"pbrMetallicRoughness":{
				"baseColorFactor":[
					0.05215025693178177,
					0.05215025693178177,
					0.05215025693178177,
					0.586363673210144
				],
				"metallicFactor":0,
				"roughnessFactor":0.5
			}
		},
		{
			"doubleSided":true,
			"name":"MI_FakeInterior",
			"pbrMetallicRoughness":{
				"baseColorFactor":[
					0.800000011920929,
					0.800000011920929,
					0.800000011920929,
					1
				],
				"metallicFactor":0,
				"roughnessFactor":0.5
			}
		},
		{
			"doubleSided":true,
			"name":"MI_InteriorWall",
			"normalTexture":{
				"index":6
			},
			"pbrMetallicRoughness":{
				"baseColorTexture":{
					"index":7
				},
				"metallicRoughnessTexture":{
					"index":8
				}
			}
		}
	],
	"meshes":[
		{
			"name":"Cube.112",
			"primitives":[
				{
					"attributes":{
						"POSITION":0,
						"NORMAL":1,
						"TEXCOORD_0":2,
						"TEXCOORD_1":3,
						"COLOR_0":4,
						"COLOR_1":5
					},
					"indices":6,
					"material":0
				},
				{
					"attributes":{
						"POSITION":7,
						"NORMAL":8,
						"TEXCOORD_0":9,
						"TEXCOORD_1":10,
						"COLOR_0":11,
						"COLOR_1":12
					},
					"indices":13,
					"material":1
				},
				{
					"attributes":{
						"POSITION":14,
						"NORMAL":15,
						"TEXCOORD_0":16,
						"TEXCOORD_1":17,
						"COLOR_0":18,
						"COLOR_1":19
					},
					"indices":20,
					"material":2
				},
				{
					"attributes":{
						"POSITION":21,
						"NORMAL":22,
						"TEXCOORD_0":23,
						"TEXCOORD_1":24,
						"COLOR_0":25,
						"COLOR_1":26
					},
					"indices":27,
					"material":3
				},
				{
					"attributes":{
						"POSITION":28,
						"NORMAL":29,
						"TEXCOORD_0":30,
						"TEXCOORD_1":31,
						"COLOR_0":32,
						"COLOR_1":33
					},
					"indices":34,
					"material":4
				}
			]
		}
	],
	"textures":[
		{
			"sampler":0,
			"source":0
		},
		{
			"sampler":0,
			"source":1
		},
		{
			"sampler":0,
			"source":2
		},
		{
			"sampler":0,
			"source":3
		},
		{
			"sampler":0,
			"source":4
		},
		{
			"sampler":0,
			"source":5
		},
		{
			"sampler":0,
			"source":6
		},
		{
			"sampler":0,
			"source":7
		},
		{
			"sampler":0,
			"source":8
		}
	],
	"images":[
		{
			"mimeType":"image/png",
			"name":"T_WhiteBrick_Normal",
			"uri":"T_WhiteBrick_Normal.png"
		},
		{
			"mimeType":"image/png",
			"name":"T_WhiteBrick_BaseColor",
			"uri":"T_WhiteBrick_BaseColor.png"
		},
		{
			"mimeType":"image/png",
			"name":"T_WhiteBrick_ORM",
			"uri":"T_WhiteBrick_ORM.png"
		},
		{
			"mimeType":"image/png",
			"name":"T_MetalConcrete_Normal",
			"uri":"T_MetalConcrete_Normal.png"
		},
		{
			"mimeType":"image/png",
			"name":"T_MetalConcrete_BaseColor",
			"uri":"T_MetalConcrete_BaseColor.png"
		},
		{
			"mimeType":"image/png",
			"name":"T_MetalConcrete_ORM",
			"uri":"T_MetalConcrete_ORM.png"
		},
		{
			"mimeType":"image/png",
			"name":"T_RedBrick_Normal",
			"uri":"T_RedBrick_Normal.png"
		},
		{
			"mimeType":"image/png",
			"name":"T_RedBrick_BaseColor",
			"uri":"T_RedBrick_BaseColor.png"
		},
		{
			"mimeType":"image/png",
			"name":"T_RedBrick_ORM",
			"uri":"T_RedBrick_ORM.png"
		}
	],
	"accessors":[
		{
			"bufferView":0,
			"componentType":5126,
			"count":16,
			"max":[
				1,
				4,
				1.3113415775478643e-07
			],
			"min":[
				-1,
				0,
				-0.10395258665084839
			],
			"type":"VEC3"
		},
		{
			"bufferView":1,
			"componentType":5126,
			"count":16,
			"type":"VEC3"
		},
		{
			"bufferView":2,
			"componentType":5126,
			"count":16,
			"type":"VEC2"
		},
		{
			"bufferView":3,
			"componentType":5126,
			"count":16,
			"type":"VEC2"
		},
		{
			"bufferView":4,
			"componentType":5121,
			"count":16,
			"normalized":true,
			"type":"VEC4"
		},
		{
			"bufferView":5,
			"componentType":5123,
			"count":16,
			"normalized":true,
			"type":"VEC4"
		},
		{
			"bufferView":6,
			"componentType":5123,
			"count":30,
			"type":"SCALAR"
		},
		{
			"bufferView":7,
			"componentType":5126,
			"count":386,
			"max":[
				1,
				3.249999761581421,
				0
			],
			"min":[
				-0.5067694187164307,
				-0.0005897581577301025,
				-0.2598543167114258
			],
			"type":"VEC3"
		},
		{
			"bufferView":8,
			"componentType":5126,
			"count":386,
			"type":"VEC3"
		},
		{
			"bufferView":9,
			"componentType":5126,
			"count":386,
			"type":"VEC2"
		},
		{
			"bufferView":10,
			"componentType":5126,
			"count":386,
			"type":"VEC2"
		},
		{
			"bufferView":11,
			"componentType":5121,
			"count":386,
			"normalized":true,
			"type":"VEC4"
		},
		{
			"bufferView":12,
			"componentType":5123,
			"count":386,
			"normalized":true,
			"type":"VEC4"
		},
		{
			"bufferView":13,
			"componentType":5123,
			"count":816,
			"type":"SCALAR"
		},
		{
			"bufferView":14,
			"componentType":5126,
			"count":16,
			"max":[
				0.9255115389823914,
				2.430180072784424,
				-0.13533179461956024
			],
			"min":[
				-0.4368559718132019,
				0.041484713554382324,
				-0.1353318989276886
			],
			"type":"VEC3"
		},
		{
			"bufferView":15,
			"componentType":5126,
			"count":16,
			"type":"VEC3"
		},
		{
			"bufferView":16,
			"componentType":5126,
			"count":16,
			"type":"VEC2"
		},
		{
			"bufferView":17,
			"componentType":5126,
			"count":16,
			"type":"VEC2"
		},
		{
			"bufferView":18,
			"componentType":5121,
			"count":16,
			"normalized":true,
			"type":"VEC4"
		},
		{
			"bufferView":19,
			"componentType":5123,
			"count":16,
			"normalized":true,
			"type":"VEC4"
		},
		{
			"bufferView":20,
			"componentType":5123,
			"count":24,
			"type":"SCALAR"
		},
		{
			"bufferView":21,
			"componentType":5126,
			"count":4,
			"max":[
				1,
				2.788115978240967,
				-0.1380426436662674
			],
			"min":[
				-1,
				0.008002042770385742,
				-0.1380426436662674
			],
			"type":"VEC3"
		},
		{
			"bufferView":22,
			"componentType":5126,
			"count":4,
			"type":"VEC3"
		},
		{
			"bufferView":23,
			"componentType":5126,
			"count":4,
			"type":"VEC2"
		},
		{
			"bufferView":24,
			"componentType":5126,
			"count":4,
			"type":"VEC2"
		},
		{
			"bufferView":25,
			"componentType":5121,
			"count":4,
			"normalized":true,
			"type":"VEC4"
		},
		{
			"bufferView":26,
			"componentType":5123,
			"count":4,
			"normalized":true,
			"type":"VEC4"
		},
		{
			"bufferView":27,
			"componentType":5123,
			"count":6,
			"type":"SCALAR"
		},
		{
			"bufferView":28,
			"componentType":5126,
			"count":12,
			"max":[
				1,
				4.000000476837158,
				-0.2000000923871994
			],
			"min":[
				-1,
				0,
				-0.2000000923871994
			],
			"type":"VEC3"
		},
		{
			"bufferView":29,
			"componentType":5126,
			"count":12,
			"type":"VEC3"
		},
		{
			"bufferView":30,
			"componentType":5126,
			"count":12,
			"type":"VEC2"
		},
		{
			"bufferView":31,
			"componentType":5126,
			"count":12,
			"type":"VEC2"
		},
		{
			"bufferView":32,
			"componentType":5121,
			"count":12,
			"normalized":true,
			"type":"VEC4"
		},
		{
			"bufferView":33,
			"componentType":5123,
			"count":12,
			"normalized":true,
			"type":"VEC4"
		},
		{
			"bufferView":34,
			"componentType":5123,
			"count":24,
			"type":"SCALAR"
		}
	],
	"bufferViews":[
		{
			"buffer":0,
			"byteLength":192,
			"byteOffset":0,
			"target":34962
		},
		{
			"buffer":0,
			"byteLength":192,
			"byteOffset":192,
			"target":34962
		},
		{
			"buffer":0,
			"byteLength":128,
			"byteOffset":384,
			"target":34962
		},
		{
			"buffer":0,
			"byteLength":128,
			"byteOffset":512,
			"target":34962
		},
		{
			"buffer":0,
			"byteLength":64,
			"byteOffset":640,
			"target":34962
		},
		{
			"buffer":0,
			"byteLength":128,
			"byteOffset":704,
			"target":34962
		},
		{
			"buffer":0,
			"byteLength":60,
			"byteOffset":832,
			"target":34963
		},
		{
			"buffer":0,
			"byteLength":4632,
			"byteOffset":892,
			"target":34962
		},
		{
			"buffer":0,
			"byteLength":4632,
			"byteOffset":5524,
			"target":34962
		},
		{
			"buffer":0,
			"byteLength":3088,
			"byteOffset":10156,
			"target":34962
		},
		{
			"buffer":0,
			"byteLength":3088,
			"byteOffset":13244,
			"target":34962
		},
		{
			"buffer":0,
			"byteLength":1544,
			"byteOffset":16332,
			"target":34962
		},
		{
			"buffer":0,
			"byteLength":3088,
			"byteOffset":17876,
			"target":34962
		},
		{
			"buffer":0,
			"byteLength":1632,
			"byteOffset":20964,
			"target":34963
		},
		{
			"buffer":0,
			"byteLength":192,
			"byteOffset":22596,
			"target":34962
		},
		{
			"buffer":0,
			"byteLength":192,
			"byteOffset":22788,
			"target":34962
		},
		{
			"buffer":0,
			"byteLength":128,
			"byteOffset":22980,
			"target":34962
		},
		{
			"buffer":0,
			"byteLength":128,
			"byteOffset":23108,
			"target":34962
		},
		{
			"buffer":0,
			"byteLength":64,
			"byteOffset":23236,
			"target":34962
		},
		{
			"buffer":0,
			"byteLength":128,
			"byteOffset":23300,
			"target":34962
		},
		{
			"buffer":0,
			"byteLength":48,
			"byteOffset":23428,
			"target":34963
		},
		{
			"buffer":0,
			"byteLength":48,
			"byteOffset":23476,
			"target":34962
		},
		{
			"buffer":0,
			"byteLength":48,
			"byteOffset":23524,
			"target":34962
		},
		{
			"buffer":0,
			"byteLength":32,
			"byteOffset":23572,
			"target":34962
		},
		{
			"buffer":0,
			"byteLength":32,
			"byteOffset":23604,
			"target":34962
		},
		{
			"buffer":0,
			"byteLength":16,
			"byteOffset":23636,
			"target":34962
		},
		{
			"buffer":0,
			"byteLength":32,
			"byteOffset":23652,
			"target":34962
		},
		{
			"buffer":0,
			"byteLength":12,
			"byteOffset":23684,
			"target":34963
		},
		{
			"buffer":0,
			"byteLength":144,
			"byteOffset":23696,
			"target":34962
		},
		{
			"buffer":0,
			"byteLength":144,
			"byteOffset":23840,
			"target":34962
		},
		{
			"buffer":0,
			"byteLength":96,
			"byteOffset":23984,
			"target":34962
		},
		{
			"buffer":0,
			"byteLength":96,
			"byteOffset":24080,
			"target":34962
		},
		{
			"buffer":0,
			"byteLength":48,
			"byteOffset":24176,
			"target":34962
		},
		{
			"buffer":0,
			"byteLength":96,
			"byteOffset":24224,
			"target":34962
		},
		{
			"buffer":0,
			"byteLength":48,
			"byteOffset":24320,
			"target":34963
		}
	],
	"samplers":[
		{
			"magFilter":9729,
			"minFilter":9987
		}
	],
	"buffers":[
		{
			"byteLength":24368,
			"uri":"WhiteBrick_Window_L.bin"
		}
	]
}
