{
	"asset":{
		"generator":"Khronos glTF Blender I/O v4.3.47",
		"version":"2.0"
	},
	"scene":0,
	"scenes":[
		{
			"name":"Scene",
			"nodes":[
				0
			]
		}
	],
	"nodes":[
		{
			"mesh":0,
			"name":"WornBrick_Bottom"
		}
	],
	"materials":[
		{
			"doubleSided":true,
			"name":"MI_WornBrick",
			"normalTexture":{
				"index":0
			},
			"pbrMetallicRoughness":{
				"baseColorTexture":{
					"index":1
				},
				"metallicRoughnessTexture":{
					"index":2
				}
			}
		},
		{
			"doubleSided":true,
			"name":"MI_InteriorWall",
			"normalTexture":{
				"index":3
			},
			"pbrMetallicRoughness":{
				"baseColorTexture":{
					"index":4
				},
				"metallicRoughnessTexture":{
					"index":5
				}
			}
		},
		{
			"doubleSided":true,
			"name":"MI_Trim_Dark",
			"normalTexture":{
				"index":6
			},
			"pbrMetallicRoughness":{
				"baseColorTexture":{
					"index":7
				},
				"metallicRoughnessTexture":{
					"index":8
				}
			}
		}
	],
	"meshes":[
		{
			"name":"Cube.083",
			"primitives":[
				{
					"attributes":{
						"POSITION":0,
						"NORMAL":1,
						"TEXCOORD_0":2,
						"TEXCOORD_1":3,
						"COLOR_0":4
					},
					"indices":5,
					"material":0
				},
				{
					"attributes":{
						"POSITION":6,
						"NORMAL":7,
						"TEXCOORD_0":8,
						"TEXCOORD_1":9,
						"COLOR_0":10
					},
					"indices":11,
					"material":1
				},
				{
					"attributes":{
						"POSITION":12,
						"NORMAL":13,
						"TEXCOORD_0":14,
						"TEXCOORD_1":15,
						"COLOR_0":16
					},
					"indices":17,
					"material":2
				}
			]
		}
	],
	"textures":[
		{
			"sampler":0,
			"source":0
		},
		{
			"sampler":0,
			"source":1
		},
		{
			"sampler":0,
			"source":2
		},
		{
			"sampler":0,
			"source":3
		},
		{
			"sampler":0,
			"source":4
		},
		{
			"sampler":0,
			"source":5
		},
		{
			"sampler":0,
			"source":6
		},
		{
			"sampler":0,
			"source":7
		},
		{
			"sampler":0,
			"source":8
		}
	],
	"images":[
		{
			"mimeType":"image/png",
			"name":"T_WornBrick_Normal",
			"uri":"T_WornBrick_Normal.png"
		},
		{
			"mimeType":"image/png",
			"name":"T_WornBrick_BaseColor",
			"uri":"T_WornBrick_BaseColor.png"
		},
		{
			"mimeType":"image/png",
			"name":"T_WornBrick_ORM",
			"uri":"T_WornBrick_ORM.png"
		},
		{
			"mimeType":"image/png",
			"name":"T_RedBrick_Normal",
			"uri":"T_RedBrick_Normal.png"
		},
		{
			"mimeType":"image/png",
			"name":"T_RedBrick_BaseColor",
			"uri":"T_RedBrick_BaseColor.png"
		},
		{
			"mimeType":"image/png",
			"name":"T_RedBrick_ORM",
			"uri":"T_RedBrick_ORM.png"
		},
		{
			"mimeType":"image/png",
			"name":"T_Trim_Normal",
			"uri":"T_Trim_Normal.png"
		},
		{
			"mimeType":"image/png",
			"name":"T_Trim_BaseColor",
			"uri":"T_Trim_BaseColor.png"
		},
		{
			"mimeType":"image/png",
			"name":"T_Trim_ORM",
			"uri":"T_Trim_ORM.png"
		}
	],
	"accessors":[
		{
			"bufferView":0,
			"componentType":5126,
			"count":62,
			"max":[
				2,
				3,
				1.3113415775478643e-07
			],
			"min":[
				-2,
				0.4176529049873352,
				-0.1000000610947609
			],
			"type":"VEC3"
		},
		{
			"bufferView":1,
			"componentType":5126,
			"count":62,
			"type":"VEC3"
		},
		{
			"bufferView":2,
			"componentType":5126,
			"count":62,
			"type":"VEC2"
		},
		{
			"bufferView":3,
			"componentType":5126,
			"count":62,
			"type":"VEC2"
		},
		{
			"bufferView":4,
			"componentType":5123,
			"count":62,
			"normalized":true,
			"type":"VEC4"
		},
		{
			"bufferView":5,
			"componentType":5123,
			"count":144,
			"type":"SCALAR"
		},
		{
			"bufferView":6,
			"componentType":5126,
			"count":8,
			"max":[
				2,
				3.000000476837158,
				-0.2000000923871994
			],
			"min":[
				-2,
				0,
				-0.2000000923871994
			],
			"type":"VEC3"
		},
		{
			"bufferView":7,
			"componentType":5126,
			"count":8,
			"type":"VEC3"
		},
		{
			"bufferView":8,
			"componentType":5126,
			"count":8,
			"type":"VEC2"
		},
		{
			"bufferView":9,
			"componentType":5126,
			"count":8,
			"type":"VEC2"
		},
		{
			"bufferView":10,
			"componentType":5123,
			"count":8,
			"normalized":true,
			"type":"VEC4"
		},
		{
			"bufferView":11,
			"componentType":5123,
			"count":12,
			"type":"SCALAR"
		},
		{
			"bufferView":12,
			"componentType":5126,
			"count":24,
			"max":[
				2,
				0.41767141222953796,
				1.825699769142375e-08
			],
			"min":[
				-2,
				0,
				-0.10000007599592209
			],
			"type":"VEC3"
		},
		{
			"bufferView":13,
			"componentType":5126,
			"count":24,
			"type":"VEC3"
		},
		{
			"bufferView":14,
			"componentType":5126,
			"count":24,
			"type":"VEC2"
		},
		{
			"bufferView":15,
			"componentType":5126,
			"count":24,
			"type":"VEC2"
		},
		{
			"bufferView":16,
			"componentType":5123,
			"count":24,
			"normalized":true,
			"type":"VEC4"
		},
		{
			"bufferView":17,
			"componentType":5123,
			"count":36,
			"type":"SCALAR"
		}
	],
	"bufferViews":[
		{
			"buffer":0,
			"byteLength":744,
			"byteOffset":0,
			"target":34962
		},
		{
			"buffer":0,
			"byteLength":744,
			"byteOffset":744,
			"target":34962
		},
		{
			"buffer":0,
			"byteLength":496,
			"byteOffset":1488,
			"target":34962
		},
		{
			"buffer":0,
			"byteLength":496,
			"byteOffset":1984,
			"target":34962
		},
		{
			"buffer":0,
			"byteLength":496,
			"byteOffset":2480,
			"target":34962
		},
		{
			"buffer":0,
			"byteLength":288,
			"byteOffset":2976,
			"target":34963
		},
		{
			"buffer":0,
			"byteLength":96,
			"byteOffset":3264,
			"target":34962
		},
		{
			"buffer":0,
			"byteLength":96,
			"byteOffset":3360,
			"target":34962
		},
		{
			"buffer":0,
			"byteLength":64,
			"byteOffset":3456,
			"target":34962
		},
		{
			"buffer":0,
			"byteLength":64,
			"byteOffset":3520,
			"target":34962
		},
		{
			"buffer":0,
			"byteLength":64,
			"byteOffset":3584,
			"target":34962
		},
		{
			"buffer":0,
			"byteLength":24,
			"byteOffset":3648,
			"target":34963
		},
		{
			"buffer":0,
			"byteLength":288,
			"byteOffset":3672,
			"target":34962
		},
		{
			"buffer":0,
			"byteLength":288,
			"byteOffset":3960,
			"target":34962
		},
		{
			"buffer":0,
			"byteLength":192,
			"byteOffset":4248,
			"target":34962
		},
		{
			"buffer":0,
			"byteLength":192,
			"byteOffset":4440,
			"target":34962
		},
		{
			"buffer":0,
			"byteLength":192,
			"byteOffset":4632,
			"target":34962
		},
		{
			"buffer":0,
			"byteLength":72,
			"byteOffset":4824,
			"target":34963
		}
	],
	"samplers":[
		{
			"magFilter":9729,
			"minFilter":9987
		}
	],
	"buffers":[
		{
			"byteLength":4896,
			"uri":"WornBrick_Bottom.bin"
		}
	]
}
