{
	"asset":{
		"generator":"Khronos glTF Blender I/O v4.3.47",
		"version":"2.0"
	},
	"scene":0,
	"scenes":[
		{
			"name":"Scene",
			"nodes":[
				0
			]
		}
	],
	"nodes":[
		{
			"mesh":0,
			"name":"WornBrick_WindowTriple"
		}
	],
	"materials":[
		{
			"doubleSided":true,
			"name":"MI_WornBrick",
			"normalTexture":{
				"index":0
			},
			"pbrMetallicRoughness":{
				"baseColorTexture":{
					"index":1
				},
				"metallicRoughnessTexture":{
					"index":2
				}
			}
		},
		{
			"doubleSided":true,
			"name":"MI_Trim_MetalConcrete",
			"normalTexture":{
				"index":3
			},
			"pbrMetallicRoughness":{
				"baseColorTexture":{
					"index":4
				},
				"metallicRoughnessTexture":{
					"index":5
				}
			}
		},
		{
			"alphaMode":"BLEND",
			"doubleSided":true,
			"name":"MI_Glass",
			"pbrMetallicRoughness":{
				"baseColorFactor":[
					0.05215025693178177,
					0.05215025693178177,
					0.05215025693178177,
					0.586363673210144
				],
				"metallicFactor":0,
				"roughnessFactor":0.5
			}
		},
		{
			"doubleSided":true,
			"name":"MI_FakeInterior",
			"pbrMetallicRoughness":{
				"baseColorFactor":[
					0.800000011920929,
					0.800000011920929,
					0.800000011920929,
					1
				],
				"metallicFactor":0,
				"roughnessFactor":0.5
			}
		},
		{
			"doubleSided":true,
			"name":"MI_InteriorWall",
			"normalTexture":{
				"index":6
			},
			"pbrMetallicRoughness":{
				"baseColorTexture":{
					"index":7
				},
				"metallicRoughnessTexture":{
					"index":8
				}
			}
		}
	],
	"meshes":[
		{
			"name":"Cube.064",
			"primitives":[
				{
					"attributes":{
						"POSITION":0,
						"NORMAL":1,
						"TEXCOORD_0":2,
						"TEXCOORD_1":3,
						"COLOR_0":4
					},
					"indices":5,
					"material":0
				},
				{
					"attributes":{
						"POSITION":6,
						"NORMAL":7,
						"TEXCOORD_0":8,
						"TEXCOORD_1":9,
						"COLOR_0":10
					},
					"indices":11,
					"material":1
				},
				{
					"attributes":{
						"POSITION":12,
						"NORMAL":13,
						"TEXCOORD_0":14,
						"TEXCOORD_1":15,
						"COLOR_0":16
					},
					"indices":17,
					"material":2
				},
				{
					"attributes":{
						"POSITION":18,
						"NORMAL":19,
						"TEXCOORD_0":20,
						"TEXCOORD_1":21,
						"COLOR_0":22
					},
					"indices":23,
					"material":3
				},
				{
					"attributes":{
						"POSITION":24,
						"NORMAL":25,
						"TEXCOORD_0":26,
						"TEXCOORD_1":27,
						"COLOR_0":28
					},
					"indices":29,
					"material":4
				}
			]
		}
	],
	"textures":[
		{
			"sampler":0,
			"source":0
		},
		{
			"sampler":0,
			"source":1
		},
		{
			"sampler":0,
			"source":2
		},
		{
			"sampler":0,
			"source":3
		},
		{
			"sampler":0,
			"source":4
		},
		{
			"sampler":0,
			"source":5
		},
		{
			"sampler":0,
			"source":6
		},
		{
			"sampler":0,
			"source":7
		},
		{
			"sampler":0,
			"source":8
		}
	],
	"images":[
		{
			"mimeType":"image/png",
			"name":"T_WornBrick_Normal",
			"uri":"T_WornBrick_Normal.png"
		},
		{
			"mimeType":"image/png",
			"name":"T_WornBrick_BaseColor",
			"uri":"T_WornBrick_BaseColor.png"
		},
		{
			"mimeType":"image/png",
			"name":"T_WornBrick_ORM",
			"uri":"T_WornBrick_ORM.png"
		},
		{
			"mimeType":"image/png",
			"name":"T_MetalConcrete_Normal",
			"uri":"T_MetalConcrete_Normal.png"
		},
		{
			"mimeType":"image/png",
			"name":"T_MetalConcrete_BaseColor",
			"uri":"T_MetalConcrete_BaseColor.png"
		},
		{
			"mimeType":"image/png",
			"name":"T_MetalConcrete_ORM",
			"uri":"T_MetalConcrete_ORM.png"
		},
		{
			"mimeType":"image/png",
			"name":"T_RedBrick_Normal",
			"uri":"T_RedBrick_Normal.png"
		},
		{
			"mimeType":"image/png",
			"name":"T_RedBrick_BaseColor",
			"uri":"T_RedBrick_BaseColor.png"
		},
		{
			"mimeType":"image/png",
			"name":"T_RedBrick_ORM",
			"uri":"T_RedBrick_ORM.png"
		}
	],
	"accessors":[
		{
			"bufferView":0,
			"componentType":5126,
			"count":253,
			"max":[
				2,
				3,
				1.3113415775478643e-07
			],
			"min":[
				-2,
				0,
				-0.1819331794977188
			],
			"type":"VEC3"
		},
		{
			"bufferView":1,
			"componentType":5126,
			"count":253,
			"type":"VEC3"
		},
		{
			"bufferView":2,
			"componentType":5126,
			"count":253,
			"type":"VEC2"
		},
		{
			"bufferView":3,
			"componentType":5126,
			"count":253,
			"type":"VEC2"
		},
		{
			"bufferView":4,
			"componentType":5123,
			"count":253,
			"normalized":true,
			"type":"VEC4"
		},
		{
			"bufferView":5,
			"componentType":5123,
			"count":612,
			"type":"SCALAR"
		},
		{
			"bufferView":6,
			"componentType":5126,
			"count":672,
			"max":[
				1.2716801166534424,
				2.4301576614379883,
				-0.14494656026363373
			],
			"min":[
				-1.271918773651123,
				0.7431448101997375,
				-0.22218744456768036
			],
			"type":"VEC3"
		},
		{
			"bufferView":7,
			"componentType":5126,
			"count":672,
			"type":"VEC3"
		},
		{
			"bufferView":8,
			"componentType":5126,
			"count":672,
			"type":"VEC2"
		},
		{
			"bufferView":9,
			"componentType":5126,
			"count":672,
			"type":"VEC2"
		},
		{
			"bufferView":10,
			"componentType":5123,
			"count":672,
			"normalized":true,
			"type":"VEC4"
		},
		{
			"bufferView":11,
			"componentType":5123,
			"count":1260,
			"type":"SCALAR"
		},
		{
			"bufferView":12,
			"componentType":5126,
			"count":36,
			"max":[
				1.213590383529663,
				2.3691329956054688,
				-0.18356700241565704
			],
			"min":[
				-1.2138291597366333,
				0.8126247525215149,
				-0.18356700241565704
			],
			"type":"VEC3"
		},
		{
			"bufferView":13,
			"componentType":5126,
			"count":36,
			"type":"VEC3"
		},
		{
			"bufferView":14,
			"componentType":5126,
			"count":36,
			"type":"VEC2"
		},
		{
			"bufferView":15,
			"componentType":5126,
			"count":36,
			"type":"VEC2"
		},
		{
			"bufferView":16,
			"componentType":5123,
			"count":36,
			"normalized":true,
			"type":"VEC4"
		},
		{
			"bufferView":17,
			"componentType":5123,
			"count":72,
			"type":"SCALAR"
		},
		{
			"bufferView":18,
			"componentType":5126,
			"count":4,
			"max":[
				1.7589874267578125,
				2.9634039402008057,
				-0.1895076036453247
			],
			"min":[
				-1.7590017318725586,
				0.05677269771695137,
				-0.18950775265693665
			],
			"type":"VEC3"
		},
		{
			"bufferView":19,
			"componentType":5126,
			"count":4,
			"type":"VEC3"
		},
		{
			"bufferView":20,
			"componentType":5126,
			"count":4,
			"type":"VEC2"
		},
		{
			"bufferView":21,
			"componentType":5126,
			"count":4,
			"type":"VEC2"
		},
		{
			"bufferView":22,
			"componentType":5123,
			"count":4,
			"normalized":true,
			"type":"VEC4"
		},
		{
			"bufferView":23,
			"componentType":5123,
			"count":6,
			"type":"SCALAR"
		},
		{
			"bufferView":24,
			"componentType":5126,
			"count":100,
			"max":[
				2,
				3.000000476837158,
				-0.16928105056285858
			],
			"min":[
				-2,
				0,
				-0.2000000923871994
			],
			"type":"VEC3"
		},
		{
			"bufferView":25,
			"componentType":5126,
			"count":100,
			"type":"VEC3"
		},
		{
			"bufferView":26,
			"componentType":5126,
			"count":100,
			"type":"VEC2"
		},
		{
			"bufferView":27,
			"componentType":5126,
			"count":100,
			"type":"VEC2"
		},
		{
			"bufferView":28,
			"componentType":5123,
			"count":100,
			"normalized":true,
			"type":"VEC4"
		},
		{
			"bufferView":29,
			"componentType":5123,
			"count":240,
			"type":"SCALAR"
		}
	],
	"bufferViews":[
		{
			"buffer":0,
			"byteLength":3036,
			"byteOffset":0,
			"target":34962
		},
		{
			"buffer":0,
			"byteLength":3036,
			"byteOffset":3036,
			"target":34962
		},
		{
			"buffer":0,
			"byteLength":2024,
			"byteOffset":6072,
			"target":34962
		},
		{
			"buffer":0,
			"byteLength":2024,
			"byteOffset":8096,
			"target":34962
		},
		{
			"buffer":0,
			"byteLength":2024,
			"byteOffset":10120,
			"target":34962
		},
		{
			"buffer":0,
			"byteLength":1224,
			"byteOffset":12144,
			"target":34963
		},
		{
			"buffer":0,
			"byteLength":8064,
			"byteOffset":13368,
			"target":34962
		},
		{
			"buffer":0,
			"byteLength":8064,
			"byteOffset":21432,
			"target":34962
		},
		{
			"buffer":0,
			"byteLength":5376,
			"byteOffset":29496,
			"target":34962
		},
		{
			"buffer":0,
			"byteLength":5376,
			"byteOffset":34872,
			"target":34962
		},
		{
			"buffer":0,
			"byteLength":5376,
			"byteOffset":40248,
			"target":34962
		},
		{
			"buffer":0,
			"byteLength":2520,
			"byteOffset":45624,
			"target":34963
		},
		{
			"buffer":0,
			"byteLength":432,
			"byteOffset":48144,
			"target":34962
		},
		{
			"buffer":0,
			"byteLength":432,
			"byteOffset":48576,
			"target":34962
		},
		{
			"buffer":0,
			"byteLength":288,
			"byteOffset":49008,
			"target":34962
		},
		{
			"buffer":0,
			"byteLength":288,
			"byteOffset":49296,
			"target":34962
		},
		{
			"buffer":0,
			"byteLength":288,
			"byteOffset":49584,
			"target":34962
		},
		{
			"buffer":0,
			"byteLength":144,
			"byteOffset":49872,
			"target":34963
		},
		{
			"buffer":0,
			"byteLength":48,
			"byteOffset":50016,
			"target":34962
		},
		{
			"buffer":0,
			"byteLength":48,
			"byteOffset":50064,
			"target":34962
		},
		{
			"buffer":0,
			"byteLength":32,
			"byteOffset":50112,
			"target":34962
		},
		{
			"buffer":0,
			"byteLength":32,
			"byteOffset":50144,
			"target":34962
		},
		{
			"buffer":0,
			"byteLength":32,
			"byteOffset":50176,
			"target":34962
		},
		{
			"buffer":0,
			"byteLength":12,
			"byteOffset":50208,
			"target":34963
		},
		{
			"buffer":0,
			"byteLength":1200,
			"byteOffset":50220,
			"target":34962
		},
		{
			"buffer":0,
			"byteLength":1200,
			"byteOffset":51420,
			"target":34962
		},
		{
			"buffer":0,
			"byteLength":800,
			"byteOffset":52620,
			"target":34962
		},
		{
			"buffer":0,
			"byteLength":800,
			"byteOffset":53420,
			"target":34962
		},
		{
			"buffer":0,
			"byteLength":800,
			"byteOffset":54220,
			"target":34962
		},
		{
			"buffer":0,
			"byteLength":480,
			"byteOffset":55020,
			"target":34963
		}
	],
	"samplers":[
		{
			"magFilter":9729,
			"minFilter":9987
		}
	],
	"buffers":[
		{
			"byteLength":55500,
			"uri":"WornBrick_WindowTriple.bin"
		}
	]
}
